<?xml version="1.0" encoding="utf-8"?>
<!-- Generator: Adobe Illustrator 23.0.1, SVG Export Plug-In . SVG Version: 6.00 Build 0)  -->
<svg version="1.1" id="Ebene_1" xmlns="http://www.w3.org/2000/svg" xmlns:xlink="http://www.w3.org/1999/xlink" x="0px" y="0px"
	 viewBox="0 0 2834.65 2834.65" style="enable-background:new 0 0 2834.65 2834.65;" xml:space="preserve">
<path d="M1180.82,1379.82h-20l-12,1l10,3l4,1l19-1v-1v-1v-1v-1H1180.82z M1185.82,1379.82v1v1v1l7,1l10,1l12,1h2l-2-1l-5-1
	L1185.82,1379.82z M1325.82,1317.82v16l1,8l1-8l2-14l-1-7h-1h-1h-1h-1L1325.82,1317.82z M1320.82,1309.82h1h1h1h1v-1h-1l-1-10l-1-10
	l-1,20V1309.82z M1424.82,1336.82l1,40l1,4l1-38l1-6v-1h-1h-1h-1h-1V1336.82z M1424.82,1333.82h1h1h1h1v-1l-1-30l-1-3v13l-2,20
	V1333.82z M1180.82,1295.82l2-13l1,16l2-14l1-10l-1-2h-1h-1h-1l-5,27L1180.82,1295.82z M1154.82,1259.82v3h1h1h1l-2-11l1-5l-1-1
	l-1-17l-1,12L1154.82,1259.82z M1644.82,1806.82l-3,1l-4,1h7l17,2h1v-11v6h-4h-4L1644.82,1806.82z M1665.82,1797.82v1v1v1v5l16-2
	l17-4l-6-1l-6-2l-18,3L1665.82,1797.82z M1575.82,1530.82l-14,1l-8,1l4,1l4-1l21,2v-1v-1v-1v-1H1575.82z M1585.82,1528.82v1v1v1v1h1
	l4-1l40-1l-40-1l-4-1H1585.82z M1568.82,1487.82l-30,1l-5,1h15l20,2h1v-1v-1v-1v-1H1568.82z M1572.82,1486.82v1v1v1v1h1l18-1l22-1
	l-10-3l-30,1H1572.82z M1558.82,1455.82l-20,1l-10,1l10,1l9,2l12-1v-1v-1v-1v-1H1558.82z M1401.82,975.82v1v1v1v1l12,1l9-2l10-1
	l-7-1l-19,1L1401.82,975.82z M1400.82,968.82v1v1v1v1v-1l11-1h17l-7-1l-10-2L1400.82,968.82z M1222.82,1225.82h-3l-10,2h2h9l16,1v-1
	v-1v-1v-5L1222.82,1225.82z M1241.82,1220.82v1v1v1v4l1,1l26-3l10-3l-10,1l-26-3H1241.82z M1472.82,1197.82l-30,4l-10-1l10,3l26-1
	l15,2v-1v-1v-1v-1L1472.82,1197.82z M1487.82,1190.82v1v7v1v1h1h12l28-2l10-1l-34-3L1487.82,1190.82z M1299.82,1059.82l-24,1l-8,2
	l9,1h23h1v-1v-1v-1v-1H1299.82z M1303.82,1060.82v1v1v1v1h1l11-2h16l8-2l-6,1L1303.82,1060.82z M1542.82,1373.82l2-1h4l4,1l3,2h6
	l4,2l16,3l7,1h4l10,4l5,2l6-1l4,2l8,2l10,1l9,3l3-4l-5-3l-9-4l-5-5l-6-1l-6-2l-6-1l-5-1l-3-1l-7,1l-6,1l-2-2l-6-6h-4l-7,2l-7-2h-3
	l-6-5l-9,3l-6-3l-3-3l-4-5v-3l-2-5l-2-8l-2-5l-1-5l1-6l-3-4l2-5l-3-5v-5v-5l-1-7v-5l-3-10l1-6l-1-7l1-7l-2-4v-5v-6l-3-5l-1-5l-3-8
	l-4-6l-1-6l-3-4l-1-4l-4-3l-2-4l-3-4l-1-7l-7-7l-4-3l-1-5v-7l-1-3l-6-5v-3l-3-5l-1-6l-2-3l-2-6l-2-4l-1-4l-2-5l-4-5l-1-5l-3-6l-1-3
	l-2-5l1-5l-2-5l-5-5v-5l-3-4l-2-4l-2-4l-3-7v-3l-5-11l-2-5v-3l-3-4l-2-7l1-4l-2-3l-2-7l-1-4l-1-4l-2-5l-4-5l-1-4l-1-5l-1-5l-2-6
	l-1-3l-1-4v-5l-4-10v-6l-3-4l-1-6l-3-4l-2-4l-7-4l-3-3l-2-3l-3-4l-9-3l-9-3l-4,5l-3,7l-2,4l-3,5v4l-3,5v3l-5,6v3l-1,6l-4,5v4l-2,3
	l-2,6l-1,4l-2,7l-4,3v5l-2,3l-1,5l-3,5l-3,9l1,5l-4,5l-1,7l-2,5l-2,5v3l-2,4l-3,6l1,5l-2,4l-4,6l-2,5l-4,10v4l-4,6l-1,4v3l-5,5l-2,5
	l1,5l-4,5l-2,5l-1,3l-2,7l-2,3l-1,6l-3,8l-1,5l-3,6l-1,4l-1,6l-1,3l-3,4l-2,7l1,4l-3,3l-3,5l-2,6l-1,4l-3,3l-2,6v6l-2,2l-2,7l-4,3
	l-1,5v4l-4,4l-2,6v5l-5,8l-5,5h-1l-4-2l-8-1h-6l-6-2l-6-3h-13l-6-2l-4-3h-11l-6,2h-5l-9-1v1l7,3l4,3h5l4,2l7,1h8l9,2l3,2l6,1l4,2
	l13,3l3-1l4,2l1,7l1,3l-4,11v4l-1,5l-4,3l2,6l-3,6l-2,8l-2,3l-1,5v6l-6,8l-2,5l-2,8l-4,10l-3,7l1,4l-3,4l-1,4l-4,11v5l-2,5l-1,4
	l-3,4l-1,5l-1,6l-1,3l-2,4l-2,5v6v4l-2,4v7l-3,4l-3,5l1,3v7l-2,4l-2,4l2,7l-4,5l-1,3l2,7v5l-2,4l2,9l-2,5l2,7v5l7,7l8-11v-6v-9v-7
	l1-10v-3l1-6v-5l-1-4l3-5l-1-6v-4l3-4v-3l-1-7l2-5l2-5l1-5l2-6l1-6v-5l2-3l1-6l2-3l1-5l3-6l1-4l2-6l3-5l1-7l2-6l2-4l4-7v-4l2-3l4-7
	l2-4l1-6l4-2l1-6l-1-5l1-5l1-7l4-8l1-6l1-3v-5l1-4l4-11l1-1l5-2l2,1l8-2l7,3l6,2h6l4,1l7,4l10,2l6,2l5,1l9,2l4,5l5-1l4,3l9,1h2l5,1
	l6,1l3,2h8l3,3l6-1l9,3l5,2l5,1l10,2h6l4,1h5l10,5l4,1l7,1l4-1l5,2l9,2l7,1l4,2l4,2l7,1l6,2h4l4,3h5l6,3l10,3h4l5,3l5,2l7,3l4,2l3,1
	l4,4l3,4l1,4l4,5l3,8v5l3,3l2,7l3,8l2,7l2,2l2,7l-2,4l3,5l2,5l2,3l3,11l-1,5l3,5v4l2,3l1,6l1,4l3,7l1,2l1,6l1,6l3,4l1,6v3l1,4l2,6
	l4,4l1,4l1,7l1,5l2,2l2,6l3,5l1,5l1,5l2,3l1,6l4,6v4l3,5l1,5l1,2l2,7l1,5l2,9l4,5l1,6l2,4l-1,5l2,6l4,5l1,9v5l4,4v6l1,6l1,4l3,5v5
	l2,5l2,5v3l2,5l3,10l1,6l1,4l1,5l3,12l1,2v6l2,6v5l2,3l3,6l-1,3l1,6l2,4v5l3,7l3,7l1,7l2,5l1,5l1,3l1,6l2,4l2,5v5l5,6l2,3l2,3l3,6
	l1,6l5,10l1,6l5,12l13,24l-5-26l-1-9l-3-3v-7l-3-3l-3-10l-1-4l-1-6l-5-11v-3l-2-4l-1-4l-4-10l-2-6l-1-3v-6l-2-4l-4-6l1-4l-2-5l-1-4
	l-2-5v-5l-3-11v-4l-3-5l-2-6v-5l-2-4l-1-4l-1-7l-3-9l-2-5v-5l-2-6l-1-5l-2-9l1-4l-3-6l-1-4v-5l-2-5v-4l-4-5v-6l-2-4l-1-5v-5l-3-3
	l-1-6l-5-10v-3l-3-4l-1-9v-6l-5-4v-5l-2-5l-1-6l-2-5l-3-5v-3l-2-4l-3-6l-1-6l-1-4l-3-6l-2-4l-4-8l-1-6l-2-7l-2-4l-2-5l-1-3l-2-6l1-3
	l-3-6l-3-10v-5l-3-4v-5l-3-4l-1-6l-2-4v-6v-4l-4-6l1-4l-3-7l-2-4l-1-3v-6l-1-6l-2-5l-1-5l-3-4l-1-5v-5l-3-3L1542.82,1373.82z
	 M1362.82,918.82h2l5,4l3,2l2,5l5,6v5l2,2l7,11l-2,4l3,5l4,11l2,4l1,7v3l2,7l3,8l2,4l-1,5l4,6v4l2,4l1,5l2,6l2,3l2,5l1,5l1,5l3,6
	l3,4l1,5l2,3l2,6l2,3l2,5v5l3,5l1,5l2,4l4,3v6l4,4v6l3,3l4,10l1,3l4,5l2,5v5l2,3l2,7l3,2l1,5l2,10l2,6l3,4l2,4v5l3,3v7v5l3,3l1,4
	l1,7l2,3v5l3,6l1,5v3l2,6l-1,4l3,11l2,11l3,4l-1,6v4l3,5l2,4l-1,4l5,9l1,5l2,5l1,6l-1,6l3,5l-6-2l-8-2h-3l-4-1l-5-1l-4-2l-6-1h-4h-6
	l-5-3l-8-2l-3-1l-4-2h-4h-5l-8-2l-3-2l-5-1l-4-1l-4-2l-7,1l-6-2l-4-1l-6-1l-12-3h-4l-3-1l-5-2l-12-3l-4-2h-5l-7-1l-4,1l-6-2h-5l-5-2
	l-9-4h-5l-7-2l-2-1l-8-5l-5,1l-4-1l-10-4l-4-2l-6-2l-5-1l-4-3l-13-3l-4,1l-4-4v-4l4-9l2-5l1-6l1-4l5-8l3-10l2-4l3-7v-5l3-3l2-6l4-8
	v-7l6-9v-5l1-3l3-5l2-5v-5l3-5l2-3l3-6l1-5l1-3l2-5l1-5l4-5l-1-4l2-3l3-5l5-10l2-6l1-5v-3l2-6l3-5l2-5l1-3l2-6l1-3l4-5l-2-5l3-5l2-6
	v-3l1-6l4-5l1-4l1-5l4-6v-5l4-9l2-4v-4l2-5v-5l4-4l6-8l-1-6l2-3l2-4v-6l3-5l2-10l2-3L1362.82,918.82z"/>
</svg>
