<?xml version="1.0" encoding="utf-8"?>
<!-- Generator: Adobe Illustrator 23.0.1, SVG Export Plug-In . SVG Version: 6.00 Build 0)  -->
<svg version="1.1" id="Ebene_1" xmlns="http://www.w3.org/2000/svg" xmlns:xlink="http://www.w3.org/1999/xlink" x="0px" y="0px"
	 viewBox="0 0 2834.65 2834.65" style="enable-background:new 0 0 2834.65 2834.65;" xml:space="preserve">
<path d="M1175.32,1351.59h-23l-13,1l11,3l5,1l21-1v-1v-1v-1v-1H1175.32z M1180.32,1351.59v1v1v1l8,1l11,2h2h3l-3-1l-5-1
	L1180.32,1351.59z M1336.32,1289.59v6l1,8l2-8v-4l1-7h-1h-2h-1h-1L1336.32,1289.59z M1331.32,1281.59h1h1h1h1v-1h-1l-1-10l-1-10
	l-1,20V1281.59z M1447.32,1308.59l1,40l1,4l1-38l1-6v-1h-1h-1h-1h-1V1308.59z M1447.32,1305.59h1h1h1h1v-1l-1-20l-1-3v13l-2,10
	V1305.59z M1175.32,1267.59l2-13l1,16l2-14l1-10l-1-2h-1h-1h-1l-6,27L1175.32,1267.59z M1146.32,1231.59v3h1h1h1l-2-11l1-5l-1-1
	l-1-17l-1,12L1146.32,1231.59z M1663.32,1779.59h-4l-5,1h8l19,2h1v-1v-1h-4h-2L1663.32,1779.59z M1685.32,1769.59v1v1v1v1h7l19-2
	l-7-1l-6,1h-9L1685.32,1769.59z M1615.32,1502.59l-16,1l-8,1l4,1l4-1l24,2v-1v-1v-1v-1H1615.32z M1626.32,1500.59v1v1v1v1h1l5-1
	l44-1l-44-1l-5-1H1626.32z M1607.32,1459.59l-33,1l-6,1h17l22,2h1v-1v-1v-1v-1H1607.32z M1612.32,1458.59v1v1v1v1h1l7-3l26,1l-11-3
	l-22,1H1612.32z M1596.32,1427.59l-22,1l-11,1l11,1l10,2l13-1v-1v-1v-1v-1H1596.32z M1421.32,947.59v1v1v1v1l13,1l10-2l12-1l-8-1
	l-21,1L1421.32,947.59z M1420.32,940.59v1v1v1v1v-1l12-1h19l-8-1l-11-2L1420.32,940.59z M1221.32,1197.59h-3l-11,2h2h10l18,1v-1v-1
	v-1v-5L1221.32,1197.59z M1243.32,1192.59v1v1v1v4l1,1l29-3l11-3l-11,1l-29-3H1243.32z M1511.32,1172.59l-33,1l-11-1l11,3l18-1l16,2
	v-1v-1v-1v-1H1511.32z M1517.32,1162.59v1v7v1v1h1h13l20-2l12-1l-27-3L1517.32,1162.59z M1307.32,1031.59l-15,1l-9,2l10,1h14h1v-1
	v-1v-1v-1H1307.32z M1312.32,1032.59v1v1v1v1h1l12-2h7l9-2l-7,1L1312.32,1032.59z M1604.32,1354.59v-3l3,1h1h1l1,1l3,1l19,4l11,1h1
	l12,4l9,2h4h1l11,3l10,1l26,6l24-3l-23-9l-19-6h-11h-2l-5-2l-10-2l-5-1l-6-3l-6-3l-2,1h-5l-8-1l-4-1l-4-2l-12-3h-4l-6-2h-9l-3-1
	l-5-4l-1-2v-4l-3-7l-4-8v-3l-4-5v-6l-3-5l-2-4l-2-6l-1-7l-3-3v-7v-4l-3-10v-10l-5-5l-1-6v-5l-1-4v-4l-4-8v-4l-1-5v-2l-3-6v-6l-5-4
	v-6v-2l-5-6v-6l-5-8l-3-5l-2-5l-3-4l-2-6l-4-4v-3v-4l-5-6l-2-3l-3-6l-4-4l-3-7v-2l-4-5l-2-8l-3-6l-1-4l-2-1l-3-4l-5-8l-1-5l-6-4v-6
	l-1-4l-3-4l-2-5v-3l-5-10l-1-3v-3l-3-3l-5-8l-1-7l-2-2l-6-10l-1-3l-1-2l-1-8l-2-2l-2-6l-1-5l-1-6l-6-6v-3l-2-3v-4l-4-10v-6l-3-3
	l-1-6l-4-4l-2-5l-9-4l-2-2l-2-3l-6-6l-15-5l-19-6l-8,9l-6,7l-2,4l-4,7v4l-3,5v3l-5,6v2l-1,8l-5,5v3l-1,1l-3,6l-2,4l-4,10l-3,3v4
	l-2,4l-1,5l-2,2l-4,10l1,6l-4,6l-1,7l-3,2l-3,7v3l-1,2l-5,8l2,5l-2,2l-5,9v2l-7,12v5l-5,6l-1,2v5l-4,5l-2,4l1,5l-5,6l-2,2l-2,3
	l-2,10l-2,3l-1,3l-4,8v5l-3,6l-3,5l-1,6l-1,5l-3,4l-2,5l1,5l-4,4l-2,2l-3,6l-4,7l-2,3l-2,4v8l-2,2l-1,7l-4,3l-1,3v6l-5,4l-3,5v5
	l-6,5l-1,1l-2-2h-1l-2-1h-7l-5-2h-6l-15-5h-10l-5,1l-14-4l-8,3h-2l-32,1l10,3l10,7l9,1h5l2,1l12,2l10,1l4,1l5,2l8,1l3,2l12,1h1l4,4
	l2,6l1,2l-6,12v3l-1,7l-3,2l1,5l-2,5l-2,11l-4,3l-1,3v7l-4,6l-2,5l-2,8l-5,10l-5,8l1,5l-3,5l-1,1l-4,12v6l-2,3l-2,7l-3,4l-1,2l-3,6
	l-1,3l-2,4l-3,7v5v5l-2,4v7l-1,2l-4,7l1,2v8l-1,2l-2,5l1,8l-3,3l-2,4l2,7v6l-2,4l2,8l4,2l2,3l3,5l20,13l22-6l9-11l4-11v-9l-1-5l4-3
	l-2-7v-7l2-2l-1-7l4-5v-2v-6v-4l2-3l-1-5l3-5l2-5l2-7l1-6v-6l2-4l1-6l3-3v-2l2-6l2-4l2-6l5-8l1-5l2-5l1-7l4-6v-4l1-1l1-3l2-4l5-7v-4
	l1-7l4-4l1-3l1-9l1-2l1-4l1-3v-5l1-3l2-4v-3v-2l-1-3l1,1v-2l2-2h5h2h8l13,2l5,2l10,2l3,1l7,8l9-2l2,1l16,2h1l3,1h4l4,3h8l3,4l13-2
	l8,3l3,1l8,2l14,2h5l3,1h5l10,4l7,2l12,1h2l5,1l11,2h4l5,3l3,1l23,2l7,2h3l4,3h7l8,3l11,3h3l6,3l4,2l-5,3l2,1h1l4,3l3,3l1,4l4,8l2,7
	v4l3,2l-2,10l4,8l1,4l3,2l1,9l-1,4l3,6l1,2l3,3l-2,13l-1,4l3,5v4l2,2l1,8l1,2l2,6l3,3l2,8l1,4l3,4l2,8v3l1,5l2,3l3,4l1,6l1,7l1,3
	l3,2l4,9l2,2v7l2,6l1,2l1,4l5,6v5l4,4l2,8l1,2l2,7l1,5l2,6l1,5l1,6l4,7l2,6l-2,4l4,6l-1,11v4l1,4l-1,7l2,5v8l1,3v5l1,7l-1,3v3l2,7
	l-1,6l-1,6l1,4l-3,7l-3,8v5l-2,7l-1,6l-2,4l-2,5l-2,4l-2,3v4l-2,11v8l2,6v8l-1,6l1,7l-1,5l1,2l1,4l2,4l1,6l-1,5l6,7v1l-2,6v4l5,6
	l7,15l12,15l13,13l21,9l19-3l20-6l11-8l5-13v-10v-6l-4-4v-4l-5-7l2-3l-3-6v-4l1-10l-1-8v-2l1-9l-2-7l-2-4l-3-7l-2-8l-1-4v-4l-4-6
	l-3-5l1-4v-4l-3-6l1-4l-1-6v-6v-6l-1-10l-2-3l2-5l-3-8l-3-6v-9l-3-5l-3-6l1-3l1-4l-1-5l1-4l-2-6v-5l-1-7l1-2l-2-3l1-7v-4l-10-28v-3
	l-3-3l-1-9l-4-4v-7l-1-5l-2-7l-1-6l-3-5l-2-3v-3l-6-6l-1-3l-1-8l-2-5l-5-6l-1-2l-4-10l-1-5l-3-8l-2-4l-3-5l-1-3l-1-5l1-3l-4-7v-9v-4
	l-3-4v-5l-5-3l-1-6l-2-5v-7v-2l-6-8l2-4l-4-8l-2-4v-2v-6l-2-7l-2-5l-1-2l-4-4l-1-7v-4l-3-5L1604.32,1354.59z M1376.32,936.59v-1l1,2
	v1v1v1l-1,5l4,6v3l1,8v3l3,8l6,7l1,2v5l6,6v4l3,6v5l3,6l1,3l2,3l1,6l2,6l1,3l6,4l1,5l2,3l2,6l2,3l3,6l1,5l3,4l2,8l2,1l4,4v5l4,4v6
	l4,3l2,9l2,4l5,5l2,6v5l3,5l2,5l3,2l8,9l4,8l2,3l5,7l1,2v4l4,3l3,9v4l2,2l2,6l1,5l2,4v5l9,8v4v3l2,6l-1,4l3,11l2,9l4,5l-1,7v3l3,7
	l1,2l-1,4l7,8l1,8l3,5l2,1l-2,1l2,1v1l1,1v1v1l-5-1l-2-1l-3-4h-11l-8-4l-9,2h-1l-4-3h-4l-18-2l-12-3h-4l-6-1l-6-1h-2l-4-2l-10-3
	l-3-1l-7-1l-15-3h-5l-3-1l-6-2h-13l-4-2h-5l-10-6l-6,2l-5-1h-5l-3-2l-10-1l-5-2l-8-2l-3-2l-9-1l-5-2l-5-1l-12-5l-2-1l-7-2l-5-1l-1-1
	l-3-3l3-5l3-11l5-4l1-4l1-6l2-8l2-10l3-4l3-6v-6l5-3l1-3l5-10v-7l3-9v-4v-2l3-5l3-7v-5l2-3l4-6l3-3l1-5v-3l3-5v-8l5-4l-1-4l4-4l1-2
	l4-9l4-7l1-6v-3l1-5l3-5l2-5l2-3l2-6l2-4v-8v-1l4-5l3-7v-3v-8l3-5l1-2l1-7l6-6v-4l5-7v-6v-4l2-5v-5l-2-3l1-2l1-1l2-3l1-1l1-1v-1
	L1376.32,936.59z"/>
</svg>
