<?xml version="1.0" encoding="utf-8"?>
<!-- Generator: Adobe Illustrator 23.0.1, SVG Export Plug-In . SVG Version: 6.00 Build 0)  -->
<svg version="1.1" id="Ebene_1" xmlns="http://www.w3.org/2000/svg" xmlns:xlink="http://www.w3.org/1999/xlink" x="0px" y="0px"
	 viewBox="0 0 2834.65 2834.65" style="enable-background:new 0 0 2834.65 2834.65;" xml:space="preserve">
<path d="M1447.21,1272.97c-18,0-68-15-111-15c-19,0-27-9-25-23c3-22,16-54,23-70c18-41,51-12,79,26
	C1440.21,1227.97,1462.21,1272.97,1447.21,1272.97z M1458.21,1391.97c58,15,83,190,83,244c0,56-88,222,24,312s200,97,267,9
	c79-104,10-196-10-275c-20-80-128-241-73-229c56,12,111,5,129-38c19-45-168-39-181-105c-20-100-82-237-145-313
	c-66-80-160-213-213-175s-222,322-236,359c-14,38-35,42-71,37c-38-5-108-4-62,44s98,24,74,50c-28,30-91,202-45,266
	c38,53,148,76,208,45c51-26,65-223,91-250C1329.21,1340.97,1387.21,1373.97,1458.21,1391.97z"/>
</svg>
