<?xml version="1.0" encoding="utf-8"?>
<!-- Generator: Adobe Illustrator 23.0.1, SVG Export Plug-In . SVG Version: 6.00 Build 0)  -->
<svg version="1.1" id="Ebene_1" xmlns="http://www.w3.org/2000/svg" xmlns:xlink="http://www.w3.org/1999/xlink" x="0px" y="0px"
	 viewBox="0 0 2834.65 2834.65" style="enable-background:new 0 0 2834.65 2834.65;" xml:space="preserve">
<path d="M1427.11,1203.01c-12,0-45,3-75,3c-12,0-17-8-15-20c3-18,10-46,14-60c10-36,34-10,54,22
	C1424.11,1179.01,1437.11,1203.01,1427.11,1203.01z M1455.11,1367.01c28,7,63,142,63,238c0,63-16,283,102,387c123,108,282,69,267-66
	c-15-136-67-201-91-287c-14-53-67-206-51-203c79,16,165-18,179-51c19-42-199-86-229-152c-40-91-40-132-120-232
	c-60-76-178-263-253-212c-66,45-246,329-258,360c-16,39-18,41-54,36c-88-11-126,6-83,47c52,51,103,46,79,71c-37,37-133,199-73,259
	c90,92,188,100,302,49c75-34,41-235,68-263C1333.11,1320.01,1364.11,1345.01,1455.11,1367.01z"/>
</svg>
