<?xml version="1.0" encoding="utf-8"?>
<!-- Generator: Adobe Illustrator 23.0.1, SVG Export Plug-In . SVG Version: 6.00 Build 0)  -->
<svg version="1.1" id="Ebene_1" xmlns="http://www.w3.org/2000/svg" xmlns:xlink="http://www.w3.org/1999/xlink" x="0px" y="0px"
	 viewBox="0 0 2834.65 2834.65" style="enable-background:new 0 0 2834.65 2834.65;" xml:space="preserve">
<path d="M1433.27,1226.29c-14,0-51,3-84,3c-14,0-20-9-18-24c3-22,12-55,17-72c12-42,38-12,59,27
	C1428.27,1198.29,1444.27,1226.29,1433.27,1226.29z M1458.27,1359.29c58,15,83,190,83,244c0,62-26,287,80,385c132,123,222,45,211-64
	c-14-141-55-207-75-286c-20-80-105-230-50-218c56,12,153,5,171-38c19-45-187-73-215-140c-39-92-43-151-111-242
	c-62-83-160-249-213-211s-222,322-236,359c-14,38-35,42-71,37c-38-5-108-4-62,44s98,47,74,73c-28,30-122,199-68,257
	c85,92,158,98,263,48c52-25,33-240,59-267C1329.27,1308.29,1387.27,1341.29,1458.27,1359.29z"/>
</svg>
