<?xml version="1.0" encoding="utf-8"?>
<!-- Generator: Adobe Illustrator 23.0.1, SVG Export Plug-In . SVG Version: 6.00 Build 0)  -->
<svg version="1.1" id="Ebene_1" xmlns="http://www.w3.org/2000/svg" xmlns:xlink="http://www.w3.org/1999/xlink" x="0px" y="0px"
	 viewBox="0 0 2834.65 2834.65" style="enable-background:new 0 0 2834.65 2834.65;" xml:space="preserve">
<path d="M1277.36,1679.82c0-29-1-60-1-89l1-91c0-19,1-38,2-59c27-4,54-5,79-5c45,0,78,9,104,19c49,19,117,51,144,88
	c23,32,39,62,33,100c-7,43-61,82-114,99c-67,22-123,22-237,22l-2-18C1283.36,1722.82,1277.36,1701.82,1277.36,1679.82z
	 M1270.36,1228.82c0-38,2-73,2-106v-42c35,22,38,22,86,43c46,20,84,49,129,84c17,13,30,41,41,81c-13,41-35,74-47,85
	c-20,18-52,33-78,38c-11,2-47,10-86,15l-38,5c2-42,6-87-1-128C1278.36,1303.82,1270.36,1249.82,1270.36,1228.82z M1250.36,1436.82
	l8,4l11,1c-3,19-3,40-3,58c0,31,0,60,0,91v89c0,23,9,44,10,68l1,16c-31,0-65-1-92-4l4,8c30,3,58,4,89,4c1,9,3,20,3,29l9-3
	c0-9,0-17-1-26c130,0,172-3,239-22c57-16,111-64,119-106c8-40-10-73-34-105c-30-41-74-65-146-90c-26-9-68-21-114-21l53-9
	c24-4,54-21,81-40c14-10,38-46,51-88c-9-35-19-69-46-90c-48-37-84-60-128-82c-39-20-53-21-88-47c-16-12-47-31-70-38l11,10
	c19,11,25,15,43,27c0,19,3,36,3,52c0,34-1,68-3,106c-1,19,9,76,9,76c6,40,2,85,0,128L1250.36,1436.82z"/>
</svg>
