<?xml version="1.0" encoding="utf-8"?>
<!-- Generator: Adobe Illustrator 23.0.1, SVG Export Plug-In . SVG Version: 6.00 Build 0)  -->
<svg version="1.1" id="Ebene_1" xmlns="http://www.w3.org/2000/svg" xmlns:xlink="http://www.w3.org/1999/xlink" x="0px" y="0px"
	 viewBox="0 0 2834.6 2834.6" style="enable-background:new 0 0 2834.6 2834.6;" xml:space="preserve">
<path d="M1218.4,1479.6c4.8-37.8,14-87.8,23.9-123l31.1-98.8l65.4-46.3c38-26.5,133.3-88.7,117.1-77.9c40.8-29,84.8-52.5,131.5-69.9
	c6.8-2.5,27.9-7.9,28.8-5.2L1597,1069c-34.5,11.5-66.8,27.6-98,45.7c-5.8,3.4-146.3,98.3-152.2,102.2l-66.2,46.8l-28.3,90.2
	c-13.7,56.4-25.4,86.7-25.4,143.2c5.9,46.2,16,64.2,42.1,90.8c27.7,23.2,53.9,46.3,82.8,72c24,17.8,50.4,33.2,77.1,47.4
	c91,43.7,176.5,68.9,176.7,68.2c-0.9,3.5-20.3-0.6-30.7-3c-52.2-10.9-115.1-40.3-171.9-69.7c-56-29.2-51-33.7-149.6-116.5
	C1219.8,1539.9,1218.4,1528.5,1218.4,1479.6z M1218.9,1485.1l0.6-11l0.7-2.9l0.7-6l0.8-4.9l0.7-4l0.8-4.9l0.8-6l1.8-6l-0.1-2.9
	l0.8-5l0.9-4.9l1-6l0.9-5.9l1-4.9l1-5l1-2.9l1-5.9l1.1-3.9l1.1-6.9l1.1-3.9l1.2-5.9l1.2-3.9l1.2-3.8l1.3-5.8l2.8-9.5l1.5-4.7
	l1.4-5.7l1.5-2.7l1.5-5.7l1.5-5.7l1.5-4.7l1.4-3.7l1.5-5.7l1.5-4.7l1.5-3.8l1.5-4.7l1.5-3.7l1.4-5.7l1.5-3.7l1.5-5.7l1.5-4.7
	l1.5-4.7l1.4-5.7l0.5-2.7l5.6-8.6l3.1-1.9l5.1-3.9l5.1-2.9l3-1.9l4.1-2.9l4.1-2.9l5.1-3.8l3.1-1.9l4.1-2.9l8.2-5.8l3-2.9l4.1-2.9
	l5.1-2.9l9.2-5.7l4.1-3.9l6.3-4.7l6.2-3.8l3.2-1.8l3.2-2.8l6.2-3.8l4.2-2.9l2.2-0.8l5.2-3.8l3.3-2.8l4.3-2.9l5.2-3.8l5.3-1.9
	l4.4-3.8l2.3-1.9l5.4-3.9l3.4-1.9l5.5-3l3.5-2.9l4.5-2l6.7-4.1l3.7-3l5.7-4.1l2.6-2l6.1-2.7l1.1-1.3l2.3-1.7l4.1-2.8l5.1-3.8
	l2.1-1.8l4.2-2.7l4.2-2.7l4.2-2.6l5.2-2.7l4.3-3.5l5.3-2.6l4.3-2.5l3.3-2.5l4.3-2.4l3.4-1.4l6.4-3.4l3.4-1.3l4.4-3.3l5.4-2.2
	l2.5-1.2l11-5.3l4.5-1.1l2.5-2l6.6-3l2.6-1l4.6-1.9l4.6-1.9l4.6-1.8l6.6-1.8l7.4-4.3l4.8-1.4l4.9-0.2l4.9-1l9.7-1.7l-4.6,2.7
	l-8.2,4.5l-2.8,1.3l-7.5,3.2l-3.6,1.6l-4.6,0.7l-6.6,2.8l-3.6,1.8l-5.6,1.8l-2.5,2l-6.5,2.9l-2.5,1l-5.5,2.1l-4.5,2l-5.4,3.2
	l-4.4,2.1l-2.4,1.2l-4.4,2.3l-6.4,3.3l-2.3,1.3l-4.3,2.3l-5.4,2.4l-5.3,3.4l-4.2,1.4l-6.5,5.2l-6.1,2.7l-3.1,2.8l-5.1,2.7l-4.2,2.8
	l-3.1,2.7l-8.2,5.6l-3.1,1.7l-6.1,3.8l-2.1,1.7l-10.2,6.6l-3.2,2.7l-3.1,1.8l-4.1,2.8l-5.1,3.7l-4.1,2.8l-5.1,2.8l-3.2,2.8l-3.1,2.7
	l-6.1,3.8l-2.2,0.8l-8.3,6.6l-5.2,2.9l-3.2,1.8l-6.2,3.8l-2.3,1.9l-6.3,3.9l-8.7,5.9l-3.3,2.9l-4.4,1.9l-3.2,2.9l-5.8,3.5l-6.6,5.6
	l-4.2,1.9l-4.1,4l-3.1,1.9l-3.2,1.9l-6.1,4l-4.2,2.9l-3.1,2.9l-5.1,2.9l-4.2,3l-4.1,3.9l-4.1,2.9l-4.2,2.9l-4.1,1.9l-7,4.5l-1.8,6.1
	l-2.5,6.8l-1.5,2.7l-0.5,5.8l-1.4,4.7l-2.5,3.8l-1.5,6.7l-1.5,4.8l-0.5,3.7l-1.5,4.8l-1.5,3.7l-1.5,5.8l-2.5,4.7l-1.5,5.8l-2.9,9.5
	l-0.5,3.7l-1.5,3.8l-2.7,9.6l-2.2,7l-1.3,4.9l-1.2,2.9l-0.3,5.9l-1.3,4.9l-1.2,3.9l-1.3,6.9l-1.3,3.8l-1.2,4.9l-2.2,5.8l-1.2,3.9
	l-1.2,3.9l-1.1,6.8l-1,3.9v3.9l-0.9,5.9l-1.9,5.9l0.2,4l-0.7,5.9l-0.6,3l-0.6,7l-0.5,3l-1.3,7l-0.4,4.1l-0.2,4l0.8,7.1l-0.1,3
	l0.7,10l-0.3,7l1.8,3.9l-0.1,5.9l2,3.8l0.1,5.8l1.3,2.7l1.4,4.7l2.6,5.6l0.8,4.5l2.9,5.4l2.2,4.3l2.3,3.2l1.6,4l4.7,5l1.9,2.9l2,2.8
	l4.2,4.7l2.2,4.6l3.4,3.6l7.2,4.7l4.8,4.2l3.8,4.2l2.8,3.3l4.8,2.2l4.8,4.2l1.8,1.3l3.7,4.2l8.6,6.6l3.7,3.3l3.8,3.2l2.7,2.3
	l3.8,3.3l3.7,4.3l3.8,2.3l4.7,4.3l2.7,2.3l3.8,3.3l4.7,4.4l3.8,3.3l8.8,7.3l2.1,1.9l4.1,1.9l5.1,3.8l3.2,2.8l6.3,3.7l2.2,0.7
	l4.3,2.7l5.3,3.6l4.3,2.6l3.3,1.6l6.4,4.5l4.3,1.5l2.4,2.5l4.4,1.4l3.4,2.4l5.5,3.4l12.8,5.8l3.6,2.2l7.8,4.2l2.7,0.1l5.7,2.2
	l4.7,3.1l9.5,4.1l4.8,3.1l3.8,1l5.8,3l1.8,1l4.8,3l8.9,1.9l3.8,2l6.9,2.9l3.8,0.9l5.9,0.9l4.9,1.9l3.9,1.8l5,1.9l4.9,1.8l5.9,1.8
	l4,1.8l5,1.8l4,1.7l5.9,2.7l4,0.7l7,1.7l2.9,2.6l5.9,0.6l5.7,2.5l4.6,0.5l3.3,1.3l2.9,0.9l4.9,1l-3.5,0.6l-5.2-0.5l-7.2-0.7l-5.2-2
	h-3.1l-12.1-2.3l-2.8-1.1l-5.9-1.2l-4.8-1.3l-3.8-1.4l-5.8-2.4l-5.8-1.5l-3.8-0.6l-5.7-2.6l-4.8-1.6l-3.7-1.7l-4.7-0.8l-4.7-1.7
	l-3.7-1.9l-4.7-1.8l-6.7-2.9l-3.6-1.9l-5.6-2l-2.7-1l-6.6-3l-2.6-1l-5.6-2.1l-5.6-3l-2.6-1.1l-4.5-2.2l-5.6-2.1l-3.5-2.2l-4.6-2.2
	l-10-5.4l-4.5-1.2l-4.6-3.3l-5.5-3.2l-4.5-2.3l-4.4-1.3l-2.5-1.3l-9.9-5.6l-3.4-2.4l-5.4-2.3l-5.3-2.4l-4.2-2.5l-4.2-2.4l-4.1-2.6
	l-3-1.6l-7-5.5l-2.9-2.8l-4.9-3l-1.9-2.2l-6.9-5.2l-3.9-3.2l-1.9-2.4l-4.9-3.4l-2.9-2.4l-5.2-5l-3.6-2.3l-4.8-5.8l-5.7-4.8l-5.8-5.3
	l-3.8-2.3l-1.8-1.3l-3.8-4.3l-5.8-4.3l-2.8-2.3l-3.8-3.3l-3.8-4.2l-3.8-2.3l-2.8-3.2l-4.8-3.3l-4.8-4.2l-3.8-3.3l-2.9-3.2l-6.8-6.4
	l-3-4.2l-2.9-3.3l-1.9-3.2l-3.8-6.3l-2.7-3.3l-2.6-5.4l-1.5-3.3l-2.2-5.5l-2.1-2.4l-2.8-6.6l-1.6-4.6l-2.3-9.4l-0.8-4.9l-0.7-2.9
	l-0.4-4.9l-0.3-6.1l-0.2-6l-0.1-3l-0.1-6.1V1485.1z"/>
</svg>
