<?xml version="1.0" encoding="utf-8"?>
<!-- Generator: Adobe Illustrator 23.0.1, SVG Export Plug-In . SVG Version: 6.00 Build 0)  -->
<svg version="1.1" id="Ebene_1" xmlns="http://www.w3.org/2000/svg" xmlns:xlink="http://www.w3.org/1999/xlink" x="0px" y="0px"
	 viewBox="0 0 2834.65 2834.65" style="enable-background:new 0 0 2834.65 2834.65;" xml:space="preserve">
<style type="text/css">
	.st0{fill:#020203;}
</style>
<path class="st0" d="M1556.32,1228.02c-3,4-9,3-22,5c-39,6-126,18-147,22c-19,4-36,1-56,1c-18,0-66,3-72,3c-7,0-12,2-12,8
	c0,3-2,91-3,106c-4,60-6,66,3,153c3,28,4,56,7,83c2,20,3,25,5,34c0,4,3,5,11,4c19-2,41-3,60-5c31-3,59-4,89-6c28-2,57-2,85-4
	c23-2,46-4,69-7c11,0,23-1,35-2c-2,6-6,7-11,7c-21,3-91,10-98,10c-45,0-89,3-134,7l-93,8c-8,1-14,2-12,10c1,5,1,62-1,96
	c-1,14-2,35,1,47l-12,24c-3-5,2-14,4-27c-1-32,0-58,0-91c0-14,1-43-1-57c-40,4-47,10-52,8s-1-4,1-5c10-5,38-7,44-9c5-2,7-5,7-9
	c-3-15-7-45-7-55c0-28-5-57-8-84c-3-31-6-63-4-95c1-19,5-61,6-73c2-19,1-39,1-59c0-13-1-16-19-13c-6,1-12,4-18,0c0-6,15-7,26-8
	c8-3,10-4,10-10c0-25-4-49-6-74c-1-16-4-32-7-49c-1-5-2-42-2-44c0-6-3-9-11-8c-10,3-36,9-43,6l6-4c10-3,21-7,30-8c23-3,45-8,65-13
	c34-8,69-14,103-22c25-6,52-9,78-11c24-2,47-2,71-1c42,2,85-2,129-13c4-1,10-3,14,1c-2,8-51,10-83,16c-21,4-41,4-62,4
	c-33,0-65,0-98,4c-39,5-115,22-146,29c-13,3-24,5-35,9c-6,2-10,6-10,12c0,9,0,20,1,31c1,15,5,42,6,50c2,14,8,62,8,85c1,5,4,6,10,6
	c8,0,51-2,63-2c32,0,54,2,119-9c23-4,86-14,107-14C1547.32,1226.02,1554.32,1227.02,1556.32,1228.02z"/>
</svg>
