<?xml version="1.0" encoding="utf-8"?>
<!-- Generator: Adobe Illustrator 23.0.1, SVG Export Plug-In . SVG Version: 6.00 Build 0)  -->
<svg version="1.1" id="Ebene_1" xmlns="http://www.w3.org/2000/svg" xmlns:xlink="http://www.w3.org/1999/xlink" x="0px" y="0px"
	 viewBox="0 0 2834.65 2834.65" style="enable-background:new 0 0 2834.65 2834.65;" xml:space="preserve">
<style type="text/css">
	.st0{fill:#020203;}
</style>
<path class="st0" d="M1659.14,1047.32c-9,6-22,10-35,11c-17,1-35,2-51,2h-38c-34,0-68,3-103,5c-15,1-31,3-46,5c-38,5-76,6-114,6
	c-27,0-54-2-81-2c-4,0-10,1-14,2c-1,1-2,3-2,4s2,3,3,3c3,0,8-1,12-1c7,0,17,0,24,1c8,1,14,2,15,12l3,34c1,16,3,33,3,49v68
	c-2,20-3,40-1,61c1,13,1,17-11,17c-5,0-4,8,2,8c7,0,12,2,12,10c0,27,2,54,3,81c1,19,2,39,4,58c4,38,6,77-4,115c-3,11-3,22-5,32
	l-13,65c-2,11-7,23-7,35c0,18,6,36,1,54c0,2-1,5,0,5c3,0,5-1,5-2c2-6,3-12,3-18c-3-23-3-46,5-69c3-9,3-18,6-27c4-25,7-50,12-75
	c8-39,10-79,5-118l-3-24l-5-92v-19c0-9,1-13,15-13c26,0,53-2,81-2c11,0,25,1,37,0c30-2,60-2,89,2c6,0,13,0,19,0c3,0,10-2,12-5
	c-3-1-10-1-13-1l-43-3c-16-1-33-1-48-1c-44,0-86,0-129,2c-19,1-21,0-23-17s0-34,1-51c2-26,1-51,0-77c-1-27-3-53-5-80
	c-1-14,4-15,19-14c37,2,73,0,111-3c22-2,42-6,64-7l91-5c15-1,31-1,47-1h32c15,0,30-2,44-4
	C1660.14,1061.32,1660.14,1063.32,1659.14,1047.32z"/>
</svg>
