<?xml version="1.0" encoding="utf-8"?>
<!-- Generator: Adobe Illustrator 23.0.1, SVG Export Plug-In . SVG Version: 6.00 Build 0)  -->
<svg version="1.1" id="Ebene_1" xmlns="http://www.w3.org/2000/svg" xmlns:xlink="http://www.w3.org/1999/xlink" x="0px" y="0px"
	 viewBox="0 0 2834.6 2834.6" style="enable-background:new 0 0 2834.6 2834.6;" xml:space="preserve">
<path d="M1113,1368.1c0,54-4.4,108.5,9.2,155.6c25.1,87.8,51.8,124.5,131.4,182.2c63.9,46.3,130.3,68.2,209,68.2
	c93.3,0.1,136.4-134.4,165-224.2c-2.9,72-17.3,221.8-16.6,231.7l7.7-11.7c-0.3-3.8,1.6-28.2,4.2-61c4.5-55.5,15.5-134.1,15.6-173.2
	c25.1,2.9,55.6,6.1,83.8,10l-13.8-9c-28.5-3.9-49.5-7.1-74.8-10l-5.6-0.6c-63-7.1-121.7-10.7-200.2-15.7c-6.3-0.4-15.9-2.9-26.7-3.3
	c-18.5-0.7-48-3.8-59.6-2.6l10,3.5c17.4,1.6,57.8,9.2,75.8,10.4c77.7,5,132,9.5,194.4,16.4c-29.4,90-63.3,230.4-159.2,230.3
	c-76.9,0-142.2-21.5-204.6-66.8c-78.1-56.6-103-91.1-127.5-176.9c-10.5-36.6-10.8-78-10.2-121.1c2.5-132.5,19-228.4,119.9-289.9
	c38.5-23.5,82.2-49.3,126.1-49.3c35.5,0,71.2,10.8,104.5,20.5c19.2,5.7,55.2,15.7,80.4,22l0.2-3.3c-21.4-8.4-58-21.4-78.4-27.4
	c-33.4-9.7-70.1-19.8-106.7-19.8c-45.9,0-91.6,24.5-130.1,48.4C1136.2,1163.7,1113,1249.8,1113,1368.1z M1113.5,1362.6v12.1v5
	l-0.1,5.1l-0.1,5v4.1l-0.1,6l-0.1,3.1l-0.1,7.1v3l-0.1,7.1v4l-0.1,5.1v4l0.1,7.1v4l0.1,4.1l0.2,5l0.1,6.1l0.3,4l0.3,5l1.4,7.1
	l-0.6,5l0.5,4l1.6,5l0.7,5l-0.3,6l1.9,3.9v5l1.1,3.9l1.2,4.9l2.7,9.7l1.4,4.8l2.5,6.9l1.5,4.8l1.6,2.8l1.6,6.8l0.6,3.7l1.8,4.7
	l1.7,3.7l1.8,5.7l1.9,3.6l3,5.6l2,5.6l3.1,4.5l1.2,3.5l3.2,5.4l0.4,2.3l3.4,6.4l2.6,4.2l1.6,2.2l2.7,4.2l3.8,5l3.9,5.1l2,2.9
	l2.1,2.9l3.2,3.8l3.2,3.8l3.3,3.7l5.5,5.7l1.4,1.6l4.6,4.5l3.6,3.5l3.7,3.4l2.7,2.4l3.8,3.4l3.8,3.3l3.9,3.2l3.9,3.2l3.9,3.2
	l2.9,2.1l6,4.1l4,3.1l4,3l4.1,4l5,2l6.2,5.9l4,2.9l4.2,2.8l4.1,2.7l3.2,1.7l3.2,2.7l5.3,2.6l5.3,3.5l4.3,2.5l2.3,1.4l6.4,3.4
	l2.4,1.3l6.4,3.2l2.5,1.2l5.5,1.1l4.5,3l3.6,3l4.6,0.9l5.6,2.8l4.6,0.7l4.7,2.7l5.7,1.6l2.7,0.6l5.7,2.5l3.8,0.4l6.8,2.3l4.8,1.2
	l2.8,1.2l5.9,1.1l3.8,1.1l6.9,0.9l2.9-0.1l5.9,0.8l5.9,1.8l3.9,0.7l6,0.6l3.9,0.5l6,0.5l3.9,0.4l5,0.3l5,0.3l3.9,0.2l7,0.2l4,0.1
	l10-0.1l5-0.4l5.9-0.7l2.9-0.9l4.8-1.2l6.8-1.4l2.7-1.8l6.6-1.9l4.4-2.2l3.4-2.4l5.3-3.6l2.1-0.8l6-4l1.9-3.2l5.8-3.2l2.6-3.5
	l4.6-3.5l3.4-3.7l1.3-3.8l4.3-3.8l3.1-4l3-4l3-3l2.8-4.2l1.8-3.2l2.7-4.3l2.6-4.3l3.5-5.3l1.5-3.4l2.4-4.4l2.4-6.5l2.3-2.4l3.2-6.6
	l1.2-2.5l3.1-5.6l2.1-4.6l1.1-5.6l2-2.6l1.9-6.6l3-3.7l0.8-4.7l2.9-4.7l0.8-4.7l1.8-3.7l1.8-5.7l2.7-5.7l1.7-3.8l0.7-3.7l2.6-4.8
	l1.7-4.8l1.6-6.7l0.6-2.8l2.6-6.8l0.5-4.8l1.6-2.8l1.5-6.8l1.5-2.7l1.6-6.8l3.3-5.1l0.5,11.4l-1,5l-0.3,5.1l-0.3,4.1l-0.3,5l0.7,5.1
	l-0.3,7.1l-0.4,3l-0.3,6.1l-0.3,5.1l-0.4,5.1l-1.4,4.1l-0.3,7.1l-0.4,4.1l0.6,4.1l-0.4,5.1l-1.4,5.1l-0.4,5.1l-0.4,5.1l-0.4,7.1
	l-0.4,5.2l-0.4,4.1l-0.4,4.2l-0.4,7.1l-0.4,5.2l-0.4,4.2l-0.5,5.1l-0.4,6.2l-0.4,4.2l-0.4,6.2l-0.5,3.3l-0.4,5.2l-0.4,6.3l-0.4,5.2
	l-0.5,4.3l-0.4,6.3l-0.4,6.3l-0.4,5.2l-0.4,5.2l-0.4,5.2l-0.4,4.1l-0.3,4.8l-0.3,3.9l-0.2,5.4l1.8-3.2l5-7.9v-4.1l0.3-5.1l0.3-4.1
	l0.4-6l0.3-4.1l0.4-6.1l0.4-6.1l0.4-3.1l0.4-6.1l0.4-6l-0.6-3.1l0.8-10l1.4-7l-0.5-4.9l1.5-4l0.5-5l0.4-5.9l0.5-3l0.6-5.9l0.5-5
	l0.5-6l0.5-4.9l0.6-5l0.5-3l0.6-6l-0.5-4.9l1.5-5l-0.4-6l1.5-3l0.5-5.9l-0.5-6l0.6-3l1.5-6l0.5-5l-0.6-4l0.5-6.9l1.5-4l-0.6-5
	l0.4-4.9l1.4-6l-0.7-2.9l0.3-5l1.3-5.9l-0.5-4.1l0.7-11l6.1,0.4l2.9-0.5l5.9,0.6l6,1.5l4.9,0.6l3.9,0.5l4,0.6l5.9,0.6l3.9,0.5l7,0.6
	l3.9,0.6l3.9,0.6l7,0.6l3.9,0.6l3.9,0.7l9.5,0.6l-2.2-1.3l-5.6-3l-10.6-2.7l-5-0.7l-4-0.7l-6-1.7l-4,0.3l-5-0.7l-5-0.7l-5-1.7
	l-5.9-0.6l-4-0.7l-4-0.7l-9.9-1.2l-5-0.6l-8.8,0.1l-6.8-1.9l-4.9,0.5l-5-1.5l-7-0.5l-5-0.5l-3.9,0.5l-4-1.5l-5,0.5l-6-0.5l-4-1.4
	l-6.9,0.5l-5-0.4l-4-0.4l-6-1.4l-5-0.4l-4-0.4l-6-0.4l-4,0.6l-4-0.4l-5-1.3l-5,0.6l-6-1.4l-6-0.3l-3-0.4l-6-0.3l-4.1-0.3l-7-0.4
	l-3-0.3l-7,0.7l-3.1-1.4l-6-0.3l-6-0.3l-4.1-0.4l-4,0.7l-12.1-1.6l-3-0.3l-7,0.6l-5.1-0.3l-8.3-1.9l-7.3-0.9l-3.3-0.8l-5.4-0.6
	l-10.4,0.4l-4.9-1.3l-5-0.3l-6-0.4l-5-0.3l-4,0.6l-6-1.3l-6.1-0.3l-5-0.2l-5-0.2l-4.8-0.1l2.2,1.1l10,2.3l5.1,0.7l4,0.7l6.1,0.8
	l4,0.7l15.2,2.4l4.1,0.7l5.1,0.8l7,0.7l3.1,0.8l6.1,0.6l5.1,0.6l10,0.7l6,0.4l4,0.3l4.1,0.3l5,0.4l12.1,0.7l4,0.3l4-0.6l5.1,1.3
	l6,0.4l6,0.3l4,0.4l6,0.4l3,0.4l7,0.4l3,0.4l9.9,0.8l7-0.6l4,1.4l5.9-0.6l4,1.4l5.9,0.5l4,0.4l5.9,0.5l5,0.4l2.9,0.5l6,0.5l5.9,0.4
	l4,0.5l4.9,0.5l5,0.5l5.9,0.5l3,0.6l5.9,0.5l4,0.5l12.1,1.1l-1.7,5.7l-1.5,5.7l-1.6,2.8l-1.5,5.7l-1.5,5.8l-1.4,2.7l-1.5,6.8l-3,9.5
	l-1.6,3.7l-1.5,3.8l-1.5,5.7l-1.6,5.8l-1.6,2.7l-2.5,6.8l-0.7,2.7l-1.6,4.7l-1.7,6.7l-1.6,4.8l-1.8,4.6l-1.7,3.7l-1.8,3.7l-1.8,5.7
	l-1.9,4.6l-1.9,3.6l-2,4.7l-2,4.5l-2,5.6l-2.1,5.5l-2.2,4.6l-2.2,3.4l-2.3,5.5l-2.4,2.4l-2.4,5.4l-2.5,3.3l-2.6,4.3l-2.7,4.2
	l-2.7,4.1l-2.9,5.1l-3,4l-3,3l-3.2,4.8l-3.3,4.7l-3.4,2.6l-4.5,4.5l-2.6,2.4l-4.8,4.2l-3.9,2l-4,3.8l-4.2,1.7l-3.3,3.4l-5.4,1.2
	l-2.5,1l-6.6,2.7l-3.7,1.4l-6.8,1.2l-2.9,0.9l-4.9,0.7l-4.9,0.4l-12,0.1l-9,0.7l-6-0.2l-4.9-0.3l-3-0.3l-6-0.5l-4.9-1.4l-5-0.6
	l-4.9-0.6l-3.9-0.7l-6,0.2l-3.9-0.8l-4.9-1.9l-4.8-1l-6.9-1.1l-3.8-1.1l-3.8-0.2l-9.6-3.7l-6.8-2.4l-4.7-1.5l-2.7-0.6l-5.7-1.7
	l-4.7-1.7l-3.6-1.8l-4.6-1.9l-4.6-0.9l-6.5-3l-4.5-1.1l-3.5-2.2l-3.5-2.2l-6.4-3.3l-4.4-2.3l-3.4-2.4l-4.3-2.5l-4.3-2.5l-3.2-1.6
	l-4.3-2.7l-4.2-2.7l-4.1-3.7l-4.1-2.8l-5.1-2.9l-9.2-5.9l-2.1-3l-4-3l-4-2l-5-3.1l-4-3.1l-5-3.1l-2.9-4.2l-4.8-4.2l-2.9-2.2
	l-4.8-3.3l-1.7-2.3l-4.7-4.4l-4.6-4.4l-2.5-2.4l-4.5-4.5l-2.4-1.6l-3.4-4.6l-3.2-3.7l-4.2-3.7l-3.1-4.9l-2-1.8l-3.9-4l-1.9-5
	l-2.7-4.1l-1.6-3.1l-4.5-5.2l-2.5-5.3l-0.4-2.3l-3.2-5.4l-2.2-4.4l-2.1-3.5l-2-4.5l-3-6.6l-0.8-2.6l-1.9-4.6l-1.7-4.7l-1.7-4.7
	l-2.6-5.7l-1.6-5.8l-1.5-4.7l-1.5-2.8l-1.5-5.8l-1.4-3.8l-1.7-9.7l-1.2-5.9l-2.1-4.9l-1-5l-0.9-5l-0.8-6l0.3-5l-1.6-4.1l0.4-5
	l-1.4-6.1l0.6-4.1l-0.4-5l-0.3-6.1l-0.2-4.1l-0.2-6.1l-0.1-3.1l-0.1-6v-5.1l-1.1-4.1v-5.1l1-6.1l0.1-5.1v-6.1l-0.8-8.2l1.1-7
	l0.2-4.1l-0.9-4l0.2-7.1l0.2-5l0.2-5.1l0.2-3l0.3-7.1l0.3-4l0.3-4l0.3-5.1l0.4-7l1.4-5l0.5-3l0.5-7l0.5-5l0.6-4l-0.4-4l1.6-7l-0.2-3
	l1.7-5.9l-0.2-5l0.9-3.9l1.9-5.9l1-4.9l1-5.9l1.1-4.8l1.2-3.9l0.3-4.8l1.3-3.8l1.4-4.8l2.5-5.7l0.5-4.8l1.7-3.6l1.7-6.7l2.8-4.6
	l1-4.6l2-2.5l2.1-4.5l1.1-6.4l3.3-3.4l2.4-4.4l2.5-5.3l2.6-2.2l2.7-6.1l3.7-4.2l1.9-3l3-4l3.1-3.9l3.1-3.8l3.3-3.7l3.4-4.7l3.4-3.6
	l2.5-1.5l5.6-5.5l2.7-3.3l4.8-3.3l2.8-2.2l3.9-3.1l5-4.1l3.1-2.9l4.1-1.9l5.1-3.8l5.2-3.7l8.6-5.3l2.4-1.7l4.3-2.6l5.4-2.6l5.4-3.6
	l3.4-1.5l4.4-2.5l5.5-3.4l3.4-1.5l4.5-2.3l4.6-2.3l3.6-1.2l6.6-3.2l4.6-3.1l4.7-1l3.7-1.8l5.8-2.8l3.8-0.7l4.8-1.5l3.9-1.4l5.9-1.3
	l4.9-1.1l5-0.9l5-1.7l5.1,0.4l4-0.3h12.2l5.1,0.2l4-0.7l5.1,1.5l6.1,0.6l3,0.7l7,0.8l5.1,0.8l5,1l4.9,1l3,1.1l7,0.2l4.9,1.2l4.9,1.3
	l3,2.3l5.9,1.4l3.9,1.3l6.9,1.4l4.8,1.5l3.9,0.4l9.5,2.8l4.7,2.3l5.7,1.4l4.7,0.3l2.8,1.3l4.7,1.4l4.7,1.3l4.8,1.3l4.7,1.3l4.7,1.3
	l4.8,1.3l11.4,3.5l3.9,1.3l5.7,1.2l4.8,0.2l3.3,1.3l-2.9-3.2l-4.6-1.7l-6.5-2.7l-4.6-0.7l-2.6-1.7l-6.6-1.7l-4.6-1.6l-2.7-1.7
	l-5.1-1l-5.1-1.2l-5.7-1.6l-3.6-2.6l-5.7-0.6l-2.7-1.5l-4.6-2.5l-5.6-1.4l-10.3-1.8l-3.8-1.3l-4.8-2.4l-4.7-0.3l-3.8-2.3l-6.8-1.3
	l-3.8-0.2l-4.8-1.2l-4.8-1.1l-5.8-2.1l-4.9-1l-4.8-1l-2.9,0.1l-5.9-1.9l-4.9-0.7l-3.9-0.7l-5.9-0.6l-3.9-0.5l-7-0.4l-3.9-0.3
	l-3.9-0.1l-12,1l-3-0.7l-6,0.4l-10.9,1.5l-3,0.9l-6.9,1.1l-3.8,2.2l-3.9,0.4l-5.8,1.5l-3.7,2.6l-6.8,1.7l-3.7,1.8l-5.6,1.9l-4.6,1.9
	l-4.6,2.1l-3.6,2.1l-3.5,2.2l-5.5,1.3l-4.4,3.3l-4.5,2.3l-5.4,2.5l-3.4,2.4l-4.3,2.5l-4.3,2.6l-8.6,4.2l-9.6,6.3l-2.2,2.7l-5.1,1.9
	l-4.1,2.8l-3.1,3l-5,4l-4,3.1l-3.9,3.1l-1.8,1.3l-3.7,3.3l-4.7,4.3l-3.7,3.5l-1.5,2.5l-5.5,5.5l-3.4,2.7l-3.3,4.7l-3.2,2.8l-4.2,4.8
	l-1,1.9l-4,6l-2.8,3.1l-3.8,5.1l-0.7,3.2l-3.6,4.2l-2.5,4.3l-1.3,4.3l-2.3,3.4l-3.2,6.5l-1.1,4.5l-3,4.5l-0.9,2.6l-2.9,5.6l-1.7,3.7
	l-1.6,4.7l-0.6,4.7l-2.4,4.8l-1.4,6.8l-1.3,2.8l-1.2,5.8l-1.1,3.9l-1.1,6.9l-1,4.9l-0.9,3.9l-0.8,3.9l-0.8,5.9l-0.7,5l-0.7,5.9
	l-0.6,4l-0.5,6l0.5,3l-1.4,5l-0.4,5l-0.4,5l-0.3,5l-1.2,5l0.8,5l-0.2,7l-0.2,5l-0.1,5v5.1L1113.5,1362.6z"/>
</svg>
