<?xml version="1.0" encoding="utf-8"?>
<!-- Generator: Adobe Illustrator 23.0.1, SVG Export Plug-In . SVG Version: 6.00 Build 0)  -->
<svg version="1.1" id="Ebene_1" xmlns="http://www.w3.org/2000/svg" xmlns:xlink="http://www.w3.org/1999/xlink" x="0px" y="0px"
	 viewBox="0 0 2834.65 2834.65" style="enable-background:new 0 0 2834.65 2834.65;" xml:space="preserve">
<style type="text/css">
	.st0{fill:#020203;}
</style>
<path class="st0" d="M1179.82,995.82c3,8,6,19,6,28c0,44,2,92,2,136v168c0,24,2,30,19,32c46,6,91,14,139,19c28,3,57,3,84,5
	c26,2,52,2,76,1c22-1,24-2,24-27c0-15-1-32-1-47c0-27,1-55,1-82v-29c0-48,2-97,2-146c0-5-2-8,0-13c1-3,2-6,3-6c2,1,3,3,4,6
	c2,6,1,11,1,17c0,25-2,51-2,79c0,22,0,42,0,63c0,18-1,33-1,50c0,38,1,74,1,112c0,21,1,24,13,25c55,5,83,3,115,8c-32,0-48,2-103,0
	c-26-1-29,3-29,42c0,30-2,56-2,87c0,11,0,22,0,36l1,256c0,4-1,9-1,15c0,2-1,5-4,8c-3-4-4-7-4-10v-14c0-65,0-282,0-347v-57
	c0-13-4-18-19-18c-13,0-93-2-93-2c-12,0-24-1-37-2c-17-1-32-1-49-3c-33-4-68-10-100-16c-37-7-39-3-40,39c-1,48-8,195-8,244
	c0,9-1,18-1,27c0,1-3,3-3,3c-2,0-5-2-5-4v-19c0-69,8-237,10-306c2-66.99,1.07-131.61-1-201c-1.41-47.02,0-94,0-141
	C1177.82,1006.82,1177.82,1000.82,1179.82,995.82z"/>
</svg>
