<?xml version="1.0" encoding="utf-8"?>
<!-- Generator: Adobe Illustrator 23.0.1, SVG Export Plug-In . SVG Version: 6.00 Build 0)  -->
<svg version="1.1" id="Ebene_1" xmlns="http://www.w3.org/2000/svg" xmlns:xlink="http://www.w3.org/1999/xlink" x="0px" y="0px"
	 viewBox="0 0 2834.6 2834.6" style="enable-background:new 0 0 2834.6 2834.6;" xml:space="preserve">
<path d="M1144.9,1585c10.8-6.9,22.2,16,28.2,24c0.6,0.8,39.5,56.4,78.1,86c10.8,8.3,85,41,143,50c14.7-0.4,52.9,2.2,75.8-3
	c94.5-21.5,111.9-51.2,136.2-157c10.5-45.7,19.3-100.9,22-142c3.2-48,8-95,11-143c2.8-45.2-8.4-116.6-14-189c-1-13-7-17-19-16
	c-58.1,4.8-213.1,3-239,3c-17.8,0.6-84.5-1-119-1c-3,0-6-1-9-3c3-3,5-5,8-5c3.8,0,121,0.8,149,0c23.9,2,178.5,0.7,208-3
	c0.7-0.1,72.9-3.8,73.4-4.3c5-0.8,12.1,0,12.1,3c0,5-5.7,5.1-11.8,5.2c-12,0.2-25.2,2-46,4.1c1.5,12.3,1.8,21,3.3,41
	c4.3,56.9,16,113,12,170c-3.9,56.1-10,111-13,167c-2.3,43-15,84-23,126c-14,73.7-36.2,115.6-91,137c-57.5,22.5-108.6,17.7-125,18
	c-39.3-1.4-125.3-31.8-152-54C1211,1676.5,1196.3,1648.4,1144.9,1585z M1146.8,1586.1l2.1-1.8h2.1l3.4,2.3l3.5,2.3l3.2,4.8l1.1,3
	l4,4.1l6.2,7.7l2,4.7l4.2,3.9l4.1,4.8l1.2,1.7l2.6,3.7l2.5,5.6l2.3,1.7l4.1,6.7l1.3,1.6l5.3,3.8l2.2,4.6l2.3,2.5l3.3,4.7l5.4,2.7
	l3.3,5.5l5.5,4.1l2.5,3.4l1.7,3.3l2.6,1.3l2.7,3.2l4.7,4.2l3.8,2.2l4.8,5.1l7.1,4.7l4.5,2.4l6.5,3.3l3.6,2.2l4.6,2.1l3.6,2.1l5.7,2
	l3.6,2l5.7,0.9l6.2,3.5l3.6,1.3l6.3,2.3l4.4,1.6l3.6,1.3l5.4,1.9l2.6,1l8.3,3.4l4.7,1.2l2.7,0.7l4.7,1.1l4.7,1.2l4.8,1.2l5.7,1.4
	l3.8,1l4.8,1.2l5.7,1.4l5.8,1.4l2.9,0.8l6.6,1.9l15.7,0.7h4.1h6.1h3h7.1h3.1h5.1h5h5.1l6.1,0.5l5.1-1.5l6-0.5l4-0.7l11-2.2l2.9-1.2
	l7-1.2l3.9-2.4l5.9-1.3l2.9-0.5l6.8-1.6l3.8-1.6l5.7-2.7l3.6-0.9l4.6-3l5.6-1.1l2.4-2.2l4.3-1.4l5.2-4.6l4.1-2.7l4-3l4.8-4.1
	l2.6-2.2l3.5-2.5l5.3-4.7l2.1-2.8l2-3.9l2.8-2.2l3.6-8.2l1.5-2.4l3.3-4.5l2.1-4.5l3.1-6.6l0.9-2.7l1.9-4.8l3.7-6.8l0.6-4.8l2.6-4.8
	l1.5-4.9l1.4-4.9l1.7-5.8l0.6-2.9l1.3-5.7l1.2-5.8l0.6-2.9l1-4.8l1.5-6.7l0.8-3.8l1.6-9.5l1.6-5.9l1-4.7l0.6-2.8l1-4.8l1.4-6.7
	l1-4.8l0.4-3.4l1.3-6.9l0.9-4.8l0.7-3.8l1-5.8l0.5-2.9l1-5.8l0.7-3.9l1.2-6.8l0.1-3.4l2.2-5.9l0.5-4.9l0.4-3.9l0.6-5.9l0.7-5.9
	l0.3-2.9l0.7-6.9l0.4-3.9l0.5-4.9l0.4-6.1l0.2-2.9l0.8-11.8l0.3-4.9l0.4-4.9l0.3-5l-0.4-4l0.4-5.9l0.7-4.9l0.3-3.9l0.4-5l0.3-4.9
	l0.3-3.9l0.4-5.9l0.3-4.9l0.3-3.9l1.8-7.1l0.2-2.9l0.5-6.9l0.3-4.9l0.4-4.9l0.3-4.9l0.3-4l0.4-5.9l0.2-2.9l1.1-6v-4v-5.9v-4.9v-5
	l1.6-9.8v-4.9v-6v-2.9l-0.2-5v-4.9v-7v-4v-4l-1.6-6.9v-5v-4v-5v-5.9v-3l-2-6.1l0.1-5.9l-0.4-2.9l-0.8-4.9l-1.1-6.9l-0.8-4.9
	l-0.7-4.9l-0.8-4.9l-1.2-10.4l-0.3-4l-0.2-3.9l-0.5-7l-0.4-5l-0.2-3l-0.3-4.9l-0.4-5l-0.3-5l-0.5-6.1l-0.5-5l-0.6-6l-0.5-4.9
	l-0.9-7.9l-0.4-4.5l-0.6-5.7l-10.7-3.5l-3.7,0.2l-10.8,0.8l-4.9,0.4l-3.9,0.2l-6-0.6l-2.9,0.2l-5,0.4l-5,0.4l-6,0.4l-11-0.9l-3,0.1
	l-7,0.3l-5,0.1l-3,0.1l-12,0.5l-3,0.1l-7,0.2l-5,0.2l-4.1,0.1l-5,0.2h-14.1h-7h-10.1h-3.1h-12.1h-3.1l-7.1,0.4h-3.1h-6.1h-4.1h-15.4
	h-5.1h-12.2l-10.2-0.1h-4.9h-4.8h-4.7h-2.3h-10.6h-4.9h-7.9h-7l-14.9-0.4h-4.9h-9.9h-3h-5l-5.9-1h-6h-5h-7.9l-6,0.4h-4h-5h-4.9h-6
	l-8.6-0.9l1.4-4.7l6.3-1.4h3.9h5h5h4.9h6h5h5.9h5l5,0.2h2.9h5h5.9h5h5h5.9h3h6h10.9h4h4h11.1h4h7l3.1,1h7h4.9h8.5h5.9h5h2.9h5
	l11.9-0.4h4.9h5h5h2.9h6h5.9h4h4.9l4-0.2h4.9h5h7h4.9h3h7l3,0.4h5.9h4h21h4.1l5-1.4l5,0.8l7.1-0.1l10.1-1.4l4.1-0.2l4.1,0.8l6-1.2
	l4,0.7l6.8-1.3h3.6h8.1h4.9h4.9h5.9l9.8-1.7l3.9-0.1l5.9-0.2l3.9-0.2l6.9-0.2l5-0.2l5.1-0.2l4.3-0.1l5.2-1.7h8.3h4.5l0.7,5.2
	l-3.7,0.3l-11.8,0.8l-3.1,0.2l-7,0.5l-4.2,0.3l-11.2,1.3l-6.1,0.6l-4,0.5l-5.2,0.5l1.3,6.7l0.5,6.1l0.2,4.1l0.4,5.2l0.4,6.1l0.3,4.1
	l0.3,4.2l0.7,10.2l0.4,5.9v5l0.5,6.1l0.3,2.9l0.7,7l0.6,4.9l0.4,4l0.5,5l0.4,3.9l0.5,5l1.2,7.1l0.3,3l0.6,5l0.5,4.9l0.5,5l0.6,6
	l1.5,6.1l0.4,5l0.2,3l0.4,5.9l0.3,4l0.5,7l0.2,4l0.4,5l0.3,5l0.6,5.1l-1,4v7v5v5.1v3v7l-1,8.9l-0.4,5.9v3l-0.4,5.9l-0.3,4.9
	l-0.5,5.9l-0.2,2.9l-0.4,6.9l-0.4,4.9l-0.3,3.9l-0.1,4.9l-1.4,4.9l-0.3,4l-0.5,6.9l-0.3,4.9l-0.3,2.9l-0.4,6l-0.2,3.8l-0.4,5.9
	l-0.3,3.9l-0.8,7l-0.4,4.9l-0.2,2.9l-0.5,6.9l-0.2,2.9l-0.4,5.9l-0.2,3.9l-0.5,6.9l-0.2,2.9l-1,5.9l0.7,4.9l-0.3,4l-1.3,4.9l0.1,11
	l-0.6,5.8l-0.6,4.9l-0.4,3.9l-0.4,3.9l-0.6,5.8l-1.6,4.9l-0.8,5.9l0.1,3.8l-1.9,3.9l-0.5,7.3l-0.5,2.7l-1.5,6.7l-1,4.7l-0.8,3.8
	l-0.7,3.7l-2.2,6.5l-0.8,3.7l-1,4.7l-1.4,6.7l-0.6,2.7l-1.4,6.7l-1,4.7l-1.3,4.8l-0.4,5.4l-1.6,7.6l-1.2,5.8l-1.3,5.8l-1,4.8
	l-1.7,4.9l-0.2,2.8l-2.3,6.9l-1.4,4.8l-1.4,2.8l-0.5,6.7l-2.7,3.8l-0.7,4.6l-1.8,3.6l-1.9,4.6l-2,4.5l-2.2,4.4l-2.3,4.4l-3.4,6.3
	l-2.6,2.1l-2.7,5.1l-2.9,3l-5.1,5.8l-1.1,2.7l-4.4,3.5l-2.4,3.5l-3.7,3.2l-3.8,3.1l-2.9,2l-5,3.8l-4.1,3.6l-4.3,1.4l-4.4,1.4
	l-3.4,2.1l-3.5,2l-9.5,2.8l-5.9,2.7l-4,1.7l-7,1.5l-3,1.4l-7.1,1.4l-3,1.2l-7.1,1.2l-4.2,1l-4.1-0.1l-5.2,1.9l-7.1-0.3l-4.2,1.7
	l-6.2,0.5l-5.1-0.5l-5.2,1.4l-4.2,0.2l-4.1,0.3l-5.1,0.1l-6.1-1l-8.6,0.7l-7.1,0.2l-12.4-0.4l-4.8-1.7l-3.9,0.5l-6.9-1.8l-4.8-0.9
	l-3.8-1l-5.9-1.1l-3.8-1.1l-4.8-1.3l-9.5-1.6l-2.8-1.4l-5.7-1.5l-4.7-1.5l-11.6-4.1l-4.4-1.6l-4.3-1.6l-2.5-1l-5.3-1.9l-3.5-1.2
	l-5.7-2.3l-4.6-1.9l-4.6-2l-6.5-3.1l-4.5-3.1l-3.5-1.2l-4.4-2.3l-5.3-2.4l-2.3-2.5l-6.1-3.6l-3.9-2.7l-5.7-3.7l-4.9-5l-3.9-4.1
	l-2.8-0.3l-3.7-3.3l-3.7-4.4l-2.6-5.4l-2.5-1.5l-4.6-5.8l-3.4-1.8l-4.3-4.9l-1.3-2.8l-4.1-4.9l-1.4-1.8l-3.2-3.9l-3.2-4.9l-2.3-2.2
	l-3.1-3.6l-4-5.8l-3.3-5l-4.3-3.9l-3.3-3.9l-2.2-4.7l-3.3-2.9l-2.3-3.8l-4.3-4.8l-1.4-1.8l-3.3-3.8l-3.3-4.8L1146.8,1586.1z"/>
</svg>
