<?xml version="1.0" encoding="utf-8"?>
<!-- Generator: Adobe Illustrator 23.0.1, SVG Export Plug-In . SVG Version: 6.00 Build 0)  -->
<svg version="1.1" id="Ebene_1" xmlns="http://www.w3.org/2000/svg" xmlns:xlink="http://www.w3.org/1999/xlink" x="0px" y="0px"
	 viewBox="0 0 2834.65 2834.65" style="enable-background:new 0 0 2834.65 2834.65;" xml:space="preserve">
<path d="M1185.82,1756.32l1,8c19-2,38-2,55-4l1,8c1,12,2,21,2,25l7-3c0-2-2-32,0-32l41-3c25-2,51-1,78-4c21-2,43-1,65-2
	c49-2,173-14,213-14l-15-8c-40,0-149,9-199,14c-21,2-43,2-65,2c-26,0-52,1-78,3c-15,1-28,5-41,4c-2-24-4-55-4-82c0-41,1-84,1-114
	v-54c0-94-6-163-13-255c-5-66-9-133-12-200l-9-4c3,67,8,138,13,205c7,92,13,184,13,277v31c0,29,0,74-2,114l4,83
	C1222.82,1754.32,1204.82,1754.32,1185.82,1756.32z"/>
</svg>
