<?xml version="1.0" encoding="utf-8"?>
<!-- Generator: Adobe Illustrator 23.0.1, SVG Export Plug-In . SVG Version: 6.00 Build 0)  -->
<svg version="1.1" id="Ebene_1" xmlns="http://www.w3.org/2000/svg" xmlns:xlink="http://www.w3.org/1999/xlink" x="0px" y="0px"
	 viewBox="0 0 2834.6 2834.6" style="enable-background:new 0 0 2834.6 2834.6;" xml:space="preserve">
<path d="M1116.8,1810.8l4,38l6-38c0-119-6-160,18-233c30-89.9,22-121,32-264c5-70,4-125,4-185l207,225l-34,28l9,6l31-25l49,52l22,13
	l-15-20l-47-52c62-47,161-118,234-169v82c0,114-9,153-8,252l4,309l8-22c1,0-0.8-282.3-1-284c0-47,1-83,2-118c1-36,6-76,5-137l-1-89
	c32-22,58-40,72-47l-8-5c-13,8-35,23-64,42v-76l-8-23l-2,23v83c-72,50-175,123-241,171l-214-233c0-39-1-80,0-127l-9-1.9
	c-1,42-1,81.9,0,119.9l-10-12l-20-8l30,33c0,61,1,122-6,195c-4,40-3,70-4,97c-3,68-5,100-26,166c-19,60-19,99-19,177V1810.8z
	 M1118.3,1805.1v3.9v4.8v2.8l1,8.7v2.8l0.8,9.1l0.9,7.6v-3.5l0.8-1.5l-0.3-3.7l1.5-5.8v-3.7v-4.8l1.5-6.8l0.7-7.1v-5.9l0.8-6.2
	l0.1-4.1l-0.5-6.2v-4.2v-7.1v-5.1v-5.2l-0.4-5.1v-4.1v-6.2v-4.1v-5.1v-5.1v-6v-4.1v-6.1v-4v-5v-5v-6v-4v-5.9v-2.9l0.4-5v-5.9v-5.8
	v-3.9v-4.9v-3.8v-6.8v-2.9v-6.8l4.5-4.8l0.9-4.8l-0.4-2.8l1.9-4.8l1.2-6.8l0.9-4.7l1.2-4.8l0.4-4.8l2-4.8l1.3-5.5l0.6-4.8l3-6
	l2.2-8.9l1.4-4.6l2.1-2.6l0.5-3.8l2.7-7.9l1.1-2.6l1.1-6l1.2-2.8l0.4-6.8l2.1-3.9l0.3-4.8l0.1-3.8l-0.3-4.9l3.3-4.9l1-4.8v-5.9
	l2.1-5.9l0.8-2.9l-0.4-5.9l-0.4-5l0.5-4l1.9-4.9v-7v-4.1v-5v-5l2.3-6.1v-4.1v-6.1v-4.1v-4.1v-5.1l1.2-5.1v-6.1v-5.1v-5.1v-5.1l1-6.1
	v-4.1l1-4v-5.1v-6.1l0.8-6.1v-3v-6.1v-5l1-6.1v-5v-3.1l1-6v-5l1-6.1v-8v-7.1v-3v-5l1.1-7v-4.1l1-5v-6v-4l1-6v-5.1v-3v-5v-6v-6v-4
	l-0.1-6v-3v-5v-4.9v-6v-6v-3v-6v-4v-5l0.2-4.9l0.4-7v-3v-7v-4v-4v-5.9v-6v-3v-5l0.4-8l9.2,9.4l3.6,3.7l2.7,2.7l5.2,5.6l3.5,3.7
	l2.6,3.7l4.4,3.7l1.6,2.9l4.6,2.5l1.8,1.7l2.4,3.7l4.7,4.7l4,3.6l1.4,3.7l4.1,4.3l1.9,0.9l3.9,5.2l2.9,3.7l5.5,3.7l4.7,5.4l5.6,5.7
	l0.8,2.8l4.2,2.6l2.4,5.7l6,4.6l1.3,2.7l5.6,4.7l3.7,3.7l2.1,0.9l2.1,4.5l4.9,3.2l4,5.7l0.9,2.8l4.8,2.6l3.6,5.9l2.4,2.7l4.2,3.7
	l2.3,3.7l3.2,1.5l1.5,3.7l5.7,4.7l1.4,1.7l4.2,3.7l3.5,6.7l5.4,3.7l2.3,4.6l7.2,6.4l4,3.7l2.2,4.7l4.3,3.4l4.7,5.3l4.6,5.7l4.5,3.3
	l3.1,3.7l2.7,3.7l9.1,9.6l-3.4,2.6l-6.2,5.1l-2.7,2.1l-4.5,4.1l-2.8,2.2l-5.9,4.6l-5,4.2l-3.6,3.5l3.7,1.8l8.2-1.9l5.1-3.1l4.5-3.8
	l1.6-0.4l4.9-5.1l6.5-5.1l4.2-2.4l2.2,2.4l5,5.1l3.5,3.7l4.9,4.8l3.2,2.7l3.3,4.7l5.6,3.7l2.3,2.7l2.6,4.7l5.5,3.7l1.7,3.8l5.7,3.7
	l2.2,2.7l2.2,3.3l4.9,2.6l14.3,9.4l-2.2-2.3l-2-2.7l-2.7-3l-2.3-2.8l-2.4-3.3l-2.5-2.9l-0.8-1.7l-9-9.8l-3-3.7l-3.9-4.7l-8.4-7.7
	l-1.2-1.7l-4.2-3.7l-4.6-4.9l-1.6-2.6l-4-4.7l-1.9-2.7l-5.2-5.1l8.8-6.5l3-3l6.4-4l3.9-3.9l3.5-2l5-4l3.1-1.9l6-5.7l4.9-1.9l1.2-1.3
	l4.5-3.9l4.6-2.8l1-2.1l5.6-4l3.1-1.9l4.6-2.9l4.6-3.4l3.8-2.8l4.4-3.7l2.9-1.9l4.7-4.3l4-1l2.7-1.5l5.7-5.5l4.9-2.9l1.3-1.3
	l3.7-2.9l6.3-3l5-4.5l3.6-3.4l4.2-2.7l3.2-2.1l3.3-2.1l5.7-4.6l3.9-2.9l6.8-3.9l2.1-1.9l3.7-1.9l4.8-4.3l4.4-2l3.2-3.1l6-3.8
	l1.4-1.3l3.7-2.9l7.8-6.7l6-2.9l3.6-1.9l4.2-3.7l2.4-1l8.6-6.8l4-2.8l3.8-2.9l5.2-2.8l8.4-8l-0.1,9.8v5.7v5.2v5.1v5.1v4.1v5.2v5.1
	v9.2v6.2v6.1v4.1l-0.6,5.1v5.2v10.3v4.1v7.2v4.1v4.1v6.2v5.1v4.1v5.1l-1,7.1v3.1v7.1v3.1v6.1v6v3.1v7l-1,4v5v6v5v3v4.9v5v5v5.9v6
	v4.9v4v3.9l-4,7v3.9v4v6v5v5v5v5v5v5.1v6v3.1l0.3,5v6.1v4.1v7v5.1v4.1v6v10.1v4v5v4.9v4v7v5v5v5v3.9v4v7v3v12v3.9v5v4v6v6v7.9v6v5v4
	v7l1,5v3.9v5v6v5v5v5v4v4.9v10v5v4v6v4.9v4v7v4v6v3v5.9v5v6l0.4,4v4v6v4.9v5v5v4v6v4v6.9v4v6.6l2-5.8l1-3.6v-3.4l2-3.4l2.2-8.4v-4
	v-6v-4.9v-4v-4v-6v-4v-5.9v-5v-5v-6v-4v-6v-2.9v-6v-4v-6v-5v-3.9v-6v-6v-5l-0.2-3v-6.9v-4v-6v-3v-5v-7v-5v-3v-7v-5v-4.1v-4l-0.1-5
	v-6.1v-5.1v-4.1l-1-7.1v-4.1v-5.2v-4.1v-7.2v-5.3l-0.2-5.3v-5.3v-3.4v-5.3v-7.5v-3.4v-6.3v-4.2v-5.8v-2.8v-7.8v-3.9v-6v-5v-3.9
	l-0.1-7v-4.9v-5v-3.9v-6v-2.9v-6.9v-3.9v-5.9v-3.9v-4.9v-5.9v-4.9v-2.9l1.8-6.8v-2.9v-6.9v-3.8v-10.9v-5v-4v-5.1v-6v-3v-5.1v-7v-4.1
	l3.3-5.1l-0.1-6v-3.1v-6.1v-5.1v-4.1v-5.1v-6.1v-6.1v-3.1v-6.1v-5.1v-6.1v-4.1v-5.1v-4.1v-5.1v-11l1-4v-6.9v-4v-3.9v-6v-5.9v-5v-4.9
	v-4.9v-3v-6.9v-5v-3.9v-4v-6.9l-0.4-9.7l8.3-5.1l2-2l5-3.5l3.8-2.3l5.9-3.9l2.3-1.9l5.2-2.9l4.3-3.6l3.7-2.2l4.5-2.8l6.8-4.8
	l1.3-0.8l5.1-4l4.1-1.6l3.9-2.3l5.6-3.3l-4.3-1.3h-7.8l-6.1,5.5l-4.1,3.2l-3.4,1.8l-4.1,1.6l-6.3,4.9l-2.8,1.5l-5.2,3.8l-2.9,1.2
	l-5.2,3.8l-3.8,2.5l-2.6,1.9l-5.2,3.8l-6.6,5.2l-1.9-2.5l-0.3-10.2v-4.1v-5.1v-4v-6.1v-16.2v-4.1v-5v-6.1v-4.1v-4v-10.7l-1-3.6
	l-3-6.6v-1.6l-1.2-4.4v8v5.6v4.6v9.5v19.5v5.9v4.9v3.9v3.8v4.9v5.9v3.9v5.9v5.9v2.8l-0.1,7.6l-10.2,8l-2.6,1.9l-5.2,2.8l-4.5,2.9
	l-3.2,2.7l-2.3,1l-5.5,3.9l-4.1,3.8l-5,2.9l-4.6,2.9l-3.2,2.8l-4.5,1.9l-2,1.9l-6.4,4.6l-4.3,2.2l-3,2.9l-3.8,3.9l-2.9,1.9l-4,1.8
	l-6.3,4.9l-4.7,2.9l-2.9,1.9l-5,3.9l-4.4,2.9l-1.9,1.9l-4.6,2.7l-4.1,2.4l-4.5,3.5l-2.7,2.8l-4.6,2.8l-5,3.7l-2.5,0.9l-5,4.5l-5,5.7
	l-4.6,1l-3.6,4.5l-4.5,0.8l-3.1,2.5l-4.5,3.8l-2,0.9l-4.4,3.6l-4.6,2.8l-4,3l-4.5,3.5l-5.4,3l-3.9,2.5l-3.1,3.4l-4.2,2.4l-3.7,2.9
	l-4.1,3.8l-3.2,2.9l-5.6,3.2l-4.5,3.7l-2.2,0.4l-8,5.8l-2,1.9l-6,3.9l-3.1,2.1l-2.4-1.6l-3.6-4.4l-3.9-3.4l-3.3-2.8l-3.4-5.5
	l-5.5-3.7l-2.1-3.7l-2.9-2.7l-3.4-4.7l-6.4-7.4l-3.7-3.8l-3.2-1.7l-2.4-4.6l-3.4-3.7l-4.4-4.7l-5.5-3.7l-2.9-4.5l-1.4-2.7l-4.6-3.6
	l-4.1-5l-3-2.7l-3.2-3.7l-2-2.7l-3.8-4.1l-2.3-2.8l-5-5.3l-2-2.7l-3.3-2.7l-4.5-3.8l-3.4-4.8l-3.1-4l-3.4-3.4l-4.4-4.4l-5.1-4
	l-2.9-3.7l-3.9-3.1l-3-4.7l-3.6-5.4l-3.7-4.1l-4.7-4.7l-3.7-3.1l-4.6-4.8l-1.1-1.7l-3.7-4.7l-4.8-4.3l-2-1.6l-3.5-4.8l-3.4-4.4
	l-3.9-4.2l-2.9-3.2l-5-3.5l-1.5-3.7l-4.9-2.4l-3.3-4.7l-2.3-4.6l-2.8-2.8l-5.2-4.6l-3.4-4.3l-2.7-3l-8.5-8.7l-0.2-5.5v-4v-5.1v-5
	v-4.1v-5.1v-6v-5.1v-6.1v-4v-4.1v-6.1v-5.1v-4.1v-5.1v-6v-4.1v-6.1v-5.1v-4.1v-7.1v-5.1v-4.1v-5.1l-4.7-5.8l-0.4,6.6v3v4.9v5.9v5
	v3.9v5.9v4.9v5v3.9v6.9v4.9v3.9v3.9v4.9v7v3.9v3.9v6.9v3.9v3.9v6.9v3.5l-0.6,6.9l-12.6-12.8l-9.5-4.8l-5.8-2.5l2.2,2.9l2.8,3.9
	l5.4,3.7l1.2,1.7l5,3.2l1.6,4.8l3.3,1.7l6.3,6.7v12.9v4v6.9v5v3v6v5v6v5v3v7v2.9v6v4v5v7v4v5v6v4v4v7.1v3l-1.8,7v5v5v5v4v4v7v5v3.1
	l-2,6v5v6v4v5l-3.3,11.2v4.1v6.2v3.1v5.2v6.1v4.2v5.1v7.1v4.2v5.1v5.1v6v5.1v5.1l-2.8,3v5.1v7v8v6v6v4v6v4v5v5.9v3l-3.2,6.9v4.9v2.9
	v4.9v6.9v2.9l-2.5,4.9v6.9l-2,4.8v4.9v3.8l-3,5.9v2.8v4.9l-2.7,5.8v3.8l-2,4.9l-1,6.8v2.8l-3,6.8v2.8l-2.6,5.8l-1.7,5.7l-1.3,4.8
	l-3.6,9.9l-0.9,6.2l-2.2,3.6l-0.4,4.8l-1.6,4.2l-1.2,3.8v4.8l-2,4.8l-1,4.9l-1.2,3.8v4.9l-2,6.8v4.9l-0.9,3.9v3.9v5.9v6v2.9
	l-1.9,4.9v7v5v2.9l-1.7,7v4v5v4v5v6v5v6v4v6v3v5l0.3,6v11.2v5.2v5.1v3.2v6.2v4.2l0.4,6.2v6.2v5.1V1805.1z"/>
</svg>
