<?xml version="1.0" encoding="utf-8"?>
<!-- Generator: Adobe Illustrator 23.0.1, SVG Export Plug-In . SVG Version: 6.00 Build 0)  -->
<svg version="1.1" id="Ebene_1" xmlns="http://www.w3.org/2000/svg" xmlns:xlink="http://www.w3.org/1999/xlink" x="0px" y="0px"
	 viewBox="0 0 2834.65 2834.65" style="enable-background:new 0 0 2834.65 2834.65;" xml:space="preserve">
<path d="M1629.52,1599.89c-16-10-37-27-45-34c-40-35-78-69-117-102c-44-37-84-72-128-111l-159-160c-17-17-19-28-19-40
	c0-16-5-22-6-12c-1,13-7,16-24-1c-6-6-14-16-17-12c-3,3,5,11,6,12c28,28,35,37,34,77l-2,110c-4,206,7,260,7,280c0,46,2,176,2,219
	c0,8,0,17,0,24c0,3,0,6,3,6c9,0,5-13,5-16l-1-179c0-33-7-140-9-215c-1-41-1-126,2-179c3-50,0-74,0-84c3,4,157,163,174,178
	c46,40,92,82,138,119c51,41,98,89,144,122c7,5,9,10,10,17c6,52,6,101,10,149c1,9,0,22,4,22c2,0,4-4,4-19c-1-48-8-102-9-152l66,55
	c11,9,15,10,18,7c2-2-7-9-13-14c-17-14-37-26-53-42c-9-9-16-21-17-48c-2-55-6-111-8-166c-1-29-2-51,2-141v-222c0-32-2-38-2-59
	c0-3-7-16-8-7c-1,8,2,14,2,42c0,48,2,147,1,194l-4,180C1624.52,1468.89,1629.52,1560.89,1629.52,1599.89z"/>
</svg>
