<?xml version="1.0" encoding="utf-8"?>
<!-- Generator: Adobe Illustrator 23.0.1, SVG Export Plug-In . SVG Version: 6.00 Build 0)  -->
<svg version="1.1" id="Ebene_1" xmlns="http://www.w3.org/2000/svg" xmlns:xlink="http://www.w3.org/1999/xlink" x="0px" y="0px"
	 viewBox="0 0 2834.6 2834.6" style="enable-background:new 0 0 2834.6 2834.6;" xml:space="preserve">
<path d="M1129.4,1514.4c0-66.5,29.3-135.5,77.1-188.8c2.6-2.9,147.5-145.8,240.2-235.9c25.3,40.7,41.8,69.7,73.7,119
	c37.9,58.5,72.7,118,106.8,174.8c10.2,17,82.8,126.6,76.1,139.5c-17.7,34-77.1,75.1-232.4,190.9c-28.7,21.4-59.6,44-83.7,66.5
	l-13.3-9.6c-23.9-17.2-50.7-36.5-77.1-53.7C1212.1,1661.9,1129.4,1605.6,1129.4,1514.4z M1120.5,1514.4
	c0,125.5,149.4,184.8,248,262.8c4.3,3.4,7.6,6.4,12.1,9.7L1364,1803l-1.1,8.5l24.3-19.3c13.1,10.8,39.6,30.1,52.9,39.7l-10-16.1
	c-11-8.6-21.6-18.8-33.1-26.7l-3.2-2.2c24.2-22.5,51.8-44.1,81.5-64.4c48.4-39.7,213.7-154.4,238-195.2
	c5.5-12.9-19.3-51.6-67.3-129.9l-11.1-18.1c-8.6-14-16.4-28-24.1-41.9c-24.9-45-53.9-89-82.7-133c-11.2-17.1-22-34.3-32.9-50.4
	c-20.2-29.8-29.9-48.2-43.1-69.8c39.7-37.5,83.7-80.4,84.9-81.5l-18.7,7.5c-2.4,1-30.9,29-70.6,66.5c-7.6-11.7-17.6-25.7-29.7-42.8
	l-6.7,4.2c12.2,17.2,22.2,31.2,31,45.1c-93.7,90.1-239.9,230.9-242.5,234C1150.4,1376.1,1120.5,1445.7,1120.5,1514.4z
	 M1125.3,1520.5l-1-9.1l0.1-5.9l0.3-3.9l2.3-7.1l-1.5-3.9l1.5-4.1l1.7-6.9l0.7-3.9l-0.1-6l-0.1-3.8l1-5l2.3-3.8l1.2-4.8l1.4-6.9
	l2.3-3.8l1.5-5.7l1.5-2.8l0.7-5.7l0.7-3.7l1.8-6.7l1.9-2.6l4-6.7v-2.5l3.2-6.5l1.2-3.6l2.2-3.4l2.4-6.4l2.5-4.5l4.4-2.3l2.7-5.4
	l2.6-4.2l1.8-5.2l3.7-4.1l0.8-2.2l2.9-6.1l3.1-2l5.1-4l1.1-5.9l3.2-2.9l5.3-3.9l1.4-2.7l8.9-8.4l1.5-2.5l3.8-5.5l4.6-2.6l3.6-2.5
	l2.5-3.6l12-11.7l2.5-3.5l4.7-4.6l3.7-1.5l2.6-3.6l4.7-3.6l3.5-5.6l4.7-2.5l2.6-4.5l4.7-3.6l3.5-2.5l1.6-3.6l5.8-3.5l3.6-2.7
	l3.6-5.5l2.5-1.5l2.7-5.5l5.7-1.5l2.6-3.7l2.6-5.6l4.7-2.5l2.6-3.5l5.6-2.5l3.6-3.6l3.7-5.5l3.6-2.6l3.6-3.5l2.6-3.6l4.7-2.6
	l3.6-4.5l1.6-2.5l5.7-5.5l3.6-2.6l3.7-4.6l3.6-1.5l3.6-5.6l3.6-1.5l1.6-4.5l3.7-2.5l4.7-3.5l3.6-5.7l4.7-1.5l1.5-3.5l5.7-3.6
	l2.6-4.5l3.6-4.5l3.8-2.5l3.6-4.7l4.6-1.5l3.6-5.5l2.8-2.6l3.6-2.5l4.6-4.5l3.6-2.5l1.7-4.7l3.7-4.5l3.7-2.6l5.7-3.5l3.7-3.4
	l4.3,9.4l2.6,4.3l1.6,2.3l3.7,5.4l3.6,4.2l2.7,4.3l1.5,5.2l2.6,2.2l1.7,5.5l4.6,5.2l1.6,4.3l3.6,4.3l2.7,4.2l1.6,2.3l3.7,6.4
	l1.6,4.3l1.6,3.2l4.9,4.3l1.6,5.3l3.7,3.3l0.7,3.4l2.6,5.2l4.9,4.3l1.7,4.2l1.8,4.3l4.7,3.3l4.4,9.5l1.8,5.2l2.8,3.2l4.7,5.4
	l1.7,4.2l2.6,4.3l3.8,4.2l1.8,2.3l3.6,4.2l1.7,4.3l2.6,5.3l2.7,3.4l2.7,4.2l5.3,10.5l2.6,2.4l1.7,5.3l3.6,5.3l1.6,4.3l2.7,2.3
	l4.6,5.2l0.7,3.4l2.6,5.3l3.5,3.4l1.6,4.3l3.7,6.2l3.7,2.3l2.5,6.4l5.2,8.7l1.5,2.3l2.8,5.2l2.5,3.3l3.6,4.4l0.6,4.3l4.5,6.4
	l2.7,2.3l0.5,4.3l2.7,5.3l4.5,3.3l5.2,10.6l0.7,3.2l2.8,5.3l3.7,4.3l2.6,3.2l3.7,3.2l0.8,6.4l3.7,2.2l1.6,6.3l3.8,3.3l2.6,5.2
	l3.7,3.3l0.7,3.3l3.6,5.3l2.7,5.4l2.6,4.3l2.7,3.3l2.6,3.4l2.5,6.4l3.7,2.4l2.5,5.5l0.5,3.5l4.6,5.5l2.5,3.5l2.4,5.7l1.4,4.7
	l3.3,4.7l2.3,3.8v6.8l2.7,3.8l1,3.5l-1.8,7.9l-3.7,5.1l-3.1,5l-2.1,2l-4.3,4.8l-4.5,3.8l-2.5,3.6l-4.7,2.5l-3.7,3.5l-3.8,3.4
	l-1.8,4.5l-5.9,2.3l-3.9,4.4l-2.9,3.3l-3.9,2.2l-3,4.2l-6.1,3.2l-1.9,2.2l-5,4.2l-4,2.2l-5.1,5.2l-3,3.1l-4,2.1l-5.2,2l-2,4.1
	l-6,3.1l-2,3.1l-6.2,4.1l-4,2.1l-2.1,3l-4.1,3l-4.1,2.1l-4.1,3l-5.1,3l-3,4.1l-4.2,4.1l-5.1,2l-4,2l-3.1,4.1l-5.1,2l-5.1,4l-4.1,4
	l-4.1,1l-3.2,4.1l-4,3.1l-5,3l-4.3,4l-4,2l-2.1,4l-6.1,2l-3.2,2l-3,3.1l-5,4.1l-3.2,3l-9.2,6l-5.1,4l-3.1,2l-3.1,4l-10.2,5.2
	l-2.2,4.1l-6.1,1l-8.2,8.1l-6.4,4.2l-5.1,3l-3,3.2l-6.3,4.3l-3,3.1l-7,7.3l-5.2,1.2l-2.9,4.2l-5.9,2.2l-1.9,3.5l-6.1,5.3l-1.8,3.4
	l-7.5,5.3l-5.6-2.7l-3.5-3.2l-9.6-6.1l-5-1.9l-2.1-5.1l-4-1.9l-6.1-3.8l-2-1.9l-6.2-1.9l-3-4.8l-3.2-1.9l-4.1-1.8l-5.1-5.1l-5-0.8
	l-4.3-2.8l-2.1-3.8l-4.1-3.7l-6.3-1.8l-6.3-5.5l-9.5-6.6l-5.2-2.8l-3.2-0.7l-4.3-4.8l-3.3-2.8l-4.2-1.7l-5.3-2.8l-4.2-3.8l-4.2-0.9
	l-5.3-3.9l-3.1-2l-4.2-2.8l-5.2-5l-2.1-2.9l-5-2.9l-4.2-1l-4.1-5.1l-5-2.1l-3.9-3.2l-4.1-4.1l-2.9-2.2l-2.8-4.2l-3.9-2.3l-3.9-3.3
	l-3.7-4.4l-5.7-2.4l-1.6-4.6l-3.7-1.5l-4.6-5.6l-4.4-1.6l-1.4-5.7l-5.4-2.7l-2.3-3.9l-2.1-5l-3.1-3l-2.9-4l-2.9-5.1l-4.8-4.2
	l-1.6-4.3l-2.6-3.4l-1.3-5.3l-4.2-2.5l-0.1-6.5l-4-4.7l0.3-3.6l-1.7-4.8l-2.5-3.7l-0.3-6.8l-0.1-2.9l-2-6l-1.7-4l0.4-5.9l-0.5-4
	L1125.3,1520.5z M1122.1,1508.9v10l0.2,7l0.4,5l0.6,3l0.7,4.9l0.9,6.9l2.1,2.9l0.2,4.8l1.3,5.8l2.6,5.7l0.7,2.7l1.9,5.7l1,3.5
	l3.2,5.5l2.3,4.4l2.3,3.4l3.6,6.3l1.6,3.2l2.8,4.2l2.9,4.1l2,3l3.9,4l3.2,3.8l3.3,3.9l3.3,4.7l5.3,4.7l4.5,3.6l1.5,3.6l3.6,2.5
	l3.5,3.5l4.7,3.4l3.7,4.4l2.9,2.3l3.7,3.3l2.9,2.2l4.9,4.2l2.8,2.1l5.9,4.1l7.1,6.1l5,3l2,2l3.1,2l5,2.9l3.1,2.9l5.1,2.9l4.2,3.9
	l4.1,1.8l3.1,2.8l5.2,2.9l6.2,4.6l5.2,3.8l5.3,3.8l4.1,1.7l3.2,2.8l3.2,1.8l6.1,3.8l2.2,1.7l4.2,1.8l6.2,4.8l3.2,0.8l3.1,4.8
	l5.2,1.8l3.1,2.9l5.1,3.8l4.2,2.9l5.1,3.8l4.1,2.9l4.1,2l5,3.9l4,2l3,4l4,3l12,8.4l5,5.2l-6.2,5.4l-3.3,3.2l-2.4,3.3l-4.3,4.2
	l-0.8,3.4l2.4-0.9l3.1-1.2l3.1-3.3l14-10.4l3.9,3l2,1.1l4.9,5.1l3.2,2.1l5.1,4.1l4,3.1l8.2,6l3.1,2.1l6,5l4.3,3l2.1,1.8l2.5,1.1
	l-2.5-4.1l-3.5-5l-5.3-6l-3.5-2l-2.6-3l-4.6-3.1l-4.6-4.1l-2.6-3l-4.7-1.9l-1.7-2.9l-10.5-4.8l4.9-5.4l3.8-3.4l3.7-3.2l3.7-4.3
	l4.6-3.2l1.8-1.2l5.8-4.2l4.7-5.1l3.9-3.1l3-1.1l3.9-4.1l2.8-1l3.9-4l4-4l5.9-3l3.9-3.9l2.1-0.9l4.1-1.9l4.9-3.9l3.1-1.8l7.9-5.9
	l5.7-4l1.9-3.1l5-3l4.9-4l1.9-1.1l4-4l4-3l4.8-3l3-3l6.1-3l2-2l3.9-2.9l4-4l5.9-3l2-3l3.9-2l5-3l4.1-3l2.9-4l5-3l3-2l4.9-4l3-2l12-9
	l5-3l2.9-3.1l3-2l4.9-4l6-4.1l2-2l4.9-3.1l4-4.1l4-3.1l4.9-3.1l2.9-2.1l5-5.1l3.9-2.1l3-3.2l3.9-2.1l3.9-4.2l3-1.2l4.8-5.2l2.9-3.3
	l3.9-1.2l4.9-4.3l3.8-3.3l2.9-2.3l4.8-4.4l2.7-4.3l4.7-2.5l3.7-4.4l2.7-1.4l3.5-4.5l4.5-3.6l2.3-4.5l4.2-2.6l2.9-3.5l1.7-2.6l5-8.2
	l-2.7-5.9l0.6-5.7l-2.7-3.7l-2.9-3.5l-2.1-6.5l-0.2-4.4l-4.3-2.4l-2.4-5.3l-1.4-3.3l-3.5-4.3l-0.4-5.3l-4.5-5.2l-2.5-3.3l-1.5-4.2
	l-2.5-3.2l-1.6-4.3l-4.4-5.2l-5.1-8.4l-1.6-3.2l-3.6-5.2l-3.1-8.5l-2.6-3.2l-2.5-4.2l-4.6-5.2l-1.6-5.2l-2.4-4.2l-6.4-6.7l-1.7-5.6
	l-3.7-5.5l-4.4-6.7l-3.5-6.1l-0.4-2.2l-3.4-4.2l-2.4-6.2l-1.3-2.1l-3.4-5.3l-2.4-4.2l-1.4-3.2l-4.8-8.6l-3.4-5.4l-1.6-4.4l-3.5-5.4
	l-2.5-3.3l-2.6-4.4l-3.5-3.3l-2.5-4.4l-2.7-6.3l-1.6-4.3l-2.6-3.3l-2.6-4.3l-2.6-3.3l-3.8-6.3l-0.7-2.3l-4.7-6.3l-2.6-4.2l-1.7-3.3
	l-3.7-3.3l-2.7-6.2l-1.8-4.3l-1.7-2.2l-3.6-6.3l-2.8-3.2l-4.6-8.5l-4.8-4.2l-2.7-4.2l-1.7-4.3l-2.8-4.2l-5.5-9.4l-5.4-6.4l-1.7-4.2
	l-3.9-5.3l-2.7-5.2l-2.6-3.2l-2.7-5.2l-2.8-4.2l-1.7-3.2l-4.8-4.1l-5.6-8.5l-0.9-3.4l-4-6.3l-1.8-3.4l-3.7-3.3l-2.7-4.4l-3.7-4.4
	l-2.7-4.4l-2.6-4.4l-1.6-4.3l-3.5-4.4l-1.5-6.4l-3.6-2.3l-1.7-6.4l-1.6-2.3l-4.6-5.8l8.4-7.5l3.6-3.5l2.7-2.4l5.5-4.5l1.7-2.5
	l3.6-4.5l4.6-2.5l3.6-4.5l3.8-3.5l2.7-3.5l3.6-3.5l5.6-3.6l1.7-3.5l3.7-1.6l2.6-3.5l4.7-3.6l4.8-5.6l3.7-3.6l2.6-2.5l3.6-3.5
	l5.3-4.3l1-1.8l-2.1,0.3l-5.6,2.9l-2.7,0.8l-9.6,6.2l-3.7,3.5l-1.7,1.5l-3.7,3.5l-3.7,4.5l-4.7,3.5l-3.6,3.5l-3.8,3.5l-2.7,2.5
	l-3.6,5.6l-3.7,1.5l-2.7,4.5l-5.7,4.5l-3.6,3.5l-5.7,4.6l-2.7,2.5l-3.8,3.5l-2.6,2.5l-3.6,4.1l-6.8-8.2l-2-4.3l-4.8-6.3l-3-4.2
	l-2-2.3l-3.1-5.3l-3.9-5.3l-3.1-3.2l-5.3-1.2l0.5,4.2l4.9,6.1l1.9,3.1l6.6,8.1l1.9,3.1l3.9,5.1l2.8,5.1l1.7,3.1l6,6.8l-6.3,6
	l-4.6,4.5l-1.7,1.6l-4.8,5.5l-3.5,2.5l-3.7,3.6l-2.7,2.5l-4.6,5.5l-4.6,3.6l-2.7,2.5l-3.7,3.5l-2.7,3.6l-4.6,3.5l-3.7,3.6l-2.7,2.5
	l-3.7,3.5l-4.6,4.6l-2.7,2.5l-5.6,5.6l-3.7,3.6l-3.7,3.5l-1.7,1.6l-4.7,4.5l-2.7,2.6l-4.6,4.6l-2.7,3.5l-5.8,4.6l-2.7,2.6l-4.7,4.6
	l-2.7,2.5l-4.7,4.6l-2.6,2.6l-3.8,3.6l-3.7,3.6l-2.8,2.6l-4.7,4.6l-3.7,3.6l-3.8,3.6l-3.8,3.7l-3.6,3.6l-4.8,4.6l-2.8,2.7l-2.7,2.6
	l-2.8,2.7l-5.8,4.6l-3.8,3.7l-3.7,3.6l-2.8,2.7l-5.8,5.7l-2.9,3.7l-7.6,7.4l-3.8,2.7l-3.7,3.6l-3.8,4.7l-3.8,2.7l-2.8,2.7l-3.7,3.6
	l-4.8,4.6l-2.6,3.5l-3.6,2.5l-3.4,5.3l-4.2,2.2l-3,2.9l-1.5,1.5l-2,4l-5.1,3.9l-2.3,3l-4.1,6l-3,4l-1.9,2.1l-4,6.1l-2.9,4.1
	l-2.8,3.2l-1.8,3.2l-2.7,4.2l-2.6,6.3l-2.7,4.3l-2.6,4.4l-2.5,3.4l-2.5,4.4l-2.3,5.5l-2.3,2.4l-2.2,4.6l-2.2,6.5l-2.1,2.6l-2,4.6
	l-3,6.7l-1.8,2.6l-0.8,5.7l-2.7,5.8l-1.7,3.7l-1.7,5.8l-1.5,4.8l-1.4,4.8l-0.3,4.9l-1.2,4.9l-1.2,3.9l-0.9,3.9l-2,4.9l-0.9,6
	l-0.7,3.9l-0.7,7l-0.6,5l0.6,3l-1.4,6l-0.3,4.1L1122.1,1508.9z"/>
</svg>
