<?xml version="1.0" encoding="utf-8"?>
<!-- Generator: Adobe Illustrator 23.0.1, SVG Export Plug-In . SVG Version: 6.00 Build 0)  -->
<svg version="1.1" id="Ebene_1" xmlns="http://www.w3.org/2000/svg" xmlns:xlink="http://www.w3.org/1999/xlink" x="0px" y="0px"
	 viewBox="0 0 2834.6 2834.6" style="enable-background:new 0 0 2834.6 2834.6;" xml:space="preserve">
<path d="M1174.2,1850.2c17.2-20.7,86.1-61.2,140.4-84.2c50.5-21.4,100.4-46.3,132.5-64.1c68.8-38.2,118.9-75.8,150.1-111
	c29.1-32.8,56.6-55.7,63.3-93.6c-56.4-50.3-147.3-95-188.4-112.3c-53.5-22.5-253.9-91.3-257.9-100.4c-7.5-17,2.3-67.9,9-86.2
	c27.4-74.9,35.8-124,92.7-140.2c12-5.7,160.3-65.2,168.3-64l11.8-9.7c-15.8-2.3-165.5,59.7-184.1,65.6
	c-67.4,21.4-78,90.8-98.1,145.9c-6.7,18.4-15.8,72.5-7.8,92c5.2,12.6,123.2,50.7,179.9,72.4c124.6,47.7,168.3,63.8,264.3,140.4
	c-7.9,36.9-23.9,43-62.1,86.7c-29.6,33.8-79.6,69.6-149,108.7c-63.5,35.8-218.6,97.8-254.4,133.3L1174.2,1850.2z M1178.2,1842.7
	l-0.9,3.6l4.8-4.1l1.8-4l2-3.7l6.1-1l1.6-2.3l4.5-5.3l6.2-2.9l3.3-3l4.1-0.7l4-4.4l3.5-1.8l10.3-5l2.3-2.7l5.4-1.6l4.4-4.6l4.4-0.4
	l4.4-4.4l3.8-0.4l5.8-2.1l4.1-4.2l2.7-2.5l6.1-2.5l3.9-0.3l3.4-4l4.9-1.3l6.3-3.1l2.8-1.2l4.4-1.1l6.3-3.9l3.7-2.1l9.5-4.1l6.1-2.1
	h3.4l4.6-2.9l5.1-1.1l2.8-4.2l7.1-0.1l2.3-1.9l4.7-2.1l4.6-3.2l7.2-3.3l2.5-0.2l5-2.9l4-3.6l5-0.2l4.9-1.9l3.7-3.5l6.6-1.2l2.2-2
	l6.1-4.7l4.8-0.3l4.6-1.9l2.5-4.5l6.2-1.5l3.2-1.3l10.5-5.5l3.3-3.3l10-5.1l3.3-1.4l5.6-3.5l3.2-0.6l3.9-3.2l3.4-2.6l4.5-2.7l10.1-5
	l2.2-3.6l6.1-3l4.8-0.7l3.7-4.3l3.3-2.8l3.5-2.9l5.3-2l3.7-1.5l2.9-3.7l6.4-4.2l3.5-1.7l2.1-4.1l4.5-1l4.5-3.7l2.9-3l4.1-3.3l4.8-2
	l2.6-3l4.7-3.2l4.5-4.9l1.9-2.4l5.6-3.2l1.5-2.3l5.6-3.4l3.2-4.2l3.6-3.6l3.2-2.3l2.2-3.4l7.2-7.1l1.5-6.2l4.6-1.7l2.4-5.7l4.5-1.7
	l2.4-5.7l4.8-1.7l3.9-4.4l3.1-3.3l1.2-5.1l5.6-4.1l2.9-3.6l1.9-2.8l3-5.2l3.7-4.1l2.4-3.7l0.3-4.4l3.4-4.7l1.8-4.2l0.8-4.7l1.6-3
	l2.8-5.9l-3.1-6l-3.7-3l-3.6-4.1l-4.9-2.1l-3.1-3.2l-4.9-3l-3.8-3.8l-4.2-1l-4.1-5.2l-2.1-0.8l-4-3.8l-6-1.7l-4.6-3l-4.4-4l-2.9-3.3
	l-4.3-0.7l-3.3-4.7l-3.9-0.6l-5.7-3.9l-3.4-2.6l-4.3-3.5l-8.5-4.9l-5-2.4l-3.6-0.5l-6.5-4.5l-2.4-0.4l-6.6-4.4l-3.2-1.3l-4.5-1.3
	l-5.7-2.5l-3.5-2.3l-5.7-2.4l-3.3-3.9l-4.1-0.3l-5-2.3l-4.3-3.1l-4.6-1.2l-4.5-4l-5.1-1l-4.9-2.2l-3.3-2.9l-5-1.7l-9-2.8l-4.6-2.9
	l-2.3-0.7l-7.2-0.8l-2.8-3.1l-5.1-1.5l-4.7-0.8l-6.2-2l-7.5-5.5l-8.8-3.3l-6.1,0.3l-4.9-3.9l-5.3-0.7l-4-0.8l-5.7-2.8l-4.9-0.8
	l-4-2.8l-4.7-1.7l-3.5-2.5l-4.8,0.3l-5-4.1l-11.4-3.4l-3.8-1.7l-4.8-1.8l-3.6-1.7l-4.8-0.8l-5.8-2.8l-5.8-0.7l-4-1.8l-5.8-1.8
	l-4-1.9l-6-2.8l-2.6-1.8l-6.3-1.6l-5.2,0.2l-3.4-2.2l-9.3-5.4l-7.1,0.1l-4.3-3.2l-3.7-1.8l-6.7-1.8l-4.5-1.1l-3.9-4l-4.5-0.9
	l-6.2-2.1l-9.6-5.1l-4.5-2.1l-3-2.1l-3.6-2.1l-3.3-6.5l-3.2-4.3l0.7-6.8l1-2.7l-1-6.6l0.3-3.9l-0.6-4.2l2.5-5.8l-1.4-5.9l2.8-5.1
	l-0.1-4.6l0.9-3.2l2-4.7l1-6.7l1.2-3.9l1.2-5.5l0.3-2.7l2.4-11.6l1.8-3l1.8-5.9l3.4-4.5l-0.3-4.9l3.6-4.8l-0.2-3.5l1.8-5.4l3.7-6.9
	l1.7-3.6l1.7-5.7l1.7-4.9l1.8-4.8l2-4.9l1.6-2.4v-4.6l3.2-4.9l2-5.3l1.4-4.9l3.6-3.6l3.3-5l2.7-5.3l1.8-2l2.1-5l3.5-3.1l4.2-3.3
	l2.4-4.3l4.1-4.4l4.5-3.3l6-0.7l2-2l6.1-4.7l4.6,0.1l3.4-2.4l10.5-4.6l3.6-2l4.8-2l7.1-1.9h2.4l5.5-2.7l4.5-0.8l5.4-3.8l3.8-2
	l4.9-1.9l5.8-0.9l3.5-0.9l5.2-1.5l2.6-2.8l5-2.1l7-2.9l3.5,0.1l4.1-2.5l4.2-3.2l5.9,0.3l3.3-1.8l6.7-2.8l3.9-1.9l3.7-0.7l5.8-3.8
	l6-1l9.3-3.4l4.1-2.8l4.2-1l4.9-1.7l7-1.8l3.7-1.6l5.5-2.8l3.4,0.7l6-3l6.1-4.7l-2.9-0.7l-1.2,1.7l-5.1,3.5l-5.2-0.7l-5.2,1.4
	l-4.9,2.6l-5.9,0.6l-4.2,1.4l-2.7,2.8l-7.1,1.7l-3.8,1.7l-3.7,0.7l-5.7,2.8l-3.6,0.6l-5.7,3.8l-4,0.9l-6.6,1.8l-3.5,0.6l-9.6,5.8
	l-5.6-0.2l-2.4,1.6l-4.8,1.9l-9.4,4.6l-7.2,3l-4.6-0.1l-9.1,5.5l-4.1,2l-4.8,0.9l-3.5,1.7l-5.3,3.2l-6.8-0.1l-2.4,1.5l-7,4l-5.3,2
	l-2.4-0.4l-10,3.7l-3.5,0.8l-5.4,2.9l-4.3,2.2l-3.2,2.3l-5.6,3.8l-2.8,0.9l-4.9,4.9l-2.7,1.1l-3.5,4.4l-4.2,2.5l-3.3,5.8l-2.9,1.7
	l-1.8,5.5l-2.2,3.6l-4.6,3.2l-2.1,3.8l-2.3,6.2l-1.3,3.4l-1.2,3.6l-3.8,6.3v2.5l-4.1,7.1l-1.5,3.1l0.2,3.4l-1.8,6.3l-3.6,5.6
	l-0.5,3.3l-0.6,4.1l-2.6,4.8l-1.4,5.4l-0.6,4l-2.5,4.7l-0.5,4.6l-1.7,5l-2.6,4.8l-3.9,8.7l0.6,6.6l-1.3,5.2l-2.1,5l-1.9,4.4l0.2,3.7
	l-0.8,3.8l0.3,6.2l-2.8,5l-0.5,4.5l-0.5,4.7l0.7,4.9l-0.3,5.3l-1,5.5l0.9,3l-0.8,6l1.5,5.5l0.9,2.6l3.4,9.1l5.4,1.5l4.8,2.6l2.5,2.2
	l5.1,2.9l3.4,1l5.8,2l3.6,1.9l6.7,2l2.9,1.9l4.2,1.7l6.7,1.7l3.5,2.7l3.4-0.2l5.1,1.9l6.6,2.7l2.9,0.8l4.6,3.6l4.4,0.7l5.7,2.7
	l5.7,0.7l3.7,1.7l4.9,0.8l3.8,2.7l9.3,3.3l4.5,1.6l4.6,1.6l4.8,1.7l5.8,1.8l3.8,1.7l4.6,1.6l5.8,1.8l4.9,2.7l3.1,0.6l4.7,0.7
	l7.3,2.9l2.6,1.8l10.1,3.4l5,1l4,2.9l4.4,1.6l6.9,1.9l4.7,2.8l4.9,0.9l3.6,2.6h5.4l5.5,2.1l2.7,2.7l6.1,1.7l5,1l2.9,1.9l5.6,1.8
	l6,4.1l2.3,0.7l4.5,1.8l5.7,1.9l3.3,1.9l4.7,1l5.9,2l5.6,3l2.6,1.1l5.2,3.8h4.6l5.7,4.4l3.4,1.1l3.3,2.1l5.7,1.2l4.5,4.4l4.8,2
	l2.3,0.2l7.3,2.7l2.4,3.5l4.8,3.2l3.1,1.2l5.3,1.6l4.4,3.7l5.5,1.6l3.3,4.9l5,2.5l3,2.5l5,0.8l4.8,3.1l3.1,3.8l5.1,2.9l3.3,4
	l2.6,1.5l3.9,2l8.5,6.1l9.3,6.3l2.9,3.7l4.7,2l8.1,8.4l5.4,2.2l4.8,4.7l-4.9,9.2l-0.6,6.6l-2.8,4.8l-1.1,2.5l-3.3,4.2l-1.4,3.8
	l-2.1,5.4l-4.1,4l-3.3,4.9l-4.2,2.7l-2.4,4.8l-3.8,1.7l-3.2,3.5l-4.3,3.3l-2.3,5.5l-2.5,2.8l-3.4,4.6l-3.7,3.9l-4.9,2.5l-1.2,3.5
	l-8.9,7.6l-2.2,2.5l-4.4,5.4l-1.7,2.8l-5,2.6l-4.4,3.3l-3.2,2.9l-1.8,5.4l-5.2,3.5l-3.1,3.3l-5.9,2.1l-3.7,4.1l-2,1.1l-4.9,5
	l-3.4,2.2l-4.7,1.9l-3.1,3.9l-6.1,1.9l-1.8,2.5l-5.5,5.1l-3.3,1.9l-6.1,3.7l-3.3,2.9l-4.4,1.8l-5,2.6l-3.2,2.7l-3.4,1.7l-4.2,2.6
	l-6.5,4.7l-2.4,0.6l-5,3.5l-4.5,2.6l-3.5,1.6l-6.1,2.5l-3.2,2.4l-5.5,3.5l-6.5,3.7l-4.5,4.5l-4.7,1.5l-5.1,2.2l-3.5,2.2l-6.7,2.4
	l-4.1,1l-4.2,4.1l-5.2,2.5l-3.9,0.2l-3.5,4.2l-5.5,0.1l-2.2,2.7l-4.8,2.4l-4.7,3.2l-6.2,1.1l-2.4,2.9l-5,2.4l-5.4,1.1l-4.5,3.1
	l-5.5,1l-2.2,2.1l-6,3.3l-5.4,1.1l-4.6,3.3l-4.4,0.1l-4.2,3.7l-7.4,4.5l-4.6,1.2l-5.4,3.1l-3.6,1.2l-6.8,3.2l-3.2,0.3l-4.5,4.2
	l-3.8,0.1l-5.3,3.2l-5,1.1l-2.6,4.5l-6.6,0.3l-2.3,3l-4.9,1.4l-5.5,3.3l-5.2,1.4l-2.3,2.1l-6.7,3.6l-4.2,2.3l-4.7,3.7l-3,0.5
	l-3.4,4.6l-6.3,0.6l-1.7,2.1l-8.4,7.6l-5.1,2.9l-4.2,2.5l-1.5,2.7l-6.8,5.9l-1.5,3.1l-2.1,2.2L1178.2,1842.7z"/>
</svg>
