<?xml version="1.0" encoding="utf-8"?>
<!-- Generator: Adobe Illustrator 23.0.1, SVG Export Plug-In . SVG Version: 6.00 Build 0)  -->
<svg version="1.1" id="Ebene_1" xmlns="http://www.w3.org/2000/svg" xmlns:xlink="http://www.w3.org/1999/xlink" x="0px" y="0px"
	 viewBox="0 0 2834.6 2834.6" style="enable-background:new 0 0 2834.6 2834.6;" xml:space="preserve">
<path d="M1098.7,1064.4c-3.2-5.2-10.2-11.6-3.9-13.6c3.1-1,5.5,1.1,7.6,3.2c5.2,8.3,10.4,17.7,14.6,27.1
	c35,78.3,99.5,250.1,118.9,290.3c24.5,50.7,85,171.3,115.1,233.9c14.6,30.4,30.5,64,43.8,95.5c10.1-16.4,31.1-46.7,37.2-57.9
	c28.2-51.7,55.4-105.5,82.5-158.8c2.7-5.3,129.3-302.4,124-289.2c-0.6,1.5,87.5-176.8,87.7-177.5c4.1-12.5,7.3-14.8,16.2-18.8
	c-2.1,7.3-4.1,11.5-6.2,16.7c-23.3,57.6-56.5,108.6-81.5,164c-22.3,49.4-80.7,190.3-105.3,248.5c-33.9,80.1-79.1,160.9-122,238
	c-5.9,10.6-20.8,36.3-27.2,44.8c14.4,32.6,30.9,67.7,45.7,100.4c1.9,4.2,6.2,8.3,6.2,13.5c-1.1,3.2,0.8,7.3-2.3,11.5
	c-4.2-3.1-3.3-6.3-5.4-9.4c-2.8-4.1-70.7-153.1-70.9-153.5c-28.2-60.5-55.5-119-86.8-179.6c-50.9-98.6-54.5-107.2-117-258.9
	c-16.4-39.8-31.4-79.4-46.9-119C1121.2,1111.5,1098.7,1062.4,1098.7,1064.4z M1101,1067.4l-4.3-7.1l-2-4.1l3.6-2l5.4,4.7l0.6,4.1
	l3.6,5.8l2.5,4.7l3.2,3.4l3,10.7l1.2,4.9l3.8,4.6l1,4.7l3,2.6l1.8,6l1,4.7l2.1,5l1.9,2.5l1.8,6.4l1.9,3.6l0.9,4.7l2.9,4.6l0.8,5.4
	l2.2,5.2l3.6,3.5l0.9,5.5l2.7,3.5l0.1,4.4l2.9,6.1l1.8,3.6l1.8,5.3l0.9,4.8l1.9,3.8l2.1,6.2l3.8,2.6l1.6,5.9l1,4.9l2.7,4.5l-0.1,2.5
	l3.1,7.3l1.8,2.6l1.7,6.4l0.9,2.8l1.9,4.8l4.7,9.3l1.8,5.5l0.9,3.8l1.9,4.7l2,7.3l3.8,2.7l0.8,5.1l2.9,5.8l0.8,4.4l1.1,5.2l2.7,3.7
	l1,5.9l4.1,3.9l1.6,3.1l0.9,5.6l2,5.9l2,5l1.9,2.5l0.8,4.5l2.9,5.5l1,5.7l2.1,3l3.7,5.2l1.9,4.2l1.7,3.1l1.7,5.6l2.1,8.4l3.3,4.9
	l2.1,2.2l1,4.2l4.6,9.3l4.2,5.5l2.1,4.3l2.2,5.5l2.4,4.8l2.2,2.5l2,4.1l1.2,4.2l1.3,6l3.5,3.8l2.8,3.9l0.2,5.7l3.5,3.6l1.2,4.4
	l4,6.3l0.3,4.4l2.5,5.1l4.2,4.4l1,3l1.4,5.8l3.3,4.8l2.3,3.6l2.9,3.1l0.2,6.5l2.5,2.8l2.3,5.5l4.2,4.6l2.1,4.1l1.1,3.4l2.3,6.5
	l1.3,3.7l2.4,4.9l4,4.3l1.1,5l1.4,5.3l3.2,2.4l1.2,6.1l2.5,5.3l4,2.3l1.2,5l2.3,3.8l3.1,5.3l1.3,4.6l3,3.5l1.2,5.3l2.2,3.6l3.3,8.9
	l3.1,4.4l1.1,4.5l3.2,5.5l1.2,3.6l3.3,5.8l3.1,3.5l1.9,4.1l1,5.3l1.3,5.9l3.2,4.7l2.2,4.8l2.7,2.3l0.1,6.4l3.3,3.8l2,4.5l2,3.5
	l2,5.5l2.9,5.3l-0.2,6.4l6,2.8l7-7.5l1.6-6.1l3.7-2.1l1.9-5.8l1.5-4.5l3.5-2.1l3.8-6.2l3.1-2.3l0.8-4.4l4.4-5l1.9-3.5l1.5-4.1
	l4.6-8.2l2.3-4.2l3.5-4.6l1.4-5.6l2.2-5.1l2.2-3.1l4.3-5.3l2.6-2.7l1.5-5.9l2.2-5.2l2.2-4.1l2.3-3.5l1.1-5.1l4.7-3.6l0.2-4.9l2-3.7
	l4.5-3.5l1.4-4.9l3.2-6.2l1.3-2.5l2.2-6.4l4.4-6.6l3.6-4.8l0.2-4.3l4-4.3l2.3-6.4l2.5-2.6l0.3-6.2l3.1-2.4l1.3-6.6l4-4.3l2.7-7.1
	l3.3-6.5l4.1-8.8l3-4.6l1.2-4l0.9-3.3l3-4.7l1-5.3l3.9-3.6l1.1-6.2l0.9-4.3l1.8-3.2l4-5.7l2.1-4.9l1-4.7l1.9-5.4l1.7-4.2l3.2-2.6
	l1.1-6.3l0.8-3.9l4.1-3.7l0.9-6.9l2.9-4.4l1-3.7l3-5.9l0.1-3.4l3.8-5.4l1.1-5l0.8-2.9l4.2-3.8l-0.1-5l3.6-6l2.1-2.8l2.1-5.9l1-3.6
	l2.9-6.4l2-3.8l1.1-4.8l1.9-5.6l0.9-3.1l4.2-3.9v-6.8l3.6-4.3l2.2-4.1l1.1-4.8l1.9-5.5l2-3.5l3-4.8l2.1-4l2.2-6.2l0.1-3.8l2.7-6.2
	l3.3-3l1.2-5.4l3.1-6.8l2.3-5.4l0.2-2.7l3.9-4.9l2.4-6.6l1.2-5.2l1.1-3.7l3.1-5.9l0.7-4.1l3.3-3.9l1.4-4.7l2.2-3.5l1.3-5.2l3.9-4.2
	l2.6-4l0.2-5.3l2.8-3l3.4-4.9l1.2-5.4l2.1-3.3l2.4-4.7l1-4.2l4.1-4.3l2.4-5.7l2.3-4.7l0.2-3.1l3.9-4.3l1.3-3.5l3.4-4.7l0.2-6.4
	l6.4-8.9l0.2-4.3l2.8-3.1l3.3-4.6l2.5-4l0.2-4.6l2.8-5.8l3.7-2.7l0.3-6.9l1.9-2.1l6.8-9.8l1.5-6.1l1.2-5.4l3.2-4.5l2.5-4.1l1.4-4.8
	l1.9-4.9l2.9-7.1l2-4.1l4.8-2.7l2-1.8l0.1,1.8l-1.1,1.8l-1.6,2.3l-1.7,8.8l-1.9,4.4l-1.9,5.5l-3,5.4l-2,4.6l-2.1,4.4l-2,3.4
	l-2.2,3.5l-3.3,5.9l-0.2,3.4l-2.9,4.8l-3.6,3.8l-0.3,4.5l-4,5.2l-1.5,3.6l-2.3,5.4l-1.1,4.1l-3.2,3.2l-3.5,6.5l-2.3,3.3l-2.5,4.6
	l-1.4,3.6l-1.2,6l-3.3,3.3l-1.3,5.2l-3.3,2.4l-1.4,4.8l-2.3,4.3l-2.1,5.3l-3.2,4.3l-3.4,5.5l-1.2,2.7l-2.2,6.4l-1.1,2.4l-3.1,6.4
	l-2.1,3.5l-4.1,9l-2,3.5l-2,4.5l-3,4.6l-2.1,5.9l-1,5.6l-2,4.5l-0.9,4.5l-1.7,3.1l-4.2,3.7l-1,5.1l-2.9,6.4l-2.1,5v3.1l-4,3.6
	l0.1,6.8l-4,4.6v2.8l-3.7,6.4l-1.1,3.9l-0.8,5.4l-2.9,4.5l-1.1,3.8l-1.8,4.4l-1.9,3.5l-3.1,5.8l-0.9,3.6l-2.9,4.7l-0.9,4.6l-4,5.6
	l-1,5.8l-1.9,3.4l-1.8,5.3l-3,2.7l-2,6.9l-1.9,2.6l-2.1,6.2v3.2l-3.9,4.6l-1,7.1l-0.7,4.2l-3.1,3.6l-0.9,5.5l-3,2.6l-0.9,5.8
	l-4.1,4.8l0.1,5l-1.8,5.2l-1.9,3.6l-1.9,5.5l-2.7,4.1l-3.4,2.9l0.2,6.9l-3.5,6.4l-4.1,5.7l-2.1,5.8l-0.9,3.5l-2,4.3l-3,5.5l-2.2,5
	v2.5l-1.9,3.9l-4.1,5.5l-2.3,4.7l-2.1,5.6l-1.1,3.3l-2.1,3.4l-2.2,5.4l-3.2,4.6l-1.3,5.6l-1,2l-4.3,5.7l-1.4,5.7l-1,3l-4.5,5.6
	l-0.3,4.5l-2,3.1l-2.2,4.3l-4.6,5.7l-0.2,3.5l-2.9,4.7l-3.3,2.5l-2.8,4.9l-1.3,6.4l-2.3,4.3l-1.2,4.1l-2.3,2.2l-3.5,6.7l-1.4,3.4
	l-2.2,5.1l-2.3,2.2l-3.5,5.6l-2.5,4.5l-1.2,4.1l-3.3,3.2l-3.7,6.7l-1.3,3.3l-2.3,4.2l-2.4,3.3l-3.6,6.7l-0.4,2.3l-3.3,5l-2.2,4.2
	l-3.8,3.6l-0.4,6.2l-4.2,3.2l-3,9.2l-3.5,5.2l-2.7,3.9l-1.7,5.5l-3.4,4l-2.9,2.8l-1.9,4.7l-3.8,5.5l-6,8.1l2.1,7.1l1.2,4.3l4.2,5.9
	l1.7,2.1v5.5l4.4,5.9l0.9,2.2l1.2,4.8l4.1,5.5l1.1,5.6l2.1,2.7l2.1,6.6l2.8,3.3l0.1,3.4l4.1,6.6l0.2,2.4l2.1,4.8l2.3,6.8l2.1,2.6
	l2,5.4l2.2,3.8l6.3,8.6l0.4,3.8l1.6,11l-2,0.4l-4.6-9l-2-4.3l-1.1-4.4l-1.3-3.9l-3.2-4.6l-2.8-4.8v-4.9l-3.4-3.7l-1.9-6.1l-1.2-5.3
	l-3.2-2.5l-2.9-5.1l-1.1-3.3l-2-6.9l-2.2-2.6l-2.9-5.7v-5.3l-3.5-2.8l-2.9-5l-1-4.2l-1-4.9l-4.5-5l-0.8-3l-1-4.7l-4.4-6l-1.9-5.1
	l-0.2-3.1l-3.3-5l-2.2-5.6l-3.2-5.7l-0.1-4l-3.5-5.2l-2.9-5.2l-3.1-5.5l-1-4.4l-1.2-3.8l-3.1-5.4l-1.1-4.5l-2.1-4.6l-2.4-5.9
	l-3.9-3.5l-1-3l-2.3-5.9l-2.1-3.5l-3.1-5.4l-1.1-3.4l-3-6.1l-0.1-2.5l-2.3-7l-2.3-3.7l-3.8-5.1l-0.2-3.4l-3.4-6.1l-2.1-2.3l-2.1-5.4
	l-3.1-5.1v-4.8l-4.5-4.7l-1.1-3.3l-3.4-5.8l-0.8-2.1l-1.2-5.4l-4.4-5.6l-1.2-4.4l-2.3-3.6l-2.1-5.3l-1.4-3.7l-3.3-3.6l-3-5.8
	l-0.2-4.8l-2.6-2.8l-3.1-5.2l-3.8-9l-4.4-4.7l-1.1-3.2l-3.1-5.1l-1.3-4.4l-1.5-4.8l-4-4.3l-0.3-5.8l-4.2-2.4l-0.3-3.8l-3.3-5.7
	l-2.2-5.3l-1.2-2.4l-2.3-5.6l-4.2-4.4l-1.9-3.9l-1-4.2l-1.3-5.6l-2.2-3.8l-3.8-4.9l-0.1-2.4l-4.2-6.7l-1-2.1l-1.1-6.6l-3.1-4.7
	l-0.9-2.4l-2.1-5.7l-3-4.5l-1.1-3.6l-3.7-5.5l-0.1-3.4l-2.1-5l-2-5.7l-2-3.8l-1.9-4.5l-2.2-7.2l-3.1-2.8l-1.6-3.9l-1.9-6.5l-1.1-5.5
	l-3.1-2.7l-2.7-5.7v-3.9l-2.9-5.9l-1-3.7l-3.9-5.6l-0.9-4.6l-2.7-4.5v-2.3l-2.1-7.3l-4.8-7.1l-1.8-4.4l-3.1-7.1l-0.6-2.2l-0.9-5.5
	l-5.1-8.7l-1.5-4.1l-1-5.4l-3.1-6.2l-2.6-3.3l-0.7-5.1l-0.9-3.9l-2.9-5.7l-0.7-2.4l-3.8-11.7l-2.6-2.4l-0.8-6.6l-3.7-3.4l0.2-3
	l-2-7.4l-3-3.7l-1.5-3.2l-2.7-5.5l-3.6-9.1l-0.8-3.7l-1.6-4.4l-0.8-5.6l-3.1-5l-3.7-8l-2.1-6.9l-3.3-3.7l-0.9-4.2l-1.2-4.9l-2.4-6.4
	l-3.2-2.7l-3.1-6.2l-1.4-3.1L1101,1067.4z"/>
</svg>
