<?xml version="1.0" encoding="utf-8"?>
<!-- Generator: Adobe Illustrator 23.0.1, SVG Export Plug-In . SVG Version: 6.00 Build 0)  -->
<svg version="1.1" id="Ebene_1" xmlns="http://www.w3.org/2000/svg" xmlns:xlink="http://www.w3.org/1999/xlink" x="0px" y="0px"
	 viewBox="0 0 2834.6 2834.6" style="enable-background:new 0 0 2834.6 2834.6;" xml:space="preserve">
<path d="M1418.1,1372c3.5,9.8,8.8,22.4,15.5,37.4c-73.8,111.2-153.3,222.4-219.2,323.3c-11.7-91.5-47.6-161.1-59.2-200.5
	c-12-40.6-69.4-354.8-95.5-420.1l-13.1-9.8c16.7,41.8,52.3,201.1,74.7,310.3c12.1,59.1,21.9,107.3,26.2,121.8
	c3.3,11.1,8.5,24.6,14.4,40.1c16.1,42.4,38.5,100.3,45.8,170.1l10.3,1.8c36.4-56,74.2-115.4,116.1-176.3
	c34.4-50,69.4-101,103.4-152.1c24.1,53.1,62.8,130.5,101.4,207.8c27.2,54.5,54.4,113.9,76.4,159.6l172.7-736.2l-14.1,16.3
	l-161.3,691.1c-54.3-111.6-132.2-262.7-169.9-346.5c14.2-21.4,28.2-42.9,41.8-64.2l-15.9,9.2c-8.4,13-21.2,33.3-29.8,46.4
	c-4.1-9.4-7.6-17.8-10.4-24.9L1418.1,1372z"/>
</svg>
