<?xml version="1.0" encoding="utf-8"?>
<!-- Generator: Adobe Illustrator 23.0.1, SVG Export Plug-In . SVG Version: 6.00 Build 0)  -->
<svg version="1.1" id="Ebene_1" xmlns="http://www.w3.org/2000/svg" xmlns:xlink="http://www.w3.org/1999/xlink" x="0px" y="0px"
	 viewBox="0 0 2834.6 2834.6" style="enable-background:new 0 0 2834.6 2834.6;" xml:space="preserve">
<path d="M1377,1457c-22.5,22.4-36.7,37.5-57.1,61.3c-44.9,62.8-84.2,122.6-131.2,183.1c-2.5,3.2-94.6,130.1-99.4,136.6
	c-2.4,2.1-4.9,5.4-8.2,6.3c-0.9-4.5-0.8-7.9-0.6-11.2c18.4-29.5,85.9-113.7,111.5-150.6c38.6-52,77.5-108.5,113.9-159.5
	c20.4-24.8,36.3-46.5,59.9-67.7c5.9-5.3,8.5-11.9-3.1-23.8c-25.2-35.1-50.7-69.2-78-103.2c-28.7-34.1-64.2-62.9-95.2-93.8
	c-17.1-16.6-34.3-33.3-50.2-49.8c-6.5-7.1-9.6-10.8-9.2-20.8c6.7,2.6,11.1,5.1,14.1,10.9c17.9,24.5,39.6,43.8,62.1,64
	c28,25.2,73.8,70.2,86.5,85.4c25.3,31.9,53.7,69.3,74.9,96.2c12.6,17.6,14.7,21.1,27.9,3.8c4.8-6.4,52.3-76,81.6-117.2
	c38.7-52.1,79.8-129.6,119.8-183.9c17.2-27.2,38.5-45.2,64.2-65.2c24.6-17.9,76.2-58,86.7-66.4c1.3-1.1,4.6-2,5.7,0.3
	c1.1,1.1,0.9,4.5-0.4,5.6c-6.9,5.3-47.8,34.6-82.1,64.3c-61.9,44-68.6,68.5-145.9,189.4c-30.5,44.4-122,179.1-137.7,199.7
	c-3.7,6.5,67.8,99.2,110.6,163.2c58.7,93.4,62.5,99,92.4,148.9c3.1,7,7.2,12.9,0.4,14.8c-2.3,1-5.5-3.8-6.5-6
	c-36.2-59.3-68.3-116.1-87.2-141.9C1489.1,1612.5,1405.4,1496.7,1377,1457z"/>
</svg>
