<?xml version="1.0" encoding="utf-8"?>
<!-- Generator: Adobe Illustrator 23.0.1, SVG Export Plug-In . SVG Version: 6.00 Build 0)  -->
<svg version="1.1" id="Ebene_1" xmlns="http://www.w3.org/2000/svg" xmlns:xlink="http://www.w3.org/1999/xlink" x="0px" y="0px"
	 viewBox="0 0 2834.6 2834.6" style="enable-background:new 0 0 2834.6 2834.6;" xml:space="preserve">
<path d="M1295.4,1727.9c6.6,0.5,98.5,3.7,229.1,6c23.9,0.2,104.8-0.7,127.9,1.5c17.2,2.4,34.2,5.9,51.4,11.3
	c1.5-0.1,3.1,1.8,4.8,3.8c-2.3,2.1-4.6,3.2-7.7,3.3c-7.7-0.8-15.6-4.5-23.3-6.2c-29.7-10-117.4-6.9-147.4-5.9
	c-18.5,0.3-204.9-4.9-227.3-5.1c-11.1,0.1-16.2,1.2-24.2,18.9c-3.7,8.1-7.1,15.3-12.2,23.4c-0.8,1.1-3,1.1-3.8,0.2
	c-1.5-1-0.1-5-0.1-7c3.8-10.6,13.1-29.1,14.5-32.6c-6.5,0.3-15.7,0.6-21.1-0.2c-2.3-0.9-5.4-0.8-5.5-1.8c0.7-4.1,2.1-6.1,4.5-6.2
	c6-2.2,12.2-1.4,18.4-1.6c7,0.7,16.3-5.6,20.6-12.8c11.8-16.4,35.3-49.2,47.8-67.7c51.6-73.7,81.3-117.4,118.9-184.2
	c33.1-64.2,64-121.3,102.9-179.7c20-30,64.1-106,99.3-160.6c1.5-3,14.1-20.3,17-25.4c-55.7,4.2-169,11.5-220.9,19.5
	c-53.6,8.9-108.2,12.8-163,12.7c-18.5-0.2-157.2-14.5-169.6-18.1c-1.5-0.9-5.3-0.8-5.4-1.8c0.7-3,2.2-5.1,4.4-7.1
	c1.5-2.1,5.5,0.8,7.8,1.7c117.4,12.2,188.9,20.4,271.8,11.5c86.8-11,199.9-24,264.5-26.2c9.1-1.4,16-2.6,21.1-11.8
	c4.4-8.1,9.5-15.3,14.6-22.5c2.3-2.1,5.4-1.2,8.4-2.3c0.1,4-4.4,8.2-5.7,11.2c-3,6.2-8.4,18.3-45.4,73.7
	c-32.3,58-127.7,207.1-142.9,231.1c-21.8,42-43.8,83.4-76.5,140.7C1400.4,1584.3,1295.5,1727.6,1295.4,1727.9z"/>
</svg>
