<?xml version="1.0" encoding="utf-8"?>
<!-- Generator: Adobe Illustrator 23.0.1, SVG Export Plug-In . SVG Version: 6.00 Build 0)  -->
<svg version="1.1" id="Ebene_1" xmlns="http://www.w3.org/2000/svg" xmlns:xlink="http://www.w3.org/1999/xlink" x="0px" y="0px"
	 viewBox="0 0 2834.65 2834.65" style="enable-background:new 0 0 2834.65 2834.65;" xml:space="preserve">
<path d="M1390.78,1228.85c-14,7-21-6-58-1c-8,1-10-8-6-20c5-16,10-22,19-35c6-8,14-9,28,12
	C1388.78,1206.85,1403.78,1221.85,1390.78,1228.85z M1437.78,1414.85c8,1,46,144,46,224c0,87-83,203,61,312c121,91,268,94,336,9
	c93-116,25-166-3-275c-8-31-114-206-92-202c86,16,157-9,152-65c-8-86-174-27-191-105c-22-100-85-226-161-313
	c-108-124-244-221-310-175c-76,53-222,336-230,359c-1,3,5,22-33,17c-91-12-147,15-98,64c10,10,74,49,73,50c-75,75-92,205-47,266
	c37,50,211,78,278,45c68-33,75-169,90-205C1317.78,1398.85,1367.78,1405.85,1437.78,1414.85z"/>
</svg>
