<?xml version="1.0" encoding="utf-8"?>
<!-- Generator: Adobe Illustrator 23.0.1, SVG Export Plug-In . SVG Version: 6.00 Build 0)  -->
<svg version="1.1" id="Ebene_1" xmlns="http://www.w3.org/2000/svg" xmlns:xlink="http://www.w3.org/1999/xlink" x="0px" y="0px"
	 viewBox="0 0 2834.65 2834.65" style="enable-background:new 0 0 2834.65 2834.65;" xml:space="preserve">
<path d="M1538,1381.59l58,13c2,1,21,6,31,8c5,1,9,3,17,1l-12-7l-84-21c-14-2-18-9-23-23c-4-12-8-25-11-37c-2-8-3-15-4-23l-2-11
	c-5-30-10-60-22-87c-19-43-37-88-54-136c-11-31-21-63-29-94c-5-19-9-32-30-45c-1,0-2-1-3-2c-4-2-7-4-7-1s1,4,0,6c-15,30-26,65-36,97
	c-7,22-15,44-23,68c-8,23-18,47-26,71c-13,39-27,79-43,115c-4,9-9,11-20,9l-27-6c-7-2-13-3-19-4c-7-1-14-2-27-1c16,7,25,10,34,10
	c1,0,3,1,5,1l25,6c17,4,19,9,15,19c-4,11-6,22-9,33c-2,7-4,15-6,22l-5,14l-4,10c-4,10-6,19-9,28c-15,44-27,86-27,130v26
	c6-5,8-17,8-20v-14c0-46,12-80,29-127c7-20,18-52,23-73c2-8,4-18,8-28c3-8,8-11,24-8c2,1,16,5,29,9l21,7c21,7,41,11,61,15
	c14,3,28,8,43,11c9,2,18,4,27,6c18,4,37,9,55,15c30,10,39,18,45,34c3,8,5,16,8,24c5,14,10,28,13,42c7,33,36,116,52,166
	c7,22,11,37,12,40c7,21,11,43,16,65l21,87c6,24,14,49,24,73c3,7,4,13,6,20c1,3,2,5,5,5c3-1,1-4,1-8c0-7-3-15-7-24c-3-7-5-13-7-20
	l-7-22c-6-19-11-38-16-57c-4-16-8-31-11-46l-6-29c-5-25-11-48-19-72l-6-17c-8-22-20-59-26-78c-2-6-3-10-4-12c-2-5-6-18-11-36
	C1562,1462.59,1550,1409.59,1538,1381.59z M1372,927.59c10,5,19,24,22,32c3,7,4,14,6,21c3,10,6,20,9,29c15,45,31,90,49,135l18,45
	c12,30,16,58,24,90c1,4,1,8,2,12c3,12,4,24,8,37c3,9,7,25,7,34c0,1-7-2-10-3l-114-29c-25-6-44-8-69-15c-11-3-25-8-38-13
	c-10-4-20-7-29-9c-16-4-18-8-15-16l13-33c6-16,12-32,18-48l30-83l36-105c4-11,6-21,10-32c4-10,7-21,11-31
	C1365,933.59,1368,927.59,1372,927.59z"/>
</svg>
