<?xml version="1.0" encoding="utf-8"?>
<!-- Generator: Adobe Illustrator 23.0.1, SVG Export Plug-In . SVG Version: 6.00 Build 0)  -->
<svg version="1.1" id="Ebene_1" xmlns="http://www.w3.org/2000/svg" xmlns:xlink="http://www.w3.org/1999/xlink" x="0px" y="0px"
	 viewBox="0 0 2834.65 2834.65" style="enable-background:new 0 0 2834.65 2834.65;" xml:space="preserve">
<path d="M1587.82,1317.82l1-3h3l3,1h1l3,1l18,4l11,2l2,1l11,3l9,2h5h1l9,2h12l26,6l23-7l-23-7l-20-7h-11l-6-3l-9-2h-6l-6-3l-6-3h-3
	l-3,1l-9-2h-5l-4-2l-12-4l-6-2l-6-2l-3-2l-3-1l-4-2v-2l-4-2l-3-7l-4-7v-4l-5-4l-1-6l-1-6l-2-4l-3-4l-2-7l-1-3l-2-8l2-5l-4-8v-12
	l-5-5l-1-4l-1-6l-1-5v-3l-4-9l1-2v-5v-3l-5-5l1-7l-5-5v-5l1-3l-5-6v-5l-7-7l-3-6v-4l-5-5l-1-6l-5-4v-3l2-4l-5-7l-3-2l-3-5l-5-5l-1-7
	l-1-2l-4-5l-2-8l-3-7l-2-4h-1l-3-3l-4-9l-1-5l-8-4l2-7l-3-2l-3-6l-1-5l-1-2l-5-11l-1-3v-2l-3-3l-4-8v-6l-4-4l-6-9v-3v-3l-2-7l-3-2
	l-1-7l-1-4l-1-7l-7-4l2-4l-3-2l-1-4l-3-10l-1-7l-3-3v-6l-5-3v-7l-10-4l-2-1l-2-2l-6-7l-15-5l-19-6l-9,9l-4,7l-2,4l-6,7l1,4l-4,6l1,3
	l-5,5v2l-2,8l-4,5l-1,4v1l-4,5l-1,4l-4,10l-2,4l-1,3l-1,3l-3,6v2l-4,9v8l-4,5l-1,7l-3,3l-3,6l1,3l-2,1l-6,10l3,5l-1,1l-5,8l-1,3
	l-7,12v6l-5,5l-2,3l2,3l-4,6l-2,3v6l-6,6l-1,1l-2,4l-3,10l-1,2v3l-4,9v6l-4,5l-3,4v7l-2,4l-3,6l-2,4l1,5l-4,5h-1l-4,7l-4,8l-3,2v5
	l-1,6l-1,3l-2,7l-4,2l-1,5v5l-6,4l-1,6l-1,4l-7,4v1l-3-1v-1h-1l-8-1l-4-1h-6l-16-5l-10,1h-4l-15-4l-7,3l-2,1l-33,1l10,2l10,8h8l5-1
	l3,3l13,1l9,1l4,2h5l9,2l2,1l11,1l2,1l4,5l1,6l1,2l-6,12l1,2v8l-3,2l1,4l-3,5l-3,11l-3,4v2v7l-5,6l-3,6l-2,6l-4,11l-6,8l1,4l-1,5
	l-1,3l-5,12l-3,6v1l-2,8l-1,4l-1,2l-4,6l-2,3l-2,4l-2,7v6v4l-2,4l-1,7v1l-8,9l1,2l1,6l-1,3l-5,5l-2,8l1,3l-1,5l3,7v4l1,4l-1,8l5,3v2
	l3,7l25,12l21-1l18-16l7-11l3-8l-1-7l5-3l-4-5l1-8l1-3l1-5v-6v-2v-6v-3l2-4l-1-4l1-5l1-5l2-7l2-6l1-8l1-3l1-5v-5l-2-2l4-4l1-6l1-4
	v-9l1-4l3-7v-6l5-7v-2l-1-1l2-3l3-4l4-8v-5l1-6l5-4l-1-2l1-9l2-3l1-4l1-3v-6l2-1l2-6v-2l-1-1l-2-4l1,2v-3l2-3l5,2l3-1l8-1l13,3l4,2
	l11,2l2,1l7,7h9l3,1l16,2l2-2l1,2l6,1l4,3l7-1l3,4l12-2l9,3l2,1l10,1l13,3l5,1l2-1l7,2l10,3l5,2h13l1,1l6,1l10,1l5,2l5,2l3,2l22,1
	l7,2l4,1l3,2l9-1l8,4l7,2l3,3l5,1l1,3l3,2l2,2h3l1,2l2,2l3,4l3,8l3,9v3l2,2l-3,9l6,9l1,3l3,3v9l-1,5l3,4l1,3l4,4l-4,11l1,5l2,4l1,5
	v3l2,6v2l3,6l2,4l4,8l-1,5l4,3l2,9l-1,2l2,6l1,3l4,3l2,7l1,6l-1,2l4,4l3,8l3,2l1,7l1,6l1,1v5l7,6l-1,4l4,4l1,10l3,2l1,7l1,4l1,7v4
	l2,6l7,6l2,7l-2,4l5,7v10v3v5v7l7,2l1,8l2,4l1,5v8l-1,2l5,2l5,7l-1,6v7l1,3l1,8l-2,9l5,3l-2,7l5,6v4v5l-2,5l1,2l4,4v11l1,7l2,7l6,8
	l-5,8l3,6l-1,5l1,2l2,2l3,5l1,8l2,3l-1,11h3v7v2l5,6v20l11,23l5,24l33,57l28,56l5-67l-13-36l2-15l-2-9v-7l-6-1v-23l-3-5l6-12l-3-5
	v-4v-10l-3-1l-3-9v-18l-4-6l-2-5l1-14l-5-9v-3l-1-5l-4-4l1-6v-2l-2-4l-4-17l1-6l2-5l-1-6l-1-6l-1-10l-2-2l2-6l-5-9l-8-6l3-9l-4-3
	l-3-6v-3v-4v-6v-2l-2-6l-5-15l-4-7l1-2l-2-1l1-9l-2-2l-10-18l1-4l-2,4l-2-10l-3-4v-6l-1-6l-2-6l-2-7l-2-5l-2-3v-2l-6-6v-4l-2-8l-1-5
	l-7-6l-1-1l-4-10l-1-6l-2-9l-1-3l-4-5l-2-3l-1-4l1-5l-3-6l-1-9v-4l-1-5l-2-4l-5-2l-1-6l-1-7v-6l-1-3l-6-8l3-3l-4-9l-1-2l-2-4l1-6
	l-3-5l-2-6v-3l-3-2l-2-7v-1l-2-3L1587.82,1317.82z M1359.82,895.82l1-2l2,2h-1v3v-1l1,2l-2,4l4,6h1l-1,2l1,9l1,3l1,9l8,7l-1,1l1,5
	l7,6v5l2,6l-1,3l4,7l2,2l1,3l2,7l1,6l1,2l7,5v5l2,4l1,5l3,3l2,6l3,5l1,5l2,6l3,3l5,3l-1,6l4,3l1,6l3,3l2,10l1,4l7,4v5l1,5l4,5l1,6
	l3,2l9,9l3,7l3,5l3,5l2,3v5l3,3l4,8v4l2,3l2,4l1,7l2,3l1,5l8,8l1,4v2l1,8v4l1,11l3,7l3,6l-1,6l2,5l3,7l-1,1l1,4l7,8v9l1,1h2l-2,1
	l2,1v1v1v1h-1l-1-1h-3l-3-3l-10,3l-8-3h-8l-1,1l-6-4l-2,2l-19-3l-13-3h-2l-8-1l-4-1h-3l-4-2l-10-3l-3-1l-8-1l-15-2l-4-2h-4l-5-2
	l-13,1l-4-4h-6l-10-4l-5,2l-5-1l-6-2l-1-1l-11-2l-4-1l-9-3l-3-2h-8l-5-2l-6-2l-12-4l-1-1l-7-1l-6-1l-2-2l-1-3l3-5l2-11l6-4l1-4v-6
	l2-8l2-11l4-2l1-6v-7l6-3l2-2l3-12l2-6l1-10l2-3l-2-3l5-3l2-8v-6l2-3l5-5l1-3l1-5l2-3l2-4l-1-8l6-5v-3l2-5l2-3l3-8l5-8l1-5l1-2l-1-6
	l4-5l2-6l1-1l3-7l2-3v-9l-1-1l6-5l2-8l1-1l-2-9l3-5l2-2l2-8l4-6l1-3l4-8l1-5v-4l1-6l1-5l-2-2l2-2l2-5l2,1l-1-1l1-1h-1h2
	L1359.82,895.82z"/>
</svg>
