<?xml version="1.0" encoding="utf-8"?>
<!-- Generator: Adobe Illustrator 23.0.1, SVG Export Plug-In . SVG Version: 6.00 Build 0)  -->
<svg version="1.1" id="Ebene_1" xmlns="http://www.w3.org/2000/svg" xmlns:xlink="http://www.w3.org/1999/xlink" x="0px" y="0px"
	 viewBox="0 0 2834.65 2834.65" style="enable-background:new 0 0 2834.65 2834.65;" xml:space="preserve">
<path d="M1535.82,1364.32l3-2l4,1h4l3,1l6,1l4,3l16,2h6l5,2l11,3l5,2h5l5,1l8,2l8,1l10,3l3-4l-6-4l-8-4l-6-3l-5-2l-6-1l-7-1l-4-3
	l-3,1h-7h-5l-3-1l-7-7l-4,1l-5,3l-7-3l-5-1l-4-4l-10,4l-6-5l-2-1l-5-5l-1-4l-1-5l-1-8l-3-4l-2-6l2-5l-3-6l1-4l-3-5l1-5l-4-5l-1-7
	l-1-5l-2-11v-4l-2-9l-2-5l-2-4l-1-6v-6l-3-4l-2-5l-1-9l-3-7v-5l-1-4l-1-5l1-2l-4-4l-3-5v-7l-5-6l-5-3l-2-5v-7l1-2l-7-5v-3l-3-6l-1-5
	l-3-4l-2-5v-4l-2-5l-3-4l-3-5l-1-6l-3-5l-2-4l-1-5l1-5l-2-5l-5-4v-6l-2-4l-2-4l-2-4l-3-7l-2-4l-4-9l-2-6l1-2l-5-6v-7v-3l-2-4l-1-6
	l-1-3l-1-6l-3-4l-4-4l-1-6l-1-5l-1-4l-1-6l-3-2v-5l-1-4l-3-12v-6l-3-2l-2-7l-2-4l-2-4l-7-4l-3-4l-3-2l-2-3l-9-4l-9-4l-5,7l-1,5l-2,6
	l-3,3l-1,6l-4,3v4l-4,7l1,2l-3,6l-3,6v3l-1,4l-2,5l-1,3l-3,9l-5,1l1,6l-2,4v5l-5,5l-3,8l2,4l-4,6v7l-3,6l-1,4v4l-4,3l-1,7l1,4l-4,5
	l-3,5l-1,5l-5,11v4l-5,5l1,5l-1,1l-5,7l-2,4v4l-2,6l-2,5l-2,3l-3,6l-1,4l-1,5l-3,8l-1,6l-4,7v3l-1,6l-2,2l-2,5l-2,7l2,5l-3,1l-4,6
	l-1,6l-2,4l-4,2l-2,7l1,6l-2,3l-3,5l-3,5l-2,3l1,5l-4,4l-1,7l-1,4l-4,9l-6,4l-1-1l-3-2h-9h-6l-7-2l-5-3h-12l-8-2l-3-2l-12-1l-5,2h-5
	h-10l2,1l5,2l6,4h4l3,2h8h8l10,2l2,2l6,1l3,2l15,2l3,1l2,2l1,6l3,3l-5,11l-1,3v5l-5,3l2,6l-2,6l-2,9l-2,3v6l-1,6l-7,7v5l-4,8l-3,9
	l-2,9l-1,3l-3,3l-1,6l-2,9l-1,7l-3,5v4l-3,3l-1,6v5l-3,3l-1,4l-1,5l-4,6v4v3l-1,8l-3,4l-2,5l-3,3l-1,8l-3,2l-2,4v8l-2,5v3v7l1,6
	l-2,3l-2,8l2,6l-2,6l5,8l13,4l11-10l4-7l2-7v-8l3-10l-1-2l2-6l-2-7v-3l1-5l-1-6l-2-4l1-3l1-7l-1-4v-5l5-6l-3-4v-7l1-4l1-6l1-3l1-6
	l2-3l1-4l3-7l2-4l1-6l3-5l2-7l2-5l1-6l3-6l2-4v-4l4-7l3-2v-7l5-3l2-4l-2-6l2-4l-1-9l5-6l1-7v-2l1-7l2-3l3-11v-1l7-2l1,2l7-3l8,3l6,2
	l7,1l2,1l9,2l9,3l6,2l5,1l9,2l4,4h5l3,2l10,3l2-1l5,2l7-1l3,4l7-2l4,5l5-2l8,2l6,3l6,1l9,1l7,2h4h5l8,6h5l7,1l5-1l4,2l8,3l7,1h6l3,4
	l6-1l6,3h6l3,3h5l5,3l11,3l4-1l5,4l6,1l6,3l4,2l3,1l5,5l1,4l1,5l5,4l4,8l-2,5l4,2l3,9l2,7l1,8l4,1l2,7l-2,5l2,3l1,7l3,2l3,11l-2,5
	l4,4v5l2,3l1,6v5l5,6l1,2v6l1,6l3,4l1,5l1,5l1,3v6l5,5l2,3v7l2,5l2,3l1,5l4,5v5v4l3,4l2,6l3,6l1,4l1,6l2,5v1l2,7l1,4l3,11l4,5v6l3,3
	v6v4l4,7l2,9l-1,5l5,4l1,5v6l1,4l2,4l1,6l1,5l2,6l1,1l3,7l3,9v7l2,4l-1,4l4,12v3l2,5l1,6l1,5l1,3l3,7v2l-1,6l3,4l1,5l2,6l2,9l1,7
	l3,4l2,5v4l1,5l3,3v6v5l5,5l4,4l-1,6l6,2l-4,7l9,11l-2,5l14,25l20,33l-15-48l-3-10l1-2l-5-7l2-3l-9-10l1-5l-3-5l-3-11l-2-2l-1-5
	l-1-3l-4-10l-1-7l-2-3v-7l-2-2l-4-8v-3l-2-5v-5l-2-3l1-5l-3-11l-1-5l-4-5v-5v-7l-2-3l-3-5v-6l-3-9l-1-5l-1-6l-2-6v-4l-3-10l1-4l-3-5
	l-2-3l2-5l-2-7l-2-4l-2-3v-7l-4-3v-6v-5l-2-2l-2-7l-5-10v-3l-3-5l-1-7v-7l-5-4l1-6l-3-3l-1-6l-3-7l-2-3v-3l-2-6l-2-5l-1-7l-2-3l-3-6
	l-3-3l-3-9v-6l-3-6l-3-5l-1-5l-2-2l-2-6l1-4l-1-6l-3-10l-1-6l-2-3l-1-5l-2-5l-2-6l-2-2l1-7l-1-3l-5-6l3-5l-3-6l-3-5v-3l-1-6l-2-6
	l-1-5v-6l-4-3v-6l-2-4l-2-2L1535.82,1364.32z M1356.82,909.32l3-2l4,5l4,2l1,5l6,6v5l2,2l6,11l-2,5l3,4l4,11l3,3l-1,7l1,5l3,6l2,8
	l2,3l-1,5l4,8l1,2l2,6v5l2,5l3,4l1,5l2,5l1,4l1,5l5,4v5l2,4l3,6v2l3,6l1,4l1,7l1,4l3,3l4,4l1,7l3,3l1,5l2,3l3,11l1,2l6,7l1,4v6l2,3
	l3,6l3,1l1,6l1,11l3,6l1,3l4,5l-1,4l4,2l-1,9l1,4l2,3l2,3v8l1,3l2,4l2,8l1,4l1,4l2,6l-1,2l2,11l3,11l3,6l-2,6l-1,3l3,5l2,5l1,3l4,9
	l2,4v6l1,6v6l4,5l-8-1l-7-2l-3-1l-3-1l-7-1l-3-2l-6-1l-5,1h-5l-5-4l-8-1l-3-3l-4-1l-4,1l-6-1l-7-3h-3l-5-3l-4-1h-4h-8l-5-3l-4,1
	l-5-2l-13-3l-5-1l-1,1l-5-3l-13-3l-4-3l-5,1l-7-1l-3,1l-6-1l-7-1l-3-3l-10-2l-4-1l-8-2h-1l-10-5l-3-1h-5l-10-4l-4-3l-5-2l-6-1l-5-2
	l-11-3l-6,1l-3-4v-3l5-10l2-4l-1-8l3-4l3-6l5-11v-4l4-6l1-7l2-1l2-8l4-8v-7l6-7l1-5v-4l2-5l2-6l2-4l1-4l3-3l3-7v-6l2-2l1-5l2-5l5-6
	l-3-2l4-4l3-5l4-10l1-6l2-6l1-2l1-5l2-6l4-6v-2l2-7v-3l5-5l-2-3l3-5l2-7v-3l1-7l3-4l3-3v-6l5-5l-1-7l4-9l2-2v-6l1-4l1-5l4-5l6-7
	l-2-6l3-3l3-4l-2-6l4-5l2-9l2-5L1356.82,909.32z"/>
</svg>
