<?xml version="1.0" encoding="utf-8"?>
<!-- Generator: Adobe Illustrator 23.0.1, SVG Export Plug-In . SVG Version: 6.00 Build 0)  -->
<svg version="1.1" id="Ebene_1" xmlns="http://www.w3.org/2000/svg" xmlns:xlink="http://www.w3.org/1999/xlink" x="0px" y="0px"
	 viewBox="0 0 2834.65 2834.65" style="enable-background:new 0 0 2834.65 2834.65;" xml:space="preserve">
<path d="M1269.55,1421.32c3,58,10,284,15,314c2,12,8,14,19,9c37-17,77-26,112-48c52-33,113-73,149-123c18-25,51-71,72-111
	c9-17,43-75,44-81s-29-55-45-79c-27-40-94-96-143-129s-67-39-137-69c-28-12-64-29-100-34c-8-1-12,3-12,9c0,5,1,74,7,131
	C1251.55,1219.32,1266.55,1367.32,1269.55,1421.32z M1148.55,1030.32c-13-10,28,7,65,18c14,4,19,6,21-1c2-6,9-3,9,3c0,5,1,10,24,15
	c41,9,80,27,119,44c78,34,80,28,174,105c33,27,62,57,84,87c14,19,44,80,44,82c0,1-25,51-29,57c-32,48-85,132-92,143
	c-28,44-96,87-152,123c-20,13-88,38-118,48c-6,2-10,5-8,16c1,5,4,20,4,28c0,19-3,6-11-20c-5-16-7-19-23-15c-11,3-58,19-58,19
	c-3,0-7,2-10,1c-2-1-1-3,3-5c21-10,31-14,68-24c11-3,16-5,14-16c-1-7-14-307-15-316c-6-51.9-16-188-18-205c-4-31-8-136-8-138
	c0-13-6-16-20-22C1197.55,1049.32,1163.55,1042.32,1148.55,1030.32z"/>
</svg>
