<?xml version="1.0" encoding="utf-8"?>
<!-- Generator: Adobe Illustrator 23.0.1, SVG Export Plug-In . SVG Version: 6.00 Build 0)  -->
<svg version="1.1" id="Ebene_1" xmlns="http://www.w3.org/2000/svg" xmlns:xlink="http://www.w3.org/1999/xlink" x="0px" y="0px"
	 viewBox="0 0 2834.65 2834.65" style="enable-background:new 0 0 2834.65 2834.65;" xml:space="preserve">
<path d="M1205.1,1499.82c-2-18-2-36-1-73c1-54,1-165-2-226c-2-37-9-134-16-174c0-3-2-5-5-8c-6,9-3,10-1,21c4,24,5,43,14,155
	c3,141,1,139,1,318c3,43,5,86,7,130c1,19,6,95,6,109c0,11,2,19,6,18s2-13,2-21l-7-119c-2-36-4-73-5-110c-1-7,7-14,14-19
	c25-18,50-33,75-51c29-21,56-44,85-65c8-6,13-7,20,3c45,77,71,127,94,165c6,10,69,114,68,114c13,19,72,127,88,143c2,2,5,4,9,6
	c0-4-3-16-3-12c0,5-94-153-98-159c-21-31-40-64-58-97c-15-27-68-124-93-164c-8-13-9-17,5-30c47-43,60-58,116-114l108-107
	c7-6,12-10,3-15c-14,15-107,106-125,124c-78,78-80,80-98,98c-5,5-15,12-21,18c-15-14-23-33-34-47c-3-4-4-13-12-10c-6,2,0,8,6,17
	l25,37c5,7,4,14-4,22s-33,26-73,56C1273.1,1453.82,1239.1,1479.82,1205.1,1499.82z"/>
</svg>
