<?xml version="1.0" encoding="utf-8"?>
<!-- Generator: Adobe Illustrator 23.0.1, SVG Export Plug-In . SVG Version: 6.00 Build 0)  -->
<svg version="1.1" id="Ebene_1" xmlns="http://www.w3.org/2000/svg" xmlns:xlink="http://www.w3.org/1999/xlink" x="0px" y="0px"
	 viewBox="0 0 2834.6 2834.6" style="enable-background:new 0 0 2834.6 2834.6;" xml:space="preserve">
<path d="M1233.8,1426.3c-10.6-0.5-33.4,1-43,1c-2.4,0-7.3-1-7.3-2c0-5,4.9-4,8.6-4c14.7,0,28.2-1,41.7-2c9.7-0.7,12-2,13.2-10
	c2.3-15.1-0.3-51.1-3.5-79c-1.6-2.6-2.1-78.5-3.3-108c-0.1-2.5,2.9-81.5,15.8-182c0.5-3.9-0.3-26.3,2.3-35c0.3-1,2.4-2,4.9-3
	c1.2,1,2.4,2,2.4,3c0,17.2,0,34-1.2,50c-13.4,70.5-20.8,192.8-13.3,272c1,10.5,3.9,67.5,3.9,82c0,7,3.3,9,13,9
	c35,0,162.5-39.9,217-57c36-11.3,71.7-42.2,90.6-72c23.3-36.7,54.5-74.5,65.1-112.8c-9.4-21.1-55.8-64.5-80.9-91.2
	c-22.3-23.8-51.4-41-84.5-53c-31.4-11.4-101.2-31.7-132.4-34c-28.2-2.1-71.2-3.7-99.4-6c-3.6-0.3-7.3-0.1-11-1c-1.2-0.3-3.6-2-2.4-3
	c0-2,1.2-3,2.4-4h8.6c30.7,0,76,4,106.7,6c44.1,8,52.9,9.8,98,22c34.1,9.2,77.7,28.4,105.4,51c11.9,12.7,48,49.3,46.9,48
	c-18.1-21.4,50.9,58.8,53,64.9c-5.8,18.9-38.3,78.2-69,119.1c-26.8,43.7-58.8,60.9-113,81c-52.9,19.6-171.1,50-203.5,50
	c-8.6,1-12,2-12,10c0,11.1,2.2,23,4.7,34c5.6,50.1,2.7,168.5,2.7,275c0,8,0.2,17-1,26c-2.7,20-2.7,39,1,59c1.3,7,0,13-5,18
	c-1.1,1.1-2.6,2-3.9,2c-1.1,0-1.4-3-1.4-4c4.9-12-0.2-24-0.2-36s0.1-25,1.5-37c0.8-7,1.1-14,1.1-21c0-30.6,1.3-251-1.1-269
	c-2-14.9-5.1-31-6.2-47C1245.2,1427.8,1244.4,1426.8,1233.8,1426.3z M1238,1426.1l-8.4-0.2l-5.8,0.2l-4.8,0.1l-5.8,0.1l-2.8,0.2
	l-6.8,0.1l-3.8,0.1l-3.8,0.1l-8.6-0.5l-0.3-3.4l8.7-0.4l7.2-0.3l5.3-0.2l4.2-1.2l6.2-0.2l5.2,0.8l4.2-1.3l11.1,0.4l4.5-2.4l2.7-2.6
	l2.2-11.6l-1-4.9v-2.9l-0.1-5l-0.1-5.9l-0.1-5l0.8-3.9l-0.2-6l-1.2-5.9l-0.3-4.9l-0.3-4l-0.3-5.9l-0.4-5l0.6-2.9l-0.5-7l-1.1-8.8
	l-1.3-4.9l-0.2-3.9l-0.1-4.9l-0.2-6.9l-0.1-3.9l-0.1-5.9l-0.1-4.9l-0.1-4.9l-0.1-3.9l-0.2-9.8l-0.1-6l-0.1-4.9l-0.1-4.9l-0.1-4.9
	l-0.1-3.9l0.9-3.9l-0.2-6l-1.1-5.9l-0.1-3.9l1-10.8l-0.8-4l0.3-3.9l0.3-6.9l0.3-3l0.3-6.9l0.3-4.9l0.3-3l0.4-5.9l0.3-3.9l0.4-5.9
	l0.4-4l0.3-4.9l0.4-4.9l0.4-5.9l1.4-5.9l-0.6-4l0.5-3.9l0.4-4.9l0.4-6.9l0.5-3.9l0.4-3.9l0.5-5l1.5-6.9l-0.5-3.9l0.5-3.9l0.5-6.9
	l0.5-3.9l0.5-5.9l1.5-4l0.6-5.9l-0.5-2.9l1.6-5.9l-0.5-4.9l0.6-4.9l1.6-4.9l-0.1-9.9l0.1-4l0.1-5l0.2-6l0.3-5.1l0.4-5l2.1-5.7
	l3.2-1.9l0.3,6.7l-0.3,5l-0.2,6v5v6l0.1,5l0.1,3l0.1,5l-0.1,7l-1.2,8.8l0.2,4.9l-1.9,4.8l-0.7,3.9l-0.8,4.9l0.3,6.9l-0.7,4.9
	l-0.6,4.9l-0.7,3.9l-0.6,3.9l-0.5,6.9l-1.6,5l-0.5,2.9l-0.6,4.9l0.6,5l-1.5,6.9l-0.5,4l0.6,5.9l-0.4,4l-1.4,6l-0.4,4.9l0.7,3
	l-0.4,4.9l-1.3,6l-0.3,5l0.7,4.9l-0.3,5l-0.2,4l-0.2,5l-0.3,6.9l-0.2,3l-0.1,5l-0.2,6l-0.1,4.9l-1.1,5l0.8,6l-1,5l-0.1,4v3.9l1,5
	l-1,7v3l1,5l0.1,5.9l-0.9,5l1.1,4l-0.8,4.9l0.2,5l0.2,6l0.2,4.9l0.3,6l1.3,3.9l0.4,5.9l0.4,4.9l0.9,8l0.4,7.1l0.4,5.1l0.3,5.1
	l-0.8,4.2l0.3,6.1l0.2,5.1l0.3,4.1l1.2,5.2l0.2,6.1l0.2,5.2l0.2,5.2l0.2,4.2l0.1,6.2l0.1,4.2l-0.6,10.2l4.5,3.3l5.6,1.1h8.5l3.9-0.5
	l6.9-0.7l3-0.8l5.9-1.9l3.9,0.1l4.9-2l6.8-1.1l8.8-1.3l5.8-1.1l3.9-2.2l5.8-1.2l3.9-0.3l3.8-1.2l5.8-2.3l5.8-1.3l4.9-1.3l2.8-0.4
	l6.8-2.3l4.8-0.3l4.8-1.4l2.8-1.4l5.8-2.4l3.8-0.4l5.9-1.4l5.8-1.4l2.8-1.4l6.8-2.4l2.8-0.4l4.8-1.5l4.8-1.4l6.8-1.5l4.8-1.5
	l2.8-1.4l6.8-2.5l4.8-1.5l3.8-0.5l5.8-1.4l9.6-3l2.7-1.5l6.8-2.5l4.7-1.4l9.2-3.1l2.6-0.7l4.5-1.9l4.5-2.1l4.4-2.3l6.3-2.3l2.2-2.5
	l5.2-1.6l4-3.8l4.1-2.8l4.9-3l2.9-2l3.7-4.2l3.8-3.2l4.6-3.3l3.5-3.4l3.5-3.5l3.4-4.6l2.2-2.7l4.2-4.7l3.1-3.8l1.9-2.9l4.8-6
	l4.6-6.2l5.9-8.2l2.9-5.1l4-4.1l1.9-5.1l2.9-2.1l3.8-5.2l1.9-4.1l2.8-3.2l3.8-6.2l1.7-2.3l2.7-5.2l2.7-3.3l3.6-6.4l2.5-4.3l1.5-3.4
	l2.4-4.4l2.3-4.5l2.2-3.5l3.1-5.6l2-5.6l2.9-4.7l0.7-4.7l3.2-9.9l-2.5-2l-2.7-5.3l-4-5.1l-4.1-4.1l-1.2-2.9l-4.2-4.9l-3.4-3.9
	l-2.4-2.8l-3.4-3.8l-4.5-4.7l-4.5-4.7l-2.5-3.7l-4.5-3.7l-1.6-2.7l-4.5-3.6l-2.6-2.7l-4.6-4.6l-3.6-3.7l-2.6-3.6l-3.6-3.6l-4.5-3.7
	l-4.6-4.7l-3.5-3.6l-7-8.3l-3.5-2.6l-3.7-3.4l-2.8-3.3l-3.9-3.2l-2.9-2.1l-5.1-3l-3.1-2.9l-5.2-2.8l-2.3-2.6l-6.3-2.6l-4.4-2.5
	l-5.4-2.3l-3.5-4.3l-4.6-1.2l-5.6-2.1l-3.6-1l-5.7-2.9l-5.7-1.8l-7.4-2.5l-5.8-1.7l-5.8-3.6l-4.8-1.6l-8.6-1.1l-4.9-2.5l-4.9-0.5
	l-5.8-2.4l-4.9-1.4l-2.9-1.4l-6.9-2.4l-4.9-0.3l-7.9-1.7l-6-1.2l-3.9-2.2l-7-1.2l-4-1.2l-5-0.1l-6-2.1l-5-2h-3l-5,0.2l-6.9-1.8
	l-5-0.6l-8.7-0.8l-6,0.6l-2.9-1.3l-6,0.7l-4-0.3l-5-0.3l-6.9-0.3l-3-0.2l-5-0.3l-7-0.3l-4-0.3l-5-0.3l-4-0.2l-6-0.3l-3.9-0.3l-7-1.3
	l-4-0.3l-5-0.3l-3.9-0.4l-10.4,0.6l-6.5-1.9l-0.7-2.3l5-2.7l10.3,0.3l3.1,1.3l5.1,1.3l7.1-1.7l4,0.3l4.1,2.3l10.2,0.5l6.1-0.7
	l4.1,0.3l7.1-0.8l4.1,1.3l6.1-0.7l5.1,0.2l3.1,2.3l7.1-1.7l3.1,0.3l6.1,1.3l6-0.7l3.1,0.3l11,1.2l4.1,1.9l6,1l4-0.1l5.9,0.9l5.9,2
	l3.9-0.1l5.8,2h2.8l4.8,2.1l4.8-0.9l5.9,3.1l5.8,0.2l4.9,1.2l3.9,2.3l4.9,0.3l9.8,2.6l4.9,1.3l10.5,3.8l3.7,0.6l3.6,2.6l4.6,0.6
	l4.6,2.7l4.6,0.7l6.6,2.8l3.6,1.8l5.5,1.9l2.5,0.9l4.5,3l6.5,2l4.5,2.1l3.4,2.1l3.4,1.2l4.3,2.3l4.4,2.3l5.2,2.4l4.3,2.5l3.1,2.6
	l4.1,1.7l4,2.8l4,3.9l7.3,5.7l3.6,4.8l5.6,4.7l1.6,1.7l5.7,5.8l2.7,2.7l3.6,3.8l2.8,2.8l4.7,5.8l4.9,3.9l2.9,3l2.9,3.9l6.7,6.1
	l2.3,2.7l4.3,5.7l3.3,2.7l3.3,3.8l2.2,4.8l3.3,1.8l3.2,3.8l3.3,4.9l4.2,3.9l2.2,3.9l4.2,4l3.2,4l4.1,5l3.1,4l2.9,4.1l-1,4.8
	l-2.9,6.4l-2,4.5l-1.1,3.4l-3.1,5.5l-2.2,5.4l-2.3,4.4l-2.3,3.3l-1.3,3.3l-3.4,4.4l-2.4,4.3l-1.5,5.3l-3.4,3.2l-2.5,6.3l-2.5,4.2
	l-2.6,3.2l-2.5,5.2l-2.6,3.2l-3.7,5.2l-1.6,2.2l-2.7,6.1l-1.7,2.1l-2.8,5.1l-2.8,3.1l-2.8,4.1l-3.8,5l-3,4l-6.6,9.3l-1.8,4.3l-3,4.1
	l-2,3.1l-4.2,2.9l-2.3,3.9l-4.4,4.7l-4.5,3.6l-1.7,2.5l-5.7,5.4l-4.9,3.2l-2,2.1l-5.1,2.9l-3.2,2.9l-4.3,1.7l-3.3,2.6l-5.5,3.5
	l-4.5,1.3l-3.5,2.3l-4.6,2.2l-4.6,2.1l-4.7,2.1l-3.7,2l-6.7,1.9l-4.8,1.9l-3.7,1.9l-5.8,1.8l-7.5,3.2l-6.8,1.4l-2.8,1.4l-4.8,1.5
	l-6.8,1.4l-5.8,1.4l-8.6,2.8l-4.8,1.4l-3.8,1.3l-3.9,0.4l-4.8,2.4l-6.8,1.3l-4.9,1.4l-4.8,0.4l-3.9,2.3l-4.8,1.3l-3.9,0.4l-7.8,2.3
	l-4.9,2.3l-1.9,0.3l-5.9,1.3l-5.9,1.3l-2.9,0.3l-4.9,1.2l-11.8,2.5l-3.9,2.2l-4-0.8l-4.9,3.2l-5,0.1l-5.9,2.2l-4,1l-7,1.1l-2.9,1
	l-7,1l-4.9,0.9l-2.9-0.2l-5.9,0.7l-3.7,0.6l-5.5,1.4l-7.9,0.9l-6.2,1.4l-2.6,5.4l0.9,8.4l0.5,4.8l0.6,3.9l-0.4,5.9l1.7,5.9l-0.2,4.8
	l2.5,8.7l0.4,3.9l0.4,4.9l0.3,6.9l0.3,5l0.2,5l0.2,3l0.2,6.9l0.2,4l-0.9,6l1.1,4l-0.9,6l1.1,5l0.1,4v4l0.1,7v4l-0.9,4l1,6v5v4v6
	l-0.9,5.1l0.9,6l-1,3v6l1,5v5v6l-0.1,5v4v4l-1,7l-0.1,3l1,7l-1,5.1l0.9,5l-1,4v5l-0.1,6v3v7l-0.1,3.1v6v4l0.9,6l-1,4v5l1,6.1l-1.1,6
	v4l1,5l-1,4v5.1v10.2l1,7.2l-0.1,3.2l-1.4,6.2l-0.1,11.1l-1.4,2.9l-0.4,6.9l-1.3,5l0.9,2.9l1,5.9l0.1,5l0.3,5.9l0.3,3.9l-0.4,3.9
	l0.7,4.9l1.2,9.8l0.4,4.8l-1.8,5.5l-3.8,3.1l-2.2,0.9l1.2-8.2l0.6-3.1l-1.1-5.2l0.4-6.2l-1.7-6.1l-0.6-5.2l-0.3-8.5l0.1-6.3l0.1-6.3
	l0.2-3.3l0.2-6.3l1.4-4.2l-0.3-11.6l1.4-5.2l0.3-4.2l0.2-12.2v-5l-1-3l1.1-4.9v-5v-6v-6l-1-5v-4l1.1-5.9v-3v-6l-1-5l1-5l-1-6v-3.9
	l0.1-5v-5v-5l1-4l-1-6v-6v-4v-5v-5l1-5l-1-4l0.1-7v-3v-7v-3.1l-0.1-5v-5l1-6.1l-1-4.1v-7l1-3.1l-1-5.1v-7.1l-0.1-5.1v-3.2v-5.1
	l-0.1-7.2v-3.2v-6.2l-0.1-5.2l-0.1-4.3v-5.2l-0.1-5.1l-0.1-5.1l-0.2-7l-0.1-4.6l-0.2-2.2l0.2-10.3l-1.7-5.2l-0.8-4.3l-0.8-4.2
	l-0.8-7.2l-0.8-4.2l-0.7-6.2l-0.6-4.2v-9l-2.3-4.7L1238,1426.1z"/>
</svg>
