<?xml version="1.0" encoding="utf-8"?>
<!-- Generator: Adobe Illustrator 23.0.1, SVG Export Plug-In . SVG Version: 6.00 Build 0)  -->
<svg version="1.1" id="Ebene_1" xmlns="http://www.w3.org/2000/svg" xmlns:xlink="http://www.w3.org/1999/xlink" x="0px" y="0px"
	 viewBox="0 0 2834.6 2834.6" style="enable-background:new 0 0 2834.6 2834.6;" xml:space="preserve">
<path d="M1139.2,1498.5c0,153.1,52,234.8,166.2,260.7h2.3c29.2-7.6,148.6-53.1,159-57.9c5.2-2.4,15.3-5.6,27.5-9.6
	c41.6-13.6,77.1-29.8,81.9-32l10.9-5l101.2,132.9l7.3-4.5l-100.7-132l57.7-27l-3.9-7.1l-59,27.4l-4.3-5.1
	c13.4-35.9,25.8-97.8,25.8-130.8c0-21.2-0.7-42.2-1.4-63.1c-0.7-20.8-1.2-41.4-1.2-61.9c0-16.6-0.9-34.2-1.7-52
	c-0.8-18.3-1.7-36.7-1.7-54.5c0-29.3-3.2-50.9-10.4-68.5c-0.9-2.2-13-11.6-30.1-24.6c-19.6-14.9-42.9-32.7-50-40.3
	c-9.6-10.3-104.9-90.5-123-96.5c-20.4,5-43.2,20.8-62.4,35.4c-23,17.5-26.2,21-55.9,39.4c-19.9,12.3-31.3,19.2-53,29
	c-14.2,6.4-31.1,10.4-52.5,13.6l1.4,7.9c20.4-3,36.5-7.3,50.6-12.6c-3,33-15.7,66.3-28.1,99.3c-5.6,14.9-11.3,29.8-15.9,44.5
	C1156.5,1365.3,1139.2,1432.5,1139.2,1498.5z M1148,1498.5c0-65.1,16.8-131.2,36.2-192.7c15.1-48,42.4-96.7,45.7-147.7
	c27.4-11.9,51.5-25.6,82.2-50.1c18.8-15,54.6-48.2,77.1-53.2c15.9,4.1,109.6,84,118.7,93.9c13.3,14.4,77.4,60,78.5,62.6
	c8,18.9,9.9,41.5,9.9,65.7c0,35.4,3.4,73.3,3.4,106.5c0,41.5,2.6,83,2.6,125c0,31.4-11.2,88.8-23.8,124.2
	c-21.2-20.6-41.4-41.9-61.8-63.3c-20.8-21.9-41.7-43.7-63.2-64.5c-20.1-19.4-39.1-41.5-58.2-63.1c-10.3-11.7-20.5-23.5-30.7-34.7
	l-6.7,5.1c29.1,31.7,58,67.9,89.3,98.1c43.5,41.9,84.1,88.5,128.1,130.9c-0.7,1.7-1.4,3.2-2,4.7c-7.3,18.3-90.9,39.4-110.3,48.3
	c-10.3,4.7-126,48.7-156.6,57C1196.4,1725.8,1148,1647,1148,1498.5z M1141.7,1494.1l-2,10.2v5.4l2.1,4.1l0.1,6l-1.5,3.7l2,4.6
	l0.3,6.4l0.3,4.1l0.4,6.4l-1.5,5.8l1.4,5l-0.4,5.1l0.6,2.9l0.6,6.9l0.7,3l0.8,6l1.7,5.7l2,4l1,5.6l-0.8,3.9l2,6.6l0.1,3.7l2.3,3.7
	l1.5,5.9l1.3,3.6l2.6,4.9l1.7,7.2l0.8,4.1l2.8,3.6l0.8,6.1l1.8,3.8l3.1,4.5l1.3,2.6l3.4,6.7l0.4,2.2l3.4,4.9l1.6,3.1l3.5,3.9
	l4.3,4.4l1.9,5.9l2.7,3.5l2.1,2.7l4.2,3.6l3.2,3.5l4.6,2.6l3.7,5.4l1.4,1.1l3.7,3.1l6.2,3.2l1.8,3.8l5.9,1.8l2.2,3l5,3.5l3.9,3.2
	l3,0.4l5.8,2.4l3.6,2.3l4.2,3l5.5,0.9l5.5,3.7l4.4-0.1l4.2,1.8l3.5,1.5l7.3,1.6l2.5,3.1l4.3-0.6l5,2.3l5.4,0.1l10.5-1.8l6.4-0.3
	l2.5-1.5l6.8-2.7l3.7-1.6l4.9-1.7l5.7-1.6l4.3-1.4l2.8-2.9l6.1-0.7l5.6-2.7l4.6-0.6l3.6-2.9l5.7-0.7l3.9-2.8l5.5,0.2l2.5-2.3
	l5.3-2.1l5.7-0.7l3.3-1.6l5.9-3.8l5.7-1.8l3-1.9l4.9-0.9l6.6-2.8l5-1.9l3.8-0.8l3.9-1.9l5.9-0.9l3.4-1.7l6.7-3.9l2.3-0.8l8.3-2.9
	l3.9-3l6.5,0.4l2.3-2.3l7.2-1.6l7-2l4.9-3.7l6.1-0.7l5.4-1.5l2.8-1.8l6.7-1.7l2.9-1.8l6.2-0.8l2.9-4l5.2,0.2l4.6-2.7l6.5-0.9
	l4.8-4.1l3.7,0.1l3.2-2.6l6.7-3.2l2.9-0.8l8.7-4.2l6.4-3.9l7.8,11.1l3,2l3.4,4.4l3.2,5.3l1.1,3l2.6,4.5l5.5,3.1l1.1,4.5l2.7,3.5
	l5.3,4.2l2.1,6.3l3,3.8l1.9,2.8l5,4l6.4,8.3l2.1,3.1l3,5l4,4.9l3,4l3.2,3.2l2,4.8l3.1,2l2.1,5.1l4.9,4.1l2.3,4.2l4,5l0.9,1.8
	l5.2,4.1l2.2,5.3l2.6,4.2l3.9,0.9l-0.8-4.2l-0.9-3.6l-2.8-4.6l-7-6.9l-4.2-5.1l-3.1-4.1l-1-1.9l-5-5l-3.1-5l-2-1.9l-3.3-4.4
	l-1.9-5.9l-8.3-8l-1-4l-3.6-3.5l-4.5-3.3l-1.1-4.2l-5-5l-1-3.7l-2.7-1.8l-4.4-5.4l-1.9-3.9l-5-4.9l-6.3-8.2l-1.9-3.9l-2.1-2l-3-6
	l-5-4l-2.8-5.1l-1.5-4l7.6-4.9l5.5-2.2l3.4-2.1l15.8-7.3l2.4-0.1l4.9-2.9l4.4-3l4-2.4l4.4-0.1l0.7-3.1l-4.1-1l-3.9,1l-3.8,1.8
	l-2.6,4.1l-5.2,2.4l-6.4,2.1l-3.6,2.1l-4.9,1.2l-5.2,1l-4.5,3.1l-4.5,1.1l-6.9,5.5l-6-2.8l-0.7-9.6l2.9-4l1.3-4.2l0.5-5.8l2.3-5.6
	l-0.6-4.6l1.5-5.8l2.9-2.5l-0.8-6.5l3.3-5l0.1-2.4l1.1-7l1-5.1l2-4.7l-0.1-3.7l0.9-3.9l-0.1-5.9l0.8-4.3l2.8-6.7l-0.4-3.7l0.7-6.2
	l0.6-3l1.5-5.6l-0.6-3.8l0.3-5.1l0.2-4.7l-0.8-12l1.9-4.9l-0.1-4.2l-1-3.6l-1.3-4.4l2.1-6.1l-0.2-3.5l-0.1-5.9l-0.2-3.7l-1-6.5
	l-1.2-3l-0.2-6.3l0.7-10l-0.2-5.2l0.9-5.9l-1.1-2.8l-1.1-6.8l1.7-5.9l-2.1-5.1l1-5.2l-1-3l-0.1-5.6l0.9-7.3l1-8.9l-1.1-4.1l-0.1-6.2
	l-1.3-5.7l2-4.3l-0.2-6.6l-1.2-5.5l0.6-3.1l-2.1-7.1l0.5-8.3l-1.2-6.8l-0.2-4.3l0.8-4.7l-1.3-4l1.8-6.8l-2.1-3.8l0.9-5.3l-1.1-6
	l1-4.2l-0.1-9.7l-0.1-4.8l-1.2-4.2l0.7-5.1l-1.3-5.8l-0.5-5.5l1.4-3.9l-0.6-4.1l-3-5l0.1-6l-2.2-4.5l-1.4-6.1l-0.5-4.2l-5.8-7.6
	l-1.3-1.8l-5.8-3.1l-2.9-3.9l-4.9-2l-1.9-3.3l-3.5-2.6l-10.2-5.1l-2-3.2l-9.4-7.7l-4.1-1l-4.5-4.7l-1.7-3.5l-6.1-1.1l-2-5.4
	l-5.4-2.1l-3.1-3.4l-4.4-4l-6.9-4.9l-2-3.6l-3.5-4.1l-4.8-4.3l-2.7-3.2l-5.7-3.2l-3-2.4l-3.7-4l-4.1-1.3l-3-5.5l-5.5-3l-4.2-3.5
	l-1.8-2.1l-4.7-3.1l-2.9-2.1l-6.1-3.4l-4.1-5.3l-3.7-2.9l-2.1-1.2l-3.9-4.1l-6.1-2l-4.2-5.4l-1.9-0.9l-4.3-3.2l-5-4l-5.3-3.1l-3.3-3
	l-4.1-2.8l-3.4-1.8l-3.7-3l-9.9,0.6l-3.7,0.7l-4.2,0.8l-4.7,4.3l-3.6,0.3l-4.3,4.3l-4.8,1.8l-5.7,2.5l-2.3,3.8l-6.5,2.8l-2.1,3
	l-5.4,3.2l-4,3l-7.4,6.2l-6,2.1l-2.5,1.7l-4.9,5l-4.1,2.1l-3.1,1.5l-2,5l-5.6,2l-4,2.8l-5.2,1.7l-3.4,2.3l-2.3,4.9l-4.7,1.8
	l-8.3,5.2l-5.5,3.7l-4.1,1.5l-3.3,3.8l-6.4,1.5l-2.1,2.1l-5,3.9l-6.4,0.3l-2.3,2l-6.3,2.2l-2.6,3.2l-10.7,3l-5.2,2.4l-3,3l-7.2-0.7
	l-3.3,1.2l-4.8,2.3l-6.4,2.3l-4.8-1l-4.3,1.7l-3.6,1.7l-2.9,2.6l2.7,1.4l4.5-1.6l6.5-1.1l4.6-0.1l4.1-3.1l5.3-0.3l6-2.4l3.8-0.5
	l5.7-3.1l7.6-1.1l-2,11.7l1.2,5.7l-2,6.4l-1,2.9l-2.1,4.7l-1.1,4.6l-1.2,5.6l-0.5,5.1l-2.2,3.6l0.6,5.6l-3,6.4l-2.1,2.3l0.3,6.3
	l-1.9,5.3l-3.3,4.3l0.3,3.4l-2,4.2l-5.4,9l-2.5,11.4l-2.1,5.3l-2.7,3.7l-0.7,4.7l-1.9,5.2l-2.8,6.1l-1.7,2.8l-1.6,5.8l-3,9.6
	l-0.5,3.7l-1.5,5l-2.3,5.4l0.6,4.9l-3.6,6.1l-1.4,4.7l-1.3,2.6l-0.2,5.4l-0.4,6.7l-3.3,2.8l-0.2,5.1l-1.5,6.4l-1.9,2.5l0.9,7.1
	l-3.1,2.8l0.7,4.1l-1.2,6.6l-3.1,4.9l-0.9,3.2l1.2,6.3l-2.9,3.9l0.9,6.4l-0.9,5.3l-0.8,3.1l-1.8,4.6l0.3,5.7l-0.8,6.5l-1.7,3.1
	l-1.4,5.5l-0.6,5.6l0.5,5l-0.4,3.9l0.6,3.9l-0.3,5.1l-0.4,6.4l-2,3.8l0.7,4.3L1141.7,1494.1z M1146.5,1503l-0.9-10.2l1.1-4l-0.9-4.8
	l0.2-4.1l-0.7-6.1l0.4-5.4l1.4-4.2l1.4-5.8l0.5-6l0.6-2.8l-0.4-4.8l-0.3-6.4l1.8-5.2l0.7-6l1.8-5.1l0.8-3.6l-0.1-4.7l-0.1-4.1
	l1.1-7.3l1-4l1.1-6.2l2.8-4.5l-0.8-3.8l2.5-6.7l1.8-2.5l-0.6-4.4l1.3-5.5l3.3-7l1.2-3.2l-0.7-3.8l1.5-7.6l3.1-4.6l-0.4-4.6l1.5-4.4
	l2.4-4.5l0.4-5.9l1.6-3.2l2.4-4.5l2.1-11.6l2.6-4.7l0.7-3.8l3.5-5.5l-0.3-3.7l4-5.9l0.7-4.3l0.9-4l3.1-6.1l2.5-2.5l0.9-6.3l1.8-3.7
	l0.8-3.5l1.8-6.8l1.9-5l1.7-2.6l1.9-5.9l3.4-3.6l0.5-6.1l0.7-5.4l2.6-2.8l1.3-4.6l2.3-4.7l1.2-6.7l1.1-4.4l-1.1-4l2.2-5.5l1.7-5.5
	l-0.3-2.7l0.6-5.6l1.5-8l8.3-2.4l6.4-2.1l4.1-2.9l2.6-3.3l5.2-2.8l6-0.5l2.1-2.1l4.4-2.6l4.6-5l6.2-0.7l3.1-3.5l5.1-2.8l2.3-3.1
	l6.4-2.1l3.6-2.6l3.2-5.3l3.3-1.2l7.9-8.4l5.7-1.1l3.4-4.6l3.1-3.5l4.9-3.3l7.4-6l2-3.4l5.8-2.1l2-4l5.6-2.3l4-1.8l4.7-2.6l2-2.6
	l4.7-3.9l5.7-2.6l4.4-1.2l6-3.1l8.1-0.1l5.6,4.7l3.3,1.8l4.3,1.9l5.2,4l5.1,3.1l2.2,2.1l9.9,8l3.1,2.2l3.7,3.9l5.1,1.2l3.3,4.7
	l3.5,3.8l4.7,2l4.3,2.5l4.3,4.7l2.8,3.8l4.8,2.2l1.9,3.3l6,2.3l3,5.4l2.4,1.2l6.3,3.6l3.1,3.6l3.9,3.4l8.8,7.9l3.5,3.3l5.5,5.4
	l2.6,4.3l5.3,3.8l4.5,1.4l3,5.3l3.2,1.8l4.1,2.2l5.4,3.4l2.3,3.3l4.6,4.6l4.8,2l4.3,3.2l3.3,2.3l3.3,4.3l4.7,3.7l3.3,1.2l5.4,5.4
	l5.1,3.2l3.5,1.3l4.2,8.5l3,6.5l-0.7,3.8l3.1,3.8v5.6l0.8,6.2l-0.4,5.1l0.5,5.9l0.5,3.2l0.2,7.1l1.2,5.1l0.2,4.4v10.1l1.1,6.1
	l0.1,5.2l0.1,5l0.1,3.4l-1.8,6.9l1.2,4.4l1.4,3.7l-1.8,5.1l2.2,5.9l-0.9,4.2l1.3,6l-0.8,5.9l1.3,3.1l-0.8,6.3l1.3,6.3l-2,4.3
	l0.1,5.1l2.3,4.3l-1,4.6v10l-1,4.7l2.1,6.8l0.1,3.3l0.1,6.2l-1,4.7l1.3,4.1l-1.9,6.8l2.2,5l-1,4.2l1.2,5.7l0.1,3.2l0.1,7.5l-1.6,3.7
	l1,3.6l0.1,7.2l0.2,3.2l-0.9,7l0.1,4.5l1,2.8l1.2,5.5l-0.9,6l1.1,4.1l-2.1,6.3v9.5l0.8,4l0.6,7.3l-0.5,4.4l-1.5,5.3l-1.6,4.8
	l-0.6,5.7l0.2,2.8l0.3,5.7l-3,5.1l-0.8,5.8l-1,3.7l1.1,5.9l-1.2,5.7l-2,4l-1.1,4.7l-1.1,4.9l-1.4,7.3l-2,2.7l0.7,4.9l-2.7,5.2
	l-2.2,6.1l0.6,3.3l-3.3,5.7l-1.6,5.4l-8.9-7.6l-3.4-3.3l-6.8-6.9l-6.9-4.9l-9.1-7.4l-2.5-4.6l-2.3-2.3l-5.4-5.6l-2.3-2.4l-3.4-2.7
	l-3.3-4.5l-4.7-2.6l-1.5-3.7l-8.7-7.3l-1.6-3.7l-5.4-5.4l-2.2-3.3l-3.7-1.7l-2.5-5.6l-3.1-1.5l-3.7-3.8l-4.6-3.9l-2.4-5.1l-5.5-1.5
	l-2.8-5.2l-3.4-4.4l-3.2-3.2l-4.5-2.6l-3.8-3.7l-9.9-9.6l-4.8-5.9l-1.3-3l-4.1-1.6l-3.9-4l-3.4-4.6l-3.4-2.8l-2.4-3.6l-5.5-3.9
	l-2.4-4.8l-3.2-2.5l-3.5-3.9l-4.5-5.1l-1.4-3.8l-3-3.4l-4.4-3.8l-6.9-9l-2.1-3.4l-4.4-1.9l-2.6-4.2l-5.6-5l-1.4-4.8l-7.9-6.8
	l-2.7-0.2l-0.9,2.4l4.2,3l3.5,5.9l2.2,2.5l3.3,3.8l2.1,3.6l3.3,2.7l4.2,5.7l3.2,3.6l2.3,2.8l3.3,3.7l4.1,4.6l2.2,2.6l3.3,3.8
	l5.1,4.5l2.4,1.8l4.6,6.1l2.2,3.2l3.9,2.6l3.7,4.8l1.2,1.5l5.3,4.5l3.6,3.7l2.3,3.4l3.4,2.5l2.7,3.7l7.8,8.6l2.3,2.3l6,3.8l1.4,3.6
	l4.1,3.1l4.7,2.7l2.6,3.7l4.5,4.5l2.4,3.5l4.2,3.3l3.5,2.7l3.8,4.1l1.4,4.5l10.8,11.2l3.6,1.5l2.7,4.1l4.2,5.4l2.3,2.4l8.1,8.4
	l3.1,3.1l4.7,1.7l1.6,4.2l3.9,5l3.3,1.4l5.2,4.1l2.4,5.4l3,2.2l4.6,4.6l7,5.1l2.9,3.9l3.3,5l4.9,2.6l2.6,4.6l-4.1,9.1l-4.3,3.5
	l-5.7,5.2l-4.5,0.6l-5,3.9l-2.8,2.3l-5.3,2.3h-5.4l-3.6,2.7l-5.1,0.9l-10.8,3.3l-3,4.1l-5.5-0.5l-6.2,2.5l-4.1,2.7l-5.9,0.7
	l-2.7,1.6l-6.2,1.7l-4.7,0.6l-4.9,2.6l-5.5,0.7l-2.5,2.7l-10.2,2.7l-6,4.1l-3-0.2l-5.9,1.6l-3.8,3.9l-5.3,1l-3.3,0.5l-4.5,3.8
	l-5.4,2l-4.5-0.1l-5.4,3.5l-5.3,2l-5-0.2l-2.8,3.8l-5.2-0.3l-6.5,3.6l-3.8,0.8l-3.9,1.8l-6.5,0.7l-3.5,2.6l-6,2.8l-4.7,1.7l-3.1,1.9
	l-6-0.4l-5.5,2.7l-3.9,0.7l-3.5,1.6l-7,3.7l-5.4,1.7l-3.7-0.3l-5.4,2.4l-4,1.5l-9.2,1.3l-6.9-3.3l-5.2,0.7l-3.2-2.9l-6.3-2.3
	l-2.7-0.6l-5.8-1.8l-5.6-1.8l-4.9-1.2l-2.8-2.1l-4.3-2l-5.6-2.5l-5.3-4.4l-4.3-1.5l-3.3-2.7l-4.3-1.9l-3.1-3.7l-6.1-2.1l-2-3.4
	l-4.8-3.2l-2.7-4.4l-3.4-2.3l-5.4-5.5l-3.8-1.8l-1.3-4.2l-4-3.7l-4.1-6l-3.2-3.4l-0.7-3.9l-4.8-3.3l-0.5-5.8l-3.3-4.9l-3.3-4.5
	l-2.6-4.1l-0.1-5.5l-1.7-2.2l-3.1-6l-1.8-5.7l-2.9-5.2l0.5-4l-1.5-4.4l-1.4-3.9l-2.4-7.1l-0.2-2.9l-2.1-4.8l-1.2-6.4v-4l-0.8-4.6
	l-2.9-7.2l0.1-3.5l0.3-4.4l-2.7-5.1l0.4-7l-1.6-3.3l1.7-5.5l-0.5-5.7l-0.4-5l-0.2-3.9l-2.5-7.4l2-5.3l-0.3-2.6l-1.1-7.1l-0.1-4.4
	L1146.5,1503z"/>
</svg>
