<?xml version="1.0" encoding="utf-8"?>
<!-- Generator: Adobe Illustrator 23.0.1, SVG Export Plug-In . SVG Version: 6.00 Build 0)  -->
<svg version="1.1" id="Ebene_1" xmlns="http://www.w3.org/2000/svg" xmlns:xlink="http://www.w3.org/1999/xlink" x="0px" y="0px"
	 viewBox="0 0 2834.6 2834.6" style="enable-background:new 0 0 2834.6 2834.6;" xml:space="preserve">
<path d="M1217.1,1341.4c3.9-60.5,9.1-117.8,9.1-178.4c0-27.4-3.6-53.7-4.9-81.1c-1.5-31.1-3-57.9-3-87.7c32.6,1.2,67.5,7.7,91,15.7
	c57.2,19.5,85.9,30,144.5,52.7c49.5,19.2,155.4,131.1,152.8,136.8c-6.7,14.8-73.4,77.9-90.4,88.1c-55.7,33.4-96.3,48-138,66.3
	c-29.8,13.1-61.2,26.1-98.9,45.6C1254.6,1377.7,1232.5,1356.5,1217.1,1341.4z M1209.6,1434.8c0.2-23.6,2.2-53.1,6.5-84.9
	c13.1,11.6,33.3,31.5,55.4,53.2C1254.7,1411.1,1230.5,1423.4,1209.6,1434.8z M1156.9,993.9c15.6,0,34.8-1,53.1,0.2
	c0,34,1.7,64.2,2.9,88.9c1.3,26.3,4.9,52.6,4.9,80c0,49.1-9.2,182.1-10.4,193.1c-6,54.9-9.2,128.9-9.2,193.1
	c0,9.1-3.2,84.5,0.9,159.9c4.1,74.8,16.7,171.9,16.7,179.9l6-24.5c0-8-10.1-81.8-14.3-156.5c-4.2-75.4-0.8-150.8-0.8-158.8
	c0-34.3,0.3-70.7,1.5-105c24.8-13.7,49.6-26.1,69.2-35.3c66.8,48.7,147,102.3,167.9,124c39.9,41.5,211.6,221.9,232.4,231l-7.9-14.9
	c-18.2-6.9-177.4-179.7-217.8-220.8c-26.4-26.9-100.4-78.9-167.2-123c37.7-18.3,68.7-31.8,97.3-44.4c41.7-18.4,82-35.4,139.3-67.4
	c18.3-10.2,86.8-75.5,93.3-91.5c6.3-15.6-112.7-129.1-155.7-146.3c-58.5-23.4-88.5-33.1-145.9-52.7c-24.9-8.5-60.9-14.7-94.8-15.8
	l0.7-25.2l-4.5-16.3l-4.5,41.3c-18.3-1.1-16.3,0.2-31.9,0.2L1156.9,993.9z M1221.1,1346.3l-5.3-4.1l0.5-10.2l1.3-5l0.3-4.9l0.4-5
	l-0.7-5.9l1.4-5l-0.7-3.9l1.3-6l0.4-4.9l-0.7-5l1.4-3.9l-0.7-6l0.3-4.9l1.4-5l-0.7-4.9l1.3-3l-0.7-6.9l0.3-5l1.3-3.9l0.3-6l0.2-3.9
	l-0.7-4l0.2-7l1.2-3.9l0.2-5l0.2-5.9l-0.8-5l1.2-3.9l0.1-5l-0.9-6l1.1-2.9l-0.9-5l1.1-5l-1-4.9v-10.1l-0.2-5.1l0.9-5l-1.3-7.1
	l0.7-3.1l-1.3-5l0.6-5.1l-1.4-7.1l-0.4-3l-0.4-7.1l-0.4-5.1l-0.4-5l-0.4-5.1l0.7-4.1l-0.3-4l-0.5-11l-1.3-3.9l0.8-6.9l-1.2-4.8
	l0.8-2.9l-0.3-4.9l-0.2-5.8l-0.2-3.9l-0.2-5.9l-0.2-5.8l-0.2-3.9l-0.1-3.9l-1.2-5.8l0.9-4.9l-0.1-5.9v-4.8l-0.1-4.9l-0.6-5.4l11.4,1
	l4.9-0.6l2.8,1.4l6.9,0.5l3.9,0.6l4.8,0.6l4.9,0.7l4.8,0.7l5.8,0.9l3.9,0.8l4.7,1l4.8,1l5.8,1.1l4.7,1.1l3.7,1.2l4.7,0.3l5.6,2.4
	l9.2,3.1l3.8,1.6l4.7,1.7l4.7,1.6l3.7,0.6l4.7,1.6l5.7,2.7l5.7,1.6l7.3,2.3l6.7,2.6l3.6,0.7l5.6,2.6l2.7,0.7l6.6,1.7l3.6,2.7
	l4.6,0.7l3.7,1.7l6.6,2.7l3.6-0.3l4.7,2.8l4.6,1.7l4.7,2.8l5.6,1.8l5.7,1.7l3.6,1.8l3.7,0.8l5.6,2.8l4.7,1.8l3.6,0.8l10.3,4.8
	l4.5,2.2l4.4,2.4l4.3,2.6l2.3,1.7l4.2,2.8l6.1,3.9l4.1,3l4.1,2l3,3.1l4,3.2l5,4.1l3.9,3.3l2.9,2.2l4.9,4.3l8.7,6.7l2.8,3.4l3.8,3.4
	l3.8,3.5l3.8,3.5l3.7,3.5l3.8,3.5l2.7,2.6l6.7,5.6l3.7,4.6l3.7,2.7l2.7,3.7l3.7,3.8l3.7,3.7l3.7,3.9l3.7,3.8l2.6,2.9l3.6,3l5.6,6
	l3.6,5l3.4,4l3.2,3.9l4.9,5.8l0.2,2.3l-3.9,5.5l-3.1,3l-2.2,2.9l-4.3,4.8l-3.5,3.8l-2.4,3.7l-5.5,5.6l-2.6,1.7l-4.5,4.6l-2.6,3.5
	l-3.6,2.6l-3.7,3.5l-4.6,4.6l-2.7,3.5l-3.8,2.5l-1.7,2.4l-6.8,5.5l-3.8,3.4l-2.9,2.4l-2.9,2.4l-3.9,4.4l-5,3.3l-4,3.2l-3.9,4
	l-8.1,4.1l-5.4,3.5l-4.3,2.5l-5.4,2.5l-8.7,5.8l-3.4,1.4l-4.4,3.4l-5.5,2.3l-3.4,1.2l-5.4,3.3l-4.5,1.2l-2.5,2.1l-6.4,2.2l-2.5,2.1
	l-6.5,2l-4.5,2.1l-2.5,1l-4.4,3l-4.5,1l-6.5,2.9l-4.5,1.9l-2.5,1l-5.5,2.9l-4.5,1.9l-5.5,1.9l-3.5,1.9l-5.5,1.9l-2.5,1.9l-5.5,1.9
	l-10,4l-3.5,1.9l-3.5,2l-6.6,2l-3.5,1.9l-4.5,1l-3.5,2l-4.5,3l-5.6,2l-5.5,2l-2.5,1l-6.5,3.1l-3.5,2.1l-4.5,1.1l-4.5,3.1l-5.5,2.1
	l-4.5,3.2l-4.4,1.1l-4.5,2.2l-2.4,1.3l-9.6,4.8l-5.1-4.6l-3.8-2.4l-1.7-2.4l-5.8-3.4l-2.7-3.3l-4.7-4.5l-2.7-3.4l-4.7-2.4l-3.7-5.4
	l-3.6-1.5l-1.7-3.4l-3.6-3.5l-5.6-3.4l-1.6-3.5l-5.5-5.4L1221.1,1346.3z M1214.5,1432.9l-5.6,3.4l-0.6-11.9l1.1-4l-0.8-6l1.3-4
	l0.3-4l0.3-5l-0.6-6l0.3-6l1.5-5l0.4-4l-0.5-6l1.6-5l0.5-4l0.6-4l0.6-5l0.9-7.7l7.3,6.5l4.7,4.5l3.7,3.5l3.7,3.5l3.7,3.6l2.7,2.6
	l8.4,8.1l3.6,3.6l4.7,4.6l3.7,3.6l4.3,4.2l7.7,6.3l-11.9,4.6l-5.4,3.2l-3.5,2.2l-4.4,2.2l-4.4,1.3l-3.5,3.2l-6.4,2.3l-4.4,2.3
	l-3.4,2.3l-4.4,2.3l-4.4,1.4L1214.5,1432.9z M1162.7,992.7l-2.5,0.7l4.8-0.1l6.8-0.1l9.7-1.1l2.8,0.9h6.9l8.6,0.2l12,0.1l-0.3,5.3v6
	l0.1,4.9l0.1,4l0.1,6l1.1,5l-0.9,3.9l0.2,7l0.2,3.9l-0.8,5l0.2,3.9l0.2,6l0.2,4.9l0.2,5.9l0.3,3.9l0.2,4.9l0.3,3.8l0.5,9.9l0.3,7
	l0.3,3l0.4,6l0.4,4l0.4,7l0.5,3l0.4,4.9l0.4,7l0.3,4l1.3,6l-0.7,4l0.3,4.1l1.1,7l-0.8,4v9.9l-0.1,5.9l-0.1,3l-0.1,6l-0.2,4.9l-0.2,4
	l-0.1,5l-0.2,4.9l-0.2,6l-0.3,4l-0.2,5l-0.2,7l-0.3,4l-0.2,6l-0.3,5l0.7,4l-1.2,6l-0.3,5l-0.3,3l-0.3,7l-0.3,4.1l-0.3,5l-0.3,6.1
	l-0.3,5.1l-0.3,5l-0.3,3.1l-0.4,7.1l-0.3,5.2l-0.3,4.1l-0.4,5.2l-0.3,6.1l-0.4,5.2l-0.3,5.2l-0.4,4.1l-0.4,4.1l-0.3,5l-0.4,6.6
	l-0.3,4.2l-0.8,7.9l-0.6,2.9l-0.4,5.9l-0.5,3.9l-0.5,5.9l-0.4,6l-0.4,2.9l-0.4,5.9l-0.3,6l-0.4,4.9l-0.3,4.9l0.6,3l-1.3,4.9l-0.3,7
	l-0.3,4l-0.2,5.9l-0.3,4l-0.2,4.9l-0.3,4l-0.2,7l-0.2,2.9l-0.2,5l-0.2,4.9l-0.1,7l-0.2,5l-0.1,2.9l-0.2,7l-0.1,5l-0.1,4.9l-0.1,5
	l-0.1,4l-0.1,4l-0.1,4.9l-0.1,7v3v6.9l-0.1,3v4.9l-0.1,11l-0.1,6l-0.2,4l-0.1,4l-0.1,5l-0.1,7l-0.1,4l-0.1,6l-0.1,4v4l-0.1,6v3.9
	l-0.1,5v7v3v6v5l0.1,4v5l0.1,7v4l0.1,6l0.1,5l0.1,3l0.2,6l0.1,6l0.2,4l0.2,4l0.2,5l0.2,7l0.2,4l0.6,9.1l0.3,7.1l0.3,5.1l0.4,4.1
	l0.3,4.1l0.4,5l0.4,7.1l0.4,4.1l0.4,6.1l0.5,5.1l0.4,5.2l0.5,4.1l0.4,6.1l0.5,5.1l1.5,5.1l0.5,3.2l-0.5,5.1l0.5,5.1l0.5,7.2l0.6,3.1
	l0.5,7.2l1.5,5.2l-0.4,3.2l0.5,6.2l0.6,4.2l0.6,5.2l0.5,7.2l0.6,5.2l0.6,3.1l0.5,5.2l0.6,5.1l0.5,7l0.5,2.8l0.5,4.4l0.3,4.2l0.2-3.8
	l1.4-2.7l1.2-5.9l1.2-3.9l-0.2-10.9l0.5-5.1l-0.5-4l-1.6-5.1l0.5-5l-0.6-4.1l-1.5-7l0.4-5l-0.5-4.1l-0.6-4l-0.5-6l-0.5-5.1l-0.6-4
	l-1.5-6.1l-0.5-5l-0.5-4.1l0.6-7l-1.5-5l-0.5-3.1l0.6-5l-0.5-7.1l-0.4-3l-0.4-7.1l-1.4-3l-0.4-7.1l0.6-5.1l-0.3-4l-0.4-5.1l-0.3-6.1
	l-0.3-5l-0.6-8.2l-0.2-5.1l-0.3-7.1l-1.2-4.1l0.9-6.1l-0.2-4.1l-0.2-4.1l-0.1-7.1l-1.1-3.1l0.9-6.1l-1.1-6.1l0.9-5.1l-1-5.2
	l-0.1-4.1l1-5.1l-1-5.2l1-6.1v-5.2l0.1-4.1v-5.2l0.1-5.1v-5.2l0.1-5.2l-0.9-6.1l0.1-4.1l1.1-5.1l-0.8-4l0.1-7l1.1-3.7l-0.9-5.4
	l1.2-2.8v-8.7v-5v-5v-3l-0.9-6l1-6l-1-3l1.1-6v-6l0.1-3l-1-6l0.1-5l0.1-4l1.1-6l-0.9-4l1.1-6l0.1-5l0.1-5l0.2-5l0.4-11.5l5.2-2.9
	l4.3-2.3l3.3-1.3l4.3-2.3l4.3-2.3l3.3-2.2l5.3-2.3l2.4-1.2l6.3-3.2l3.4-1.2l4.3-3.1l4.4-2.2l5.3-2.1l4.3-2.1l10.1-5.1l3.7,4l4,2.9
	l4.1,3l10.2,7.8l2.1,1l5.1,3.9l4.1,1.9l2.1,2l5.1,3.9l8.2,5.8l3.2,2.9l4.1,3l5.1,2.9l4.1,2.9l4.2,2.9l4.1,2.9l4.1,3l4.1,2.9l4.2,2.9
	l3.1,1.9l4.1,3l4.1,2.9l5.2,4l3.1,1.9l4.1,3l4.1,2.9l5.1,4l4,3l5.1,3l2.1,2l5,4l4,3l3.9,3l3.9,3.1l7.5,6l4.6,3l2.5,3l3.2,2.9
	l5.3,5.4l4.4,4.6l4.4,4.5l1.4,1.6l4.5,4.6l3.4,3.6l3.4,3.6l5.5,5.6l2.4,2.5l2.5,2.6l3.4,3.6l4.5,4.6l3.4,3.6l3.5,3.6l2.4,2.6
	l3.5,3.5l3.4,3.6l3.5,3.6l3.4,3.6l3.5,3.6l4.5,4.6l3.4,3.6l3.5,3.5l4.5,4.6l2.4,2.6l2.5,2.6l7,7.2l3.5,3.5l4.5,4.6l3.5,3.6l4.5,3.6
	l2.5,3.6l3.5,3.6l2.5,2.5l4.5,4.6l6.1,5.2l3.5,4.6l3.6,3.6l3.5,3.6l3.6,3.6l4.6,4.6l3.6,3.6l2.6,2.6l3.6,2.6l3.6,4.6l3.7,3.6
	l3.6,3.6l5.7,5.7l3.7,3.6l2.7,2.6l2.7,2.6l3.7,3.6l4.7,4.6l2.8,2.6l3.8,3.6l3.8,3.5l4.7,4.5l4.8,4.4l4.7,3.4l2.7,3.2l1.6,1l3.4,2.7
	l3.1,2.2l-1-2.5l-3.7-4.9l-6.8-6.6l-4-4.1l-3.8-4.2l-3.7-2.4l-2.7-3.4l-3.7-2.4l-3.6-3.4l-4.6-5.5l-3.6-2.5l-3.5-2.5l-2.6-3.5
	l-8.1-8.1l-3.5-2.6l-2.5-4.5l-2.5-2.6l-8-8.1l-4.5-3.6l-2.5-3.6l-4.5-2.6l-2.5-3.6l-4.5-5.6l-2.4-2.6l-4.5-4.6l-3.5-3.6l-2.4-1.6
	l-4.5-4.6l-2.5-3.6l-4.4-4.6l-3.5-3.6l-1.4-1.7l-5.5-3.6l-1.4-3.6l-7-7.3l-8.9-9.3l-3.4-3.6l-2.5-2.7l-4.4-2.6l-3.5-5.7l-3.5-3.6
	l-2.4-1.7l-3.5-3.7l-4.5-5.6l-3.5-3.7l-3.4-2.7l-3.5-4.7l-3.5-3.7l-3.5-2.7l-3.5-4.6l-2.5-2.7l-4.5-4.7l-2.5-1.7l-4.5-5.7l-1.5-1.6
	l-3.4-3.7l-4.5-3.5l-2.3-3.5l-5.3-5.5l-6.6-6.6l-3.6-1.3l-3.7-3.3l-3.7-5.2l-3.7-1.2l-2.8-4.2l-2.9-2.1l-5.8-5.1l-2.9-2l-4.9-4.1
	l-3.9-3l-4-2l-3.9-4l-4-1.9l-4-4l-3.9-2.9l-3-1.9l-5-3.9l-4.1-2.9l-3-0.9l-5-3.9l-2-1.9l-10.1-7.7l-3.1-1.8l-5.1-3.9l-8.1-5.6
	l-3.1-1.8l-4.1-2.9l-4.1-1.8l-5.1-2.7l-3.1-2.8l-4.1-3.8l-6.1-3.8l-2.1-1.8l-5.1-1.7l-5.1-4.8l-3.2-2.8l-4.1-2.7l-8.9-5l6.2-2.7
	l5.7-2.3l4.6-3.2l2.7-1.2l4.6-2.2l5.6-2.1l3.7-2.2l4.6-2.1l6.7-3.2l3.6-1.1l5.7-3.1l2.6-1.1l6.6-2.1l2.7-2l9.2-4.1l5.6-2.1l3.7-2
	l6.6-3l4.6-1.1l7.1-4l5.6-2l3.5-2l4.6-2l4.5-2l4.5-2l6.6-2l3.5-2l3.5-1.1l5.6-3l4.5-2.1l5.5-3l2.6-1.1l5.5-2.2l4.5-2.1l5.5-3.1
	l3.5-1.2l3.5-2.2l5.5-2.2l9-5.5l5.5-2.3l3.4-1.3l3.5-2.3l6.4-4.3l3.5-0.4l5.4-3.3l2.4-1.4l4.4-2.4l6.4-2.5l8.6-6.1l4.1-2.9l6.9-5.3
	l3.8-3.3l4.9-4.3l2.8-2.3l2.7-2.4l2.8-2.4l4.7-4.4l4.7-4.5l1.7-1.5l4.7-4.5l3.6-3.5l3.6-3.6l4.6-4.6l3.6-3.7l2.6-2.6l3.6-3.8
	l3.5-3.8l3.5-3.8l3.4-3.9l3.3-3.9l4.1-5l1.8-4l2.6-7.7l-2.2-4.5l-2.7-4.3l-2.9-3.1l-3.1-4l-4.2-4.9l-3.2-4.9l-2.3-2.8l-4.4-3.8
	l-3.4-3.7l-2.4-3.7l-2.5-2.6l-5.5-5.6l-3.5-2.6l-1.6-2.6l-5.5-5.5l-3.6-3.5l-4.7-3.5l-2.6-3.5l-3.7-3.4l-3.7-3.5l-3.7-3.4l-2.8-2.4
	l-3.7-2.3l-4.8-5.4l-3.8-3.3l-7.7-6.5l-3.9-1.3l-3.9-3.2l-3.9-5.2l-2-1.2l-5-4.1l-4-3.1l-4.1-3l-4.1-3l-3.2-2l-5.2-3.8l-5.3-1.8
	l-2.3-2.7l-6.4-3.5l-3.3-1.3l-10.1-4.8l-8.4-2.7l-5.7-2.8l-2.7-0.9l-6.7-2.8l-2.7-0.8l-5.7-2.8l-3.7-1.7l-5.6-1.8l-4.7-1.7l-5.7-1.7
	l-3.6-0.7l-4.7-1.7l-5.7-2.7l-4.7-0.6l-3.6-1.7l-4.7-2.6l-4.7-0.7l-3.7-2.6l-4.7-0.6l-4.7-2.6l-6.8-0.6l-2.7-1.7l-6.7-1.6l-2.8-2.6
	l-5.8-1.6l-3.7-0.6l-6.8-2.7l-3.7-1.6l-10.6-3.2l-3.8-1.4l-5.9-1.4l-3.9-1.2l-3.9-0.2l-5-2.1l-5.9-1l-6-0.9l-3,0.1l-5-0.8l-7.1-1.8
	l-5,0.4l-4.1-0.6l-5-1.6l-5.1,0.5l-6.1-1.4l-5-0.3h-10.3l0.2-5.5l1.2-4.1l-0.9-6l0.2-5.1l-0.4-9.4l-2.5-7.5l-0.1,2.8l-0.5,3.1
	l-0.6,6.2l-0.6,3.2l-0.5,6.1l-0.6,5.2l-0.5,4.1l-0.3,6.3l-11.3-0.5h-6.2l-6,0.3l-5.3,0.2l-9.7,1.8l-4.3,1.7L1162.7,992.7z"/>
</svg>
