<?xml version="1.0" encoding="utf-8"?>
<!-- Generator: Adobe Illustrator 23.0.1, SVG Export Plug-In . SVG Version: 6.00 Build 0)  -->
<svg version="1.1" id="Ebene_1" xmlns="http://www.w3.org/2000/svg" xmlns:xlink="http://www.w3.org/1999/xlink" x="0px" y="0px"
	 viewBox="0 0 2834.65 2834.65" style="enable-background:new 0 0 2834.65 2834.65;" xml:space="preserve">
<path d="M1705.02,1081.82h-12c-36,0-73,2-109,2c-17,0-36,1-52,2l-140,6c-11,0-13-1-9-27c0-4,0-7-3-11c-5,6-6,8-7,16c0,24-5,24-34,24
	c-41,0-111,0-190,2c-24,4-28,10,1,10c84,0,106-3,191-3c28,0,29,2,26,26c-2,17-3,34-5,51c-18,153-27,245-88,550c-2,10-6,20-8,31
	c0,4-4,16-2,20c6-4,7-14,11-26c15-62,28-125,39-189c38-221,35-234,63-442c1-19,2-22,19-22c19,0,37-3,56-4c25-1,50-3,76-4
	c22-1,44-3,66-3c31,0,63-2,95-2C1698.02,1088.82,1705.02,1086.82,1705.02,1081.82z"/>
</svg>
