<?xml version="1.0" encoding="utf-8"?>
<!-- Generator: Adobe Illustrator 23.0.1, SVG Export Plug-In . SVG Version: 6.00 Build 0)  -->
<svg version="1.1" id="Ebene_1" xmlns="http://www.w3.org/2000/svg" xmlns:xlink="http://www.w3.org/1999/xlink" x="0px" y="0px"
	 viewBox="0 0 2834.65 2834.65" style="enable-background:new 0 0 2834.65 2834.65;" xml:space="preserve">
<path d="M1655.67,997.69c1,7,0,13,0,19c0,17-5,36-6,52c-4,65-3,155-6,180c-7,59-7,117-11,175c-8,119-1,135-20,209
	c-14,54-36,73-92,117c-19,15-69,41-108,51c12,8,22,10,56,27c4,2,7,2,9,8c-4,3-9,0-14-2c-12-5-18-9-29-14c-27-12-30-21-58-10
	c-5,2-6,3-16,6c-6,2-11,6-18,2c3-7,7-6,13-8c10-3,16-5,27-9c-80-20-102-24-136-65c-22-27-51-59-56-123c-5-61-10-121-12-180
	c-1-31,4-60,6-90c4-60,7-121,15-180l3-22c1-2,2-4,5-3c3,0,1,4,1,7c0,42-6,84-10,126c-3,34-5,67-9,101c-6,51-2,102,2,153
	c7,93,7,111,18,137c16,38,58,96,95,109c26,9,61,22,94,24c40-10,68-18,93-34c27-17,53-39,76-61c32-30,50-104,53-171c3-59,3-119,8-179
	c6-74,11-147,11-221c0-28,4-69,7-105C1647.67,1011.69,1646.67,1001.69,1655.67,997.69z"/>
</svg>
