<?xml version="1.0" encoding="utf-8"?>
<!-- Generator: Adobe Illustrator 23.0.1, SVG Export Plug-In . SVG Version: 6.00 Build 0)  -->
<svg version="1.1" id="Ebene_1" xmlns="http://www.w3.org/2000/svg" xmlns:xlink="http://www.w3.org/1999/xlink" x="0px" y="0px"
	 viewBox="0 0 2834.6 2834.6" style="enable-background:new 0 0 2834.6 2834.6;" xml:space="preserve">
<path d="M1472.2,1347c-58.1,118.6-78.6,168.4-102.1,203.9c-10.3,23.4-21.7,40.8-49.8,99.6c-28.8,58.3-39.7,84.3-69.5,131.9
	c-0.7,1.1-9.5,14-11.9,16.1c-0.4-3.5,6.2-17.5,7-19.1c2.8-9.1,48.4-95.4,59.9-120.3c26.4-51.8,32.9-70.4,62.8-122.5
	c35.9-62.6,26.3-46.2,93.3-185.1c4.3-9.2,4.2-10.3-4.3-16.6c-29.4-21.8-55.5-47-77.5-74.2c-19.4-23.8-133.3-136.3-166-159.6
	c-3.2-2.3-17-10.1-20-13.8c-1-1.8-1.8-2-0.6-3.8c0.4-0.9,4.6-1.2,6.3-0.4c6.3,2.9,13.2,5.8,18.2,10.1c15.6,12.9,30.9,26,45.4,40.1
	c69.2,66.6,112.1,110.3,121.7,121.5c16.5,18.9,36,37.7,54.7,55.3c4.3,4.2,21.1,16.7,29.5,23.2c9.7-16.2,25.1-42.6,31.1-54.4
	c-14.7,27.3,131.4-234.3,133.2-237.4c1.6-3,4.8-6.4,7.1-5.2c1.7,1,1.5,5.2-0.9,9.5c-24.3,40.2-79.5,138.8-87.5,154.7
	c-10.3,18.9-20.7,38-31,56.9c-17.6,32.2-32,56.2-40.9,74.4c-2.5,5-4.3,6.5,0,11.1c1.3,1.3,4,3.4,4.5,5c1.1,3.2,0.9,4.6-2.6,5.5
	C1481.9,1353.5,1476.1,1350.7,1472.2,1347z"/>
</svg>
